<svg width="31" height="45" viewBox="0 0 31 45" fill="none" xmlns="http://www.w3.org/2000/svg">
<g clip-path="url(#clip0_8002_47491)">
<path d="M21.9007 17.8888C21.3798 18.2077 20.9484 18.6536 20.6467 19.1846C20.345 19.7157 20.1831 20.3146 20.1759 20.9253C20.178 21.6127 20.3816 22.2843 20.7616 22.8571C21.1416 23.4299 21.6813 23.8786 22.3138 24.1476C22.0644 24.9522 21.6954 25.7147 21.219 26.4094C20.5374 27.3906 19.8247 28.3717 18.7403 28.3717C17.6559 28.3717 17.377 27.7417 16.1273 27.7417C14.9086 27.7417 14.4748 28.3924 13.4833 28.3924C12.4918 28.3924 11.7999 27.4835 11.0046 26.3681C9.95407 24.8056 9.37671 22.9731 9.3418 21.0905C9.3418 17.9921 11.3558 16.35 13.3387 16.35C14.3922 16.35 15.2701 17.0419 15.9311 17.0419C16.5611 17.0419 17.5423 16.3086 18.7403 16.3086C19.3563 16.2927 19.9667 16.4286 20.5178 16.7041C21.0689 16.9797 21.5438 17.3865 21.9007 17.8888ZM18.1723 14.997C18.7004 14.3758 18.9993 13.5922 19.0192 12.777C19.0201 12.6696 19.0097 12.5623 18.9882 12.457C18.0811 12.5456 17.2422 12.978 16.6437 13.6654C16.1105 14.2619 15.8003 15.0246 15.7658 15.8239C15.7662 15.9211 15.7766 16.018 15.7968 16.1131C15.8683 16.1266 15.9409 16.1336 16.0137 16.1338C16.4318 16.1006 16.8387 15.9826 17.2098 15.7872C17.5809 15.5918 17.9083 15.3229 18.1723 14.997Z" fill="black" fill-opacity="0.8"/>
</g>
<defs>
<clipPath id="clip0_8002_47491">
<rect width="14" height="44" fill="white" transform="translate(8.82812 0.206543)"/>
</clipPath>
</defs>
</svg>
