<svg width="37" height="37" viewBox="0 0 37 37" fill="none" xmlns="http://www.w3.org/2000/svg">
<rect x="0.828125" y="0.546875" width="36" height="36" rx="18" fill="#333336"/>
<path d="M25.3531 17.2059H20.1781V12.0219C20.1781 11.6638 20.0359 11.3205 19.7827 11.0673C19.5295 10.8141 19.1862 10.6719 18.8281 10.6719C18.4701 10.6719 18.1267 10.8141 17.8735 11.0673C17.6204 11.3205 17.4781 11.6638 17.4781 12.0219V17.1969H12.3031C11.9451 17.1969 11.6017 17.3391 11.3485 17.5923C11.0954 17.8455 10.9531 18.1888 10.9531 18.5469C10.9531 18.9049 11.0954 19.2483 11.3485 19.5015C11.6017 19.7546 11.9451 19.8969 12.3031 19.8969H17.4781V25.0719C17.4781 25.4299 17.6204 25.7733 17.8735 26.0265C18.1267 26.2796 18.4701 26.4219 18.8281 26.4219C19.1862 26.4219 19.5295 26.2796 19.7827 26.0265C20.0359 25.7733 20.1781 25.4299 20.1781 25.0719V19.8969H25.3531C25.7112 19.8969 26.0545 19.7546 26.3077 19.5015C26.5609 19.2483 26.7031 18.9049 26.7031 18.5469C26.7031 18.1888 26.5609 17.8455 26.3077 17.5923C26.0545 17.3391 25.7112 17.1969 25.3531 17.1969V17.2059Z" fill="#D6D6D7"/>
</svg>
