<svg width="48" height="13" viewBox="0 0 48 13" fill="none" xmlns="http://www.w3.org/2000/svg">
<g clip-path="url(#clip0_8013_62809)">
<rect y="0.349609" width="12" height="12" rx="6" fill="#1A2530"/>
<rect y="0.349609" width="12" height="12" rx="6" fill="url(#paint0_linear_8013_62809)"/>
<g filter="url(#filter0_f_8013_62809)">
<rect x="0.5" y="0.849609" width="11" height="11" rx="5.5" fill="#1A2530"/>
</g>
</g>
<g clip-path="url(#clip1_8013_62809)">
<rect x="18" y="0.349609" width="12" height="12" rx="6" fill="#DED6D1"/>
<rect x="18" y="0.349609" width="12" height="12" rx="6" fill="url(#paint1_linear_8013_62809)"/>
<g filter="url(#filter1_f_8013_62809)">
<rect x="18.5" y="0.849609" width="11" height="11" rx="5.5" fill="#DED6D1"/>
</g>
</g>
<g clip-path="url(#clip2_8013_62809)">
<rect x="36" y="0.349609" width="12" height="12" rx="6" fill="#E0E0E0"/>
<rect x="36" y="0.349609" width="12" height="12" rx="6" fill="url(#paint2_linear_8013_62809)"/>
<g filter="url(#filter2_f_8013_62809)">
<rect x="36.5" y="0.849609" width="11" height="11" rx="5.5" fill="#E0E0E0"/>
</g>
</g>
<defs>
<filter id="filter0_f_8013_62809" x="0" y="0.349609" width="12" height="12" filterUnits="userSpaceOnUse" color-interpolation-filters="sRGB">
<feFlood flood-opacity="0" result="BackgroundImageFix"/>
<feBlend mode="normal" in="SourceGraphic" in2="BackgroundImageFix" result="shape"/>
<feGaussianBlur stdDeviation="0.25" result="effect1_foregroundBlur_8013_62809"/>
</filter>
<filter id="filter1_f_8013_62809" x="18" y="0.349609" width="12" height="12" filterUnits="userSpaceOnUse" color-interpolation-filters="sRGB">
<feFlood flood-opacity="0" result="BackgroundImageFix"/>
<feBlend mode="normal" in="SourceGraphic" in2="BackgroundImageFix" result="shape"/>
<feGaussianBlur stdDeviation="0.25" result="effect1_foregroundBlur_8013_62809"/>
</filter>
<filter id="filter2_f_8013_62809" x="36" y="0.349609" width="12" height="12" filterUnits="userSpaceOnUse" color-interpolation-filters="sRGB">
<feFlood flood-opacity="0" result="BackgroundImageFix"/>
<feBlend mode="normal" in="SourceGraphic" in2="BackgroundImageFix" result="shape"/>
<feGaussianBlur stdDeviation="0.25" result="effect1_foregroundBlur_8013_62809"/>
</filter>
<linearGradient id="paint0_linear_8013_62809" x1="6" y1="0.349609" x2="6" y2="12.3496" gradientUnits="userSpaceOnUse">
<stop stop-opacity="0.48"/>
<stop offset="0.5" stop-opacity="0.2"/>
<stop offset="1" stop-opacity="0.02"/>
</linearGradient>
<linearGradient id="paint1_linear_8013_62809" x1="24" y1="0.349609" x2="24" y2="12.3496" gradientUnits="userSpaceOnUse">
<stop stop-opacity="0.48"/>
<stop offset="0.5" stop-opacity="0.2"/>
<stop offset="1" stop-opacity="0.02"/>
</linearGradient>
<linearGradient id="paint2_linear_8013_62809" x1="42" y1="0.349609" x2="42" y2="12.3496" gradientUnits="userSpaceOnUse">
<stop stop-opacity="0.48"/>
<stop offset="0.5" stop-opacity="0.2"/>
<stop offset="1" stop-opacity="0.02"/>
</linearGradient>
<clipPath id="clip0_8013_62809">
<rect y="0.349609" width="12" height="12" rx="6" fill="white"/>
</clipPath>
<clipPath id="clip1_8013_62809">
<rect x="18" y="0.349609" width="12" height="12" rx="6" fill="white"/>
</clipPath>
<clipPath id="clip2_8013_62809">
<rect x="36" y="0.349609" width="12" height="12" rx="6" fill="white"/>
</clipPath>
</defs>
</svg>
