<svg width="138" height="13" viewBox="0 0 138 13" fill="none" xmlns="http://www.w3.org/2000/svg">
<g clip-path="url(#clip0_8013_62911)">
<rect y="0.349609" width="12" height="12" rx="6" fill="#1A2530"/>
<rect y="0.349609" width="12" height="12" rx="6" fill="url(#paint0_linear_8013_62911)"/>
<g filter="url(#filter0_f_8013_62911)">
<rect x="0.5" y="0.849609" width="11" height="11" rx="5.5" fill="#1A2530"/>
</g>
</g>
<g clip-path="url(#clip1_8013_62911)">
<rect x="18" y="0.349609" width="12" height="12" rx="6" fill="#DED6D1"/>
<rect x="18" y="0.349609" width="12" height="12" rx="6" fill="url(#paint1_linear_8013_62911)"/>
<g filter="url(#filter1_f_8013_62911)">
<rect x="18.5" y="0.849609" width="11" height="11" rx="5.5" fill="#DED6D1"/>
</g>
</g>
<g clip-path="url(#clip2_8013_62911)">
<rect x="36" y="0.349609" width="12" height="12" rx="6" fill="#E0E0E0"/>
<rect x="36" y="0.349609" width="12" height="12" rx="6" fill="url(#paint2_linear_8013_62911)"/>
<g filter="url(#filter2_f_8013_62911)">
<rect x="36.5" y="0.849609" width="11" height="11" rx="5.5" fill="#E0E0E0"/>
</g>
</g>
<g clip-path="url(#clip3_8013_62911)">
<rect x="54" y="0.349609" width="12" height="12" rx="6" fill="#FADCDE"/>
<rect x="54" y="0.349609" width="12" height="12" rx="6" fill="url(#paint3_linear_8013_62911)"/>
<g filter="url(#filter3_f_8013_62911)">
<rect x="54.5" y="0.849609" width="11" height="11" rx="5.5" fill="#FADCDE"/>
</g>
</g>
<g clip-path="url(#clip4_8013_62911)">
<rect x="72" y="0.349609" width="12" height="12" rx="6" fill="#D61139"/>
<rect x="72" y="0.349609" width="12" height="12" rx="6" fill="url(#paint4_linear_8013_62911)"/>
<g filter="url(#filter4_f_8013_62911)">
<rect x="72.5" y="0.849609" width="11" height="11" rx="5.5" fill="#D61139"/>
</g>
</g>
<g clip-path="url(#clip5_8013_62911)">
<rect x="90" y="0.349609" width="12" height="12" rx="6" fill="#3E3A36"/>
<rect x="90" y="0.349609" width="12" height="12" rx="6" fill="url(#paint5_linear_8013_62911)"/>
<g filter="url(#filter5_f_8013_62911)">
<rect x="90.5" y="0.849609" width="11" height="11" rx="5.5" fill="#3E3A36"/>
</g>
</g>
<g clip-path="url(#clip6_8013_62911)">
<rect x="108" y="0.349609" width="12" height="12" rx="6" fill="#E6E6E7"/>
<rect x="108" y="0.349609" width="12" height="12" rx="6" fill="url(#paint6_linear_8013_62911)"/>
<g filter="url(#filter6_f_8013_62911)">
<rect x="108.5" y="0.849609" width="11" height="11" rx="5.5" fill="#E6E6E7"/>
</g>
</g>
<g clip-path="url(#clip7_8013_62911)">
<rect x="126" y="0.349609" width="12" height="12" rx="6" fill="#D4BDA1"/>
<rect x="126" y="0.349609" width="12" height="12" rx="6" fill="url(#paint7_linear_8013_62911)"/>
<g filter="url(#filter7_f_8013_62911)">
<rect x="126.5" y="0.849609" width="11" height="11" rx="5.5" fill="#D4BDA1"/>
</g>
</g>
<defs>
<filter id="filter0_f_8013_62911" x="0" y="0.349609" width="12" height="12" filterUnits="userSpaceOnUse" color-interpolation-filters="sRGB">
<feFlood flood-opacity="0" result="BackgroundImageFix"/>
<feBlend mode="normal" in="SourceGraphic" in2="BackgroundImageFix" result="shape"/>
<feGaussianBlur stdDeviation="0.25" result="effect1_foregroundBlur_8013_62911"/>
</filter>
<filter id="filter1_f_8013_62911" x="18" y="0.349609" width="12" height="12" filterUnits="userSpaceOnUse" color-interpolation-filters="sRGB">
<feFlood flood-opacity="0" result="BackgroundImageFix"/>
<feBlend mode="normal" in="SourceGraphic" in2="BackgroundImageFix" result="shape"/>
<feGaussianBlur stdDeviation="0.25" result="effect1_foregroundBlur_8013_62911"/>
</filter>
<filter id="filter2_f_8013_62911" x="36" y="0.349609" width="12" height="12" filterUnits="userSpaceOnUse" color-interpolation-filters="sRGB">
<feFlood flood-opacity="0" result="BackgroundImageFix"/>
<feBlend mode="normal" in="SourceGraphic" in2="BackgroundImageFix" result="shape"/>
<feGaussianBlur stdDeviation="0.25" result="effect1_foregroundBlur_8013_62911"/>
</filter>
<filter id="filter3_f_8013_62911" x="54" y="0.349609" width="12" height="12" filterUnits="userSpaceOnUse" color-interpolation-filters="sRGB">
<feFlood flood-opacity="0" result="BackgroundImageFix"/>
<feBlend mode="normal" in="SourceGraphic" in2="BackgroundImageFix" result="shape"/>
<feGaussianBlur stdDeviation="0.25" result="effect1_foregroundBlur_8013_62911"/>
</filter>
<filter id="filter4_f_8013_62911" x="72" y="0.349609" width="12" height="12" filterUnits="userSpaceOnUse" color-interpolation-filters="sRGB">
<feFlood flood-opacity="0" result="BackgroundImageFix"/>
<feBlend mode="normal" in="SourceGraphic" in2="BackgroundImageFix" result="shape"/>
<feGaussianBlur stdDeviation="0.25" result="effect1_foregroundBlur_8013_62911"/>
</filter>
<filter id="filter5_f_8013_62911" x="90" y="0.349609" width="12" height="12" filterUnits="userSpaceOnUse" color-interpolation-filters="sRGB">
<feFlood flood-opacity="0" result="BackgroundImageFix"/>
<feBlend mode="normal" in="SourceGraphic" in2="BackgroundImageFix" result="shape"/>
<feGaussianBlur stdDeviation="0.25" result="effect1_foregroundBlur_8013_62911"/>
</filter>
<filter id="filter6_f_8013_62911" x="108" y="0.349609" width="12" height="12" filterUnits="userSpaceOnUse" color-interpolation-filters="sRGB">
<feFlood flood-opacity="0" result="BackgroundImageFix"/>
<feBlend mode="normal" in="SourceGraphic" in2="BackgroundImageFix" result="shape"/>
<feGaussianBlur stdDeviation="0.25" result="effect1_foregroundBlur_8013_62911"/>
</filter>
<filter id="filter7_f_8013_62911" x="126" y="0.349609" width="12" height="12" filterUnits="userSpaceOnUse" color-interpolation-filters="sRGB">
<feFlood flood-opacity="0" result="BackgroundImageFix"/>
<feBlend mode="normal" in="SourceGraphic" in2="BackgroundImageFix" result="shape"/>
<feGaussianBlur stdDeviation="0.25" result="effect1_foregroundBlur_8013_62911"/>
</filter>
<linearGradient id="paint0_linear_8013_62911" x1="6" y1="0.349609" x2="6" y2="12.3496" gradientUnits="userSpaceOnUse">
<stop stop-opacity="0.48"/>
<stop offset="0.5" stop-opacity="0.2"/>
<stop offset="1" stop-opacity="0.02"/>
</linearGradient>
<linearGradient id="paint1_linear_8013_62911" x1="24" y1="0.349609" x2="24" y2="12.3496" gradientUnits="userSpaceOnUse">
<stop stop-opacity="0.48"/>
<stop offset="0.5" stop-opacity="0.2"/>
<stop offset="1" stop-opacity="0.02"/>
</linearGradient>
<linearGradient id="paint2_linear_8013_62911" x1="42" y1="0.349609" x2="42" y2="12.3496" gradientUnits="userSpaceOnUse">
<stop stop-opacity="0.48"/>
<stop offset="0.5" stop-opacity="0.2"/>
<stop offset="1" stop-opacity="0.02"/>
</linearGradient>
<linearGradient id="paint3_linear_8013_62911" x1="60" y1="0.349609" x2="60" y2="12.3496" gradientUnits="userSpaceOnUse">
<stop stop-opacity="0.48"/>
<stop offset="0.5" stop-opacity="0.2"/>
<stop offset="1" stop-opacity="0.02"/>
</linearGradient>
<linearGradient id="paint4_linear_8013_62911" x1="78" y1="0.349609" x2="78" y2="12.3496" gradientUnits="userSpaceOnUse">
<stop stop-opacity="0.48"/>
<stop offset="0.5" stop-opacity="0.2"/>
<stop offset="1" stop-opacity="0.02"/>
</linearGradient>
<linearGradient id="paint5_linear_8013_62911" x1="96" y1="0.349609" x2="96" y2="12.3496" gradientUnits="userSpaceOnUse">
<stop stop-opacity="0.48"/>
<stop offset="0.5" stop-opacity="0.2"/>
<stop offset="1" stop-opacity="0.02"/>
</linearGradient>
<linearGradient id="paint6_linear_8013_62911" x1="114" y1="0.349609" x2="114" y2="12.3496" gradientUnits="userSpaceOnUse">
<stop stop-opacity="0.48"/>
<stop offset="0.5" stop-opacity="0.2"/>
<stop offset="1" stop-opacity="0.02"/>
</linearGradient>
<linearGradient id="paint7_linear_8013_62911" x1="132" y1="0.349609" x2="132" y2="12.3496" gradientUnits="userSpaceOnUse">
<stop stop-opacity="0.48"/>
<stop offset="0.5" stop-opacity="0.2"/>
<stop offset="1" stop-opacity="0.02"/>
</linearGradient>
<clipPath id="clip0_8013_62911">
<rect y="0.349609" width="12" height="12" rx="6" fill="white"/>
</clipPath>
<clipPath id="clip1_8013_62911">
<rect x="18" y="0.349609" width="12" height="12" rx="6" fill="white"/>
</clipPath>
<clipPath id="clip2_8013_62911">
<rect x="36" y="0.349609" width="12" height="12" rx="6" fill="white"/>
</clipPath>
<clipPath id="clip3_8013_62911">
<rect x="54" y="0.349609" width="12" height="12" rx="6" fill="white"/>
</clipPath>
<clipPath id="clip4_8013_62911">
<rect x="72" y="0.349609" width="12" height="12" rx="6" fill="white"/>
</clipPath>
<clipPath id="clip5_8013_62911">
<rect x="90" y="0.349609" width="12" height="12" rx="6" fill="white"/>
</clipPath>
<clipPath id="clip6_8013_62911">
<rect x="108" y="0.349609" width="12" height="12" rx="6" fill="white"/>
</clipPath>
<clipPath id="clip7_8013_62911">
<rect x="126" y="0.349609" width="12" height="12" rx="6" fill="white"/>
</clipPath>
</defs>
</svg>
