<svg width="7" height="15" viewBox="0 0 7 15" fill="none" xmlns="http://www.w3.org/2000/svg">
<path d="M1.66602 11.5264C1.52474 11.5264 1.40397 11.4774 1.30371 11.3794C1.20345 11.2814 1.15332 11.1618 1.15332 11.0205C1.15332 10.8792 1.20573 10.7562 1.31055 10.6514L4.07227 7.89648L1.31055 5.1416C1.20573 5.03678 1.15332 4.91374 1.15332 4.77246C1.15332 4.63119 1.20345 4.51156 1.30371 4.41357C1.40397 4.31559 1.52474 4.2666 1.66602 4.2666C1.79818 4.2666 1.91667 4.31445 2.02148 4.41016L5.13867 7.51367C5.24805 7.61393 5.30273 7.74154 5.30273 7.89648C5.30273 8.04232 5.24805 8.16992 5.13867 8.2793L2.02148 11.3828C1.92578 11.4785 1.80729 11.5264 1.66602 11.5264Z" fill="#0066CC"/>
</svg>
