<svg width="32" height="45" viewBox="0 0 32 45" fill="none" xmlns="http://www.w3.org/2000/svg">
<g clip-path="url(#clip0_8002_47554)">
<path d="M22.9076 27.4087L19.0376 23.5387C19.7386 22.6097 20.1596 21.4577 20.1596 20.2067C20.1596 17.1467 17.6706 14.6567 14.6096 14.6567C11.5496 14.6567 9.05957 17.1467 9.05957 20.2067C9.05957 23.2677 11.5496 25.7567 14.6096 25.7567C15.8606 25.7567 17.0126 25.3357 17.9416 24.6347L21.8116 28.5047C21.9626 28.6557 22.1616 28.7327 22.3596 28.7327C22.5576 28.7327 22.7556 28.6567 22.9076 28.5047C23.2106 28.2017 23.2106 27.7117 22.9076 27.4087ZM10.1596 20.2067C10.1596 17.7527 12.1566 15.7567 14.6096 15.7567C17.0636 15.7567 19.0596 17.7537 19.0596 20.2067C19.0596 22.6597 17.0636 24.6567 14.6096 24.6567C12.1556 24.6567 10.1596 22.6607 10.1596 20.2067Z" fill="black" fill-opacity="0.8"/>
</g>
<defs>
<clipPath id="clip0_8002_47554">
<rect width="15" height="44" fill="white" transform="translate(8.60938 0.206543)"/>
</clipPath>
</defs>
</svg>
