<svg width="31" height="45" viewBox="0 0 31 45" fill="none" xmlns="http://www.w3.org/2000/svg">
<g clip-path="url(#clip0_8002_47558)">
<path d="M20.1116 16.2348H19.0911C18.9817 15.4238 18.5853 14.6788 17.9739 14.1349C17.3624 13.591 16.5763 13.2842 15.7581 13.27C14.9398 13.2842 14.1538 13.591 13.5423 14.1349C12.9308 14.6788 12.5345 15.4238 12.4251 16.2348H11.4051C10.8439 16.2352 10.3057 16.4582 9.90883 16.855C9.51192 17.2518 9.28867 17.7898 9.28809 18.351V26.0665C9.28859 26.6277 9.51169 27.1657 9.90843 27.5625C10.3052 27.9594 10.8431 28.1826 11.4043 28.1832H20.1113C20.6725 28.1827 21.2107 27.9596 21.6075 27.5627C22.0044 27.1659 22.2276 26.6278 22.2281 26.0665V18.351C22.2275 17.7899 22.0043 17.2519 21.6075 16.8552C21.2107 16.4584 20.6727 16.2353 20.1116 16.2348ZM15.7581 14.3696C16.2855 14.3811 16.7932 14.5722 17.1973 14.9113C17.6013 15.2505 17.8776 15.7174 17.9803 16.2348H13.5359C13.6386 15.7174 13.9148 15.2505 14.3189 14.9113C14.723 14.5722 15.2307 14.3811 15.7581 14.3696ZM21.1281 26.0665C21.1278 26.3361 21.0206 26.5946 20.83 26.7852C20.6395 26.9759 20.3811 27.0832 20.1115 27.0836H11.4046C11.135 27.0832 10.8766 26.9758 10.6861 26.7852C10.4955 26.5945 10.3884 26.3361 10.3881 26.0665V18.351C10.3884 18.0815 10.4956 17.8231 10.6862 17.6325C10.8768 17.4419 11.1352 17.3347 11.4047 17.3344H20.1117C20.3812 17.3348 20.6395 17.442 20.8301 17.6326C21.0206 17.8232 21.1278 18.0815 21.1281 18.351V26.0665Z" fill="black" fill-opacity="0.8"/>
</g>
<defs>
<clipPath id="clip0_8002_47558">
<rect width="14" height="44" fill="white" transform="translate(8.75781 0.206543)"/>
</clipPath>
</defs>
</svg>
