<svg width="32" height="32" viewBox="0 0 32 32" fill="none" xmlns="http://www.w3.org/2000/svg">
<path d="M16.0077 31.812C14.5735 31.812 13.1882 31.6238 11.852 31.2472C10.5158 30.8707 9.25948 30.3343 8.08318 29.638C6.90687 28.9417 5.83891 28.1138 4.8793 27.1545C3.91968 26.1951 3.09163 25.1275 2.39513 23.9515C1.69864 22.7755 1.16208 21.5195 0.785452 20.1837C0.408829 18.8478 0.220517 17.4629 0.220517 16.029C0.220517 14.5848 0.408829 13.1974 0.785452 11.8667C1.16208 10.5359 1.69606 9.28258 2.38739 8.1066C3.07873 6.93061 3.9042 5.86294 4.86382 4.90358C5.82344 3.94422 6.8914 3.11639 8.0677 2.42008C9.244 1.72377 10.5003 1.18736 11.8365 0.810839C13.1728 0.434317 14.558 0.246056 15.9923 0.246056C17.4369 0.246056 18.8273 0.434317 20.1635 0.810839C21.4997 1.18736 22.7534 1.72377 23.9246 2.42008C25.0957 3.11639 26.1637 3.94422 27.1285 4.90358C28.0932 5.86294 28.9239 6.93061 29.6204 8.1066C30.3169 9.28258 30.8534 10.5359 31.23 11.8667C31.6067 13.1974 31.795 14.5848 31.795 16.029C31.795 17.4629 31.6067 18.8478 31.23 20.1837C30.8534 21.5195 30.3169 22.7755 29.6204 23.9515C28.9239 25.1275 28.0958 26.1951 27.1362 27.1545C26.1766 28.1138 25.1086 28.9417 23.9323 29.638C22.756 30.3343 21.5023 30.8707 20.1712 31.2472C18.8402 31.6238 17.4523 31.812 16.0077 31.812ZM16.0077 29.1815C17.473 29.1815 18.8634 28.9623 20.179 28.5239C21.4946 28.0855 22.6993 27.464 23.793 26.6593C24.8868 25.8547 25.8361 24.9057 26.6409 23.8122C27.4458 22.7187 28.0674 21.5144 28.506 20.1991C28.9445 18.8839 29.1638 17.4939 29.1638 16.029C29.1638 14.5642 28.9419 13.1742 28.4982 11.8589C28.0545 10.5437 27.4303 9.33932 26.6254 8.24586C25.8206 7.1524 24.8713 6.20336 23.7775 5.39873C22.6838 4.59411 21.4791 3.97259 20.1635 3.53418C18.8479 3.09576 17.4575 2.87655 15.9923 2.87655C14.5271 2.87655 13.1392 3.09576 11.8288 3.53418C10.5183 3.97259 9.31623 4.59411 8.22248 5.39873C7.12872 6.20336 6.182 7.1524 5.38232 8.24586C4.58264 9.33932 3.96354 10.5437 3.525 11.8589C3.08647 13.1742 2.8672 14.5642 2.8672 16.029C2.8672 17.4939 3.08647 18.8839 3.525 20.1991C3.96354 21.5144 4.58264 22.7187 5.38232 23.8122C6.182 24.9057 7.12872 25.8547 8.22248 26.6593C9.31623 27.464 10.5209 28.0855 11.8365 28.5239C13.1521 28.9623 14.5425 29.1815 16.0077 29.1815ZM15.9768 23.3635C15.5641 23.3635 15.2468 23.2294 15.0249 22.9612C14.8031 22.693 14.6921 22.3371 14.6921 21.8935V17.3288H9.86311C9.42974 17.3288 9.07375 17.2179 8.79515 16.9961C8.51655 16.7743 8.37725 16.4571 8.37725 16.0445C8.37725 15.6216 8.51139 15.2966 8.77967 15.0697C9.04795 14.8427 9.4091 14.7293 9.86311 14.7293H14.6921V9.87058C14.6921 9.427 14.8031 9.07111 15.0249 8.8029C15.2468 8.5347 15.5641 8.40059 15.9768 8.40059C16.3895 8.40059 16.712 8.53212 16.9441 8.79517C17.1763 9.05822 17.2924 9.41669 17.2924 9.87058V14.7293H22.1369C22.5909 14.7293 22.9495 14.8427 23.2126 15.0697C23.4757 15.2966 23.6073 15.6216 23.6073 16.0445C23.6073 16.4571 23.4706 16.7743 23.1971 16.9961C22.9237 17.2179 22.5703 17.3288 22.1369 17.3288H17.2924V21.8935C17.2924 22.3474 17.1763 22.7059 16.9441 22.9689C16.712 23.232 16.3895 23.3635 15.9768 23.3635Z" fill="black"/>
</svg>
