<svg width="99" height="92" viewBox="0 0 99 92" fill="none" xmlns="http://www.w3.org/2000/svg">
<g clip-path="url(#clip0_8002_47389)">
<g clip-path="url(#clip1_8002_47389)">
<path d="M62.2227 22.306H61.2195C61.1952 19.9084 59.7992 17.8445 57.7794 16.8501C56.7842 16.1742 56.1934 15.2308 56.0993 14.2095L55.6622 10.4237C55.526 9.3851 55.3557 9.2318 53.7552 8.8913C53.7552 8.8913 51.3544 8.5791 49.2061 8.5791C47.0578 8.5791 44.657 8.8914 44.657 8.8914C43.0564 9.2319 42.8861 9.3852 42.7499 10.4238L42.3129 14.2096C42.2186 15.2324 41.6501 16.1773 40.6594 16.8533C38.6253 17.8577 37.2227 19.9469 37.2227 22.369V38.2899C37.2227 40.6775 38.585 42.7431 40.5723 43.7636C41.6245 44.4609 42.1873 45.5141 42.2852 46.576L42.7222 50.3618C42.8584 51.4004 43.0287 51.5537 44.6293 51.8943C44.6293 51.8943 47.0301 52.2064 49.1784 52.2064C51.3267 52.2064 53.7275 51.8943 53.7275 51.8943C55.3281 51.5537 55.4983 51.4005 55.6345 50.3618L56.0716 46.576C56.1675 45.5358 56.7761 44.4959 57.8052 43.7963C59.829 42.7882 61.2227 40.7043 61.2227 38.2899V27.536H62.2227V22.306ZM60.2227 38.2899C60.2227 41.1321 57.9104 43.4444 55.0682 43.4444H43.3773C40.535 43.4444 38.2227 41.1321 38.2227 38.2899V22.369C38.2227 19.5267 40.535 17.2144 43.3773 17.2144H55.0682C57.9104 17.2144 60.2227 19.5267 60.2227 22.369V27.536V38.2899Z" fill="#1D1D1F"/>
</g>
</g>
<path d="M14.8695 71.2065L17.9867 62.7515H19.0297L22.1469 71.2065H21.0395L20.1898 68.7866H16.8266L15.977 71.2065H14.8695ZM18.4613 64.1167L17.1371 67.8901H19.8793L18.5551 64.1167H18.4613ZM23.3804 73.3159V64.8901H24.3999V65.8979H24.4937C24.8804 65.1948 25.5835 64.7788 26.4624 64.7788C28.062 64.7788 29.1109 66.0737 29.1109 68.0425V68.0542C29.1109 70.0347 28.0679 71.3179 26.4624 71.3179C25.5952 71.3179 24.8394 70.8843 24.4937 70.2104H24.3999V73.3159H23.3804ZM26.228 70.4155C27.3823 70.4155 28.0679 69.5249 28.0679 68.0542V68.0425C28.0679 66.5718 27.3823 65.6812 26.228 65.6812C25.0796 65.6812 24.3765 66.5835 24.3765 68.0425V68.0542C24.3765 69.5132 25.0796 70.4155 26.228 70.4155ZM30.5846 73.3159V64.8901H31.6041V65.8979H31.6979C32.0846 65.1948 32.7877 64.7788 33.6666 64.7788C35.2662 64.7788 36.3151 66.0737 36.3151 68.0425V68.0542C36.3151 70.0347 35.2721 71.3179 33.6666 71.3179C32.7995 71.3179 32.0436 70.8843 31.6979 70.2104H31.6041V73.3159H30.5846ZM33.4323 70.4155C34.5866 70.4155 35.2721 69.5249 35.2721 68.0542V68.0425C35.2721 66.5718 34.5866 65.6812 33.4323 65.6812C32.2838 65.6812 31.5807 66.5835 31.5807 68.0425V68.0542C31.5807 69.5132 32.2838 70.4155 33.4323 70.4155ZM37.8474 71.2065V62.3823H38.867V71.2065H37.8474ZM43.2821 71.3179C41.4774 71.3179 40.3876 70.0522 40.3876 68.0718V68.0659C40.3876 66.1147 41.5009 64.7788 43.2177 64.7788C44.9345 64.7788 45.9774 66.0562 45.9774 67.9429V68.3413H41.4305C41.4598 69.6479 42.1805 70.4097 43.3055 70.4097C44.161 70.4097 44.6884 70.0054 44.8583 69.6245L44.8817 69.5718H45.9012L45.8895 69.6187C45.6727 70.4741 44.7704 71.3179 43.2821 71.3179ZM43.2118 65.687C42.2743 65.687 41.5595 66.3257 41.4481 67.5269H44.9403C44.8348 66.2788 44.1434 65.687 43.2118 65.687ZM52.5753 71.2065L50.2726 62.7515H51.3741L53.0558 69.6245H53.1261L55.0187 62.7515H56.0851L57.9777 69.6245H58.048L59.7296 62.7515H60.8312L58.5284 71.2065H57.5323L55.587 64.5327H55.5167L53.5714 71.2065H52.5753ZM63.3362 71.3179C62.135 71.3179 61.2268 70.5913 61.2268 69.4429V69.4312C61.2268 68.3062 62.0588 67.6558 63.5295 67.5679L65.3401 67.4565V66.8823C65.3401 66.103 64.8655 65.6812 63.9221 65.6812C63.1662 65.6812 62.6682 65.9624 62.5041 66.4546L62.4983 66.4722H61.4787L61.4846 66.437C61.6487 65.4468 62.6096 64.7788 63.9573 64.7788C65.4983 64.7788 66.3596 65.5698 66.3596 66.8823V71.2065H65.3401V70.2749H65.2463C64.8479 70.9487 64.1858 71.3179 63.3362 71.3179ZM62.2698 69.4194C62.2698 70.0581 62.8147 70.4331 63.5471 70.4331C64.5842 70.4331 65.3401 69.7534 65.3401 68.8511V68.2769L63.6526 68.3823C62.6916 68.4409 62.2698 68.7808 62.2698 69.4077V69.4194ZM70.347 71.2534C69.0462 71.2534 68.5013 70.7729 68.5013 69.5659V65.7339H67.5052V64.8901H68.5013V63.2554H69.556V64.8901H70.9388V65.7339H69.556V69.3081C69.556 70.0522 69.8138 70.3511 70.4701 70.3511C70.6517 70.3511 70.7513 70.3452 70.9388 70.3276V71.1948C70.7396 71.23 70.5462 71.2534 70.347 71.2534ZM74.8325 71.3179C73.063 71.3179 71.9321 70.0347 71.9321 68.0308V68.019C71.9321 66.0562 73.0571 64.7788 74.8266 64.7788C76.3618 64.7788 77.2817 65.6636 77.4692 66.7886L77.4751 66.8237H76.4614L76.4555 66.8062C76.2973 66.1851 75.7348 65.6812 74.8266 65.6812C73.6899 65.6812 72.9751 66.5952 72.9751 68.019V68.0308C72.9751 69.4839 73.7016 70.4155 74.8266 70.4155C75.6762 70.4155 76.2153 70.0405 76.4497 69.3374L76.4614 69.3022L77.4692 69.2964L77.4575 69.3608C77.1997 70.5034 76.3501 71.3179 74.8325 71.3179ZM78.902 71.2065V62.3823H79.9215V65.8394H80.0152C80.3316 65.1714 80.9234 64.7788 81.8551 64.7788C83.273 64.7788 84.0641 65.6167 84.0641 67.1167V71.2065H83.0445V67.3628C83.0445 66.2261 82.5758 65.6812 81.568 65.6812C80.5602 65.6812 79.9215 66.3608 79.9215 67.4683V71.2065H78.902ZM46.2221 87.4058C44.3705 87.4058 43.1752 86.4331 43.0522 85.0562L43.0463 84.9917H44.101L44.1069 85.0562C44.183 85.8999 45.062 86.4331 46.2807 86.4331C47.4291 86.4331 48.267 85.8413 48.267 84.98V84.9741C48.267 84.271 47.7807 83.7905 46.6205 83.5327L45.683 83.3276C43.9897 82.9526 43.2573 82.1733 43.2573 80.9487V80.9429C43.2631 79.5425 44.4877 78.5522 46.2338 78.5522C47.9213 78.5522 49.0991 79.5483 49.187 80.8081L49.1928 80.8901H48.1381L48.1264 80.814C48.0092 80.0698 47.3061 79.519 46.2045 79.5249C45.1498 79.5308 44.3354 80.0288 44.3354 80.9136V80.9194C44.3354 81.5933 44.7983 82.0503 45.9467 82.3022L46.8842 82.5132C48.6479 82.9058 49.3452 83.6147 49.3452 84.8335V84.8394C49.3452 86.4214 48.1088 87.4058 46.2221 87.4058ZM50.983 87.2065V78.7515H56.2212V79.7007H52.0377V82.4136H56.0045V83.3511H52.0377V86.2573H56.2212V87.2065H50.983Z" fill="black" fill-opacity="0.8"/>
<defs>
<clipPath id="clip0_8002_47389">
<rect width="25" height="56" fill="white" transform="translate(37.2227 0.206543)"/>
</clipPath>
<clipPath id="clip1_8002_47389">
<rect width="25" height="54" fill="white" transform="translate(37.2227 2.20654)"/>
</clipPath>
</defs>
</svg>
