<svg width="99" height="92" viewBox="0 0 99 92" fill="none" xmlns="http://www.w3.org/2000/svg">
<g clip-path="url(#clip0_8002_47380)">
<g clip-path="url(#clip1_8002_47380)">
<path d="M43.0329 47.4804H54.0301C53.9901 48.2581 53.9477 49.0191 53.9056 49.7172H43.1571C43.1151 49.0193 43.0729 48.2584 43.0329 47.4804ZM43.2289 50.8413C43.2656 51.3789 43.3012 51.8401 43.3345 52.1921H53.7279C53.7613 51.84 53.797 51.3787 53.8336 50.8413C53.842 50.7185 53.8504 50.5973 53.8588 50.4672H43.2038C43.2122 50.5974 43.2206 50.7185 43.2289 50.8413ZM62.6336 29.3439V30.288C62.8324 30.3512 63.0062 30.4756 63.13 30.6435C63.2538 30.8114 63.3213 31.0142 63.3229 31.2228V35.7295C63.3213 35.9382 63.2538 36.141 63.13 36.3089C63.0062 36.4768 62.8324 36.6012 62.6336 36.6643V37.3818L62.1294 37.4095C62.0092 37.4087 61.891 37.4397 61.7866 37.4992C61.6823 37.5587 61.5955 37.6448 61.5351 37.7486C61.4645 37.8885 61.4022 38.0323 61.3485 38.1794V38.1687C61.0486 39.2713 60.5252 40.3004 59.8108 41.192C59.5201 41.7259 59.154 42.215 58.7236 42.6441C58.5552 42.8223 58.4442 43.047 58.4052 43.2889C58.3864 43.4113 58.3672 43.5489 58.3489 43.6834C58.2999 44.0458 58.2589 44.3921 58.2589 44.3921C58.2512 44.7969 58.0935 45.1845 57.8164 45.4796C57.5392 45.7747 57.1624 45.9564 56.7589 45.9894H56.5519L56.425 50.2081C56.3112 50.4175 56.2791 50.7065 55.5283 50.7065H54.8567C54.9513 49.3993 55.043 47.7165 55.1256 45.9894C55.1364 45.7608 55.1471 45.5319 55.1577 45.3028C55.1739 44.9502 55.1898 44.599 55.2052 44.2492C55.2099 44.1403 55.2152 44.032 55.2195 43.9237C54.8979 43.9951 54.5613 44.0567 54.2054 44.1068C54.2034 44.1539 54.2012 44.2017 54.199 44.2492C54.1946 44.3513 54.1902 44.451 54.1854 44.5551C54.1743 44.7998 54.1628 45.049 54.1509 45.3028C54.1402 45.5293 54.1292 45.7588 54.1179 45.9894C54.1119 46.111 54.1059 46.2327 54.0997 46.3546H42.9568C42.9507 46.2326 42.9447 46.1109 42.9387 45.9894C42.9275 45.7594 42.9165 45.5294 42.9058 45.3028C42.8938 45.0495 42.8823 44.7997 42.8713 44.5551C42.8665 44.4507 42.8622 44.3515 42.8575 44.2492L42.8523 44.1292C42.5014 44.0792 42.1633 44.0162 41.838 43.9402C41.8424 44.0431 41.847 44.1462 41.8516 44.2495C41.8668 44.5989 41.8825 44.9501 41.8989 45.3031C41.9094 45.5325 41.9201 45.7613 41.931 45.9897C42.0133 47.7181 42.1048 49.3997 42.1991 50.7068H41.7391C40.9881 50.7068 40.9561 50.4178 40.8424 50.2084L40.7154 45.9897H40.4541C40.0506 45.9566 39.6739 45.7748 39.3968 45.4797C39.1198 45.1846 38.9622 44.7972 38.9546 44.3924C38.9546 44.3924 38.8064 43.1463 38.738 42.9084C38.4786 42.5373 38.1742 42.1999 37.8318 41.9037C37.6975 41.7754 37.5985 41.6837 37.5985 41.6837L37.6385 41.7029C36.877 40.9177 36.28 39.9883 35.8824 38.9693C35.4847 37.9503 35.2945 36.8622 35.3229 35.7687V21.8421C35.2883 20.6618 35.5079 19.4878 35.9668 18.3997C36.4256 17.3117 37.1129 16.3349 37.9822 15.5356C38.233 15.2888 38.4544 15.0138 38.6422 14.7161C38.7106 14.4782 38.8588 13.2321 38.8588 13.2321C38.869 12.8394 39.0201 12.4635 39.2844 12.1729C39.5488 11.8824 39.9088 11.6965 40.2988 11.6492C40.3144 9.29014 40.3921 6.26514 40.7109 6.20654H56.3193C56.6378 6.26504 56.7015 9.28654 56.7069 11.6453C57.1005 11.6889 57.4649 11.8737 57.7327 12.1655C58.0004 12.4573 58.1533 12.8362 58.1629 13.2321C58.1629 13.2321 58.204 13.5784 58.2529 13.9407C58.2713 14.0757 58.2905 14.2129 58.3092 14.3352C58.3483 14.5773 58.4593 14.8019 58.6277 14.9801C59.0191 15.3755 59.3814 15.7987 59.7117 16.2465L59.6917 16.2343C60.4667 17.1217 61.0334 18.1711 61.3504 19.3058C61.4031 19.4509 61.4646 19.5926 61.5346 19.7302C61.595 19.8341 61.6818 19.9201 61.7861 19.9797C61.8905 20.0392 62.0087 20.0702 62.1289 20.0693L62.6331 20.097V21.7665C62.8319 21.8296 63.0058 21.9539 63.1297 22.1218C63.2536 22.2896 63.3212 22.4924 63.3229 22.701V26.7574C63.3213 26.9661 63.2538 27.1689 63.13 27.3368C63.0062 27.5047 62.8324 27.6291 62.6336 27.6922V29.3439ZM40.6629 44.2365H40.6247C40.5553 44.2365 40.4867 44.2502 40.4226 44.2767C40.3586 44.3033 40.3004 44.3421 40.2514 44.3912C40.2024 44.4402 40.1635 44.4984 40.1369 44.5624C40.1104 44.6265 40.0968 44.6951 40.0968 44.7644C40.0968 44.8338 40.1104 44.9024 40.1369 44.9665C40.1635 45.0305 40.2024 45.0887 40.2514 45.1377C40.3004 45.1867 40.3586 45.2256 40.4226 45.2522C40.4867 45.2787 40.5553 45.2923 40.6247 45.2923H40.6947L40.6629 44.2365ZM60.1859 21.7836C60.1859 17.5019 57.1289 14.7353 52.3978 14.7353H44.6138C39.8119 14.7353 36.8289 17.436 36.8289 21.7836V35.7382C36.8289 40.1354 39.8325 42.7606 44.8636 42.7606C45.0186 42.7606 45.1764 42.7581 45.3358 42.7532L45.3639 42.7523H45.3918L51.0918 42.7864C53.049 42.9252 55.01 42.5738 56.7973 41.7639C57.8384 41.142 58.6989 40.2588 59.2934 39.2018C59.8879 38.1448 60.1958 36.9507 60.1866 35.738L60.1859 21.7836ZM56.7059 12.3501C56.7049 12.7357 56.7028 13.0638 56.7005 13.3186C56.7959 13.279 56.8776 13.2121 56.9352 13.1263C56.9928 13.0404 57.0238 12.9395 57.0244 12.8362C57.025 12.7328 56.9951 12.6316 56.9384 12.5451C56.8818 12.4587 56.8009 12.3909 56.7059 12.3501ZM40.0111 12.8325C40.0122 12.9279 40.0393 13.0212 40.0896 13.1022C40.1398 13.1833 40.2113 13.2491 40.2962 13.2925C40.2951 13.0465 40.2946 12.7361 40.2951 12.3735C40.2107 12.4171 40.1398 12.4828 40.0899 12.5635C40.04 12.6443 40.0123 12.7376 40.0111 12.8325ZM57.1081 44.7639C57.1069 44.6289 57.054 44.4994 56.9602 44.4021C56.8664 44.3049 56.7389 44.2474 56.604 44.2413L56.5725 45.2913H56.5782C56.7182 45.2912 56.8525 45.2356 56.9518 45.1368C57.0511 45.038 57.1072 44.904 57.1081 44.7639Z" fill="#1D1D1F"/>
</g>
</g>
<path d="M14.4799 71.2065L17.5971 62.7515H18.64L21.7572 71.2065H20.6498L19.8002 68.7866H16.4369L15.5873 71.2065H14.4799ZM18.0717 64.1167L16.7475 67.8901H19.4896L18.1654 64.1167H18.0717ZM22.9907 73.3159V64.8901H24.0103V65.8979H24.104C24.4907 65.1948 25.1939 64.7788 26.0728 64.7788C27.6724 64.7788 28.7212 66.0737 28.7212 68.0425V68.0542C28.7212 70.0347 27.6782 71.3179 26.0728 71.3179C25.2056 71.3179 24.4497 70.8843 24.104 70.2104H24.0103V73.3159H22.9907ZM25.8384 70.4155C26.9927 70.4155 27.6782 69.5249 27.6782 68.0542V68.0425C27.6782 66.5718 26.9927 65.6812 25.8384 65.6812C24.69 65.6812 23.9868 66.5835 23.9868 68.0425V68.0542C23.9868 69.5132 24.69 70.4155 25.8384 70.4155ZM30.195 73.3159V64.8901H31.2145V65.8979H31.3082C31.695 65.1948 32.3981 64.7788 33.277 64.7788C34.8766 64.7788 35.9254 66.0737 35.9254 68.0425V68.0542C35.9254 70.0347 34.8825 71.3179 33.277 71.3179C32.4098 71.3179 31.6539 70.8843 31.3082 70.2104H31.2145V73.3159H30.195ZM33.0426 70.4155C34.1969 70.4155 34.8825 69.5249 34.8825 68.0542V68.0425C34.8825 66.5718 34.1969 65.6812 33.0426 65.6812C31.8942 65.6812 31.1911 66.5835 31.1911 68.0425V68.0542C31.1911 69.5132 31.8942 70.4155 33.0426 70.4155ZM37.4578 71.2065V62.3823H38.4773V71.2065H37.4578ZM42.8925 71.3179C41.0878 71.3179 39.9979 70.0522 39.9979 68.0718V68.0659C39.9979 66.1147 41.1112 64.7788 42.828 64.7788C44.5448 64.7788 45.5878 66.0562 45.5878 67.9429V68.3413H41.0409C41.0702 69.6479 41.7909 70.4097 42.9159 70.4097C43.7714 70.4097 44.2987 70.0054 44.4686 69.6245L44.4921 69.5718H45.5116L45.4999 69.6187C45.2831 70.4741 44.3807 71.3179 42.8925 71.3179ZM42.8221 65.687C41.8846 65.687 41.1698 66.3257 41.0585 67.5269H44.5507C44.4452 66.2788 43.7538 65.687 42.8221 65.687ZM52.1857 71.2065L49.8829 62.7515H50.9845L52.6661 69.6245H52.7364L54.629 62.7515H55.6954L57.588 69.6245H57.6583L59.34 62.7515H60.4415L58.1388 71.2065H57.1427L55.1974 64.5327H55.1271L53.1818 71.2065H52.1857ZM62.9465 71.3179C61.7453 71.3179 60.8371 70.5913 60.8371 69.4429V69.4312C60.8371 68.3062 61.6692 67.6558 63.1399 67.5679L64.9504 67.4565V66.8823C64.9504 66.103 64.4758 65.6812 63.5325 65.6812C62.7766 65.6812 62.2786 65.9624 62.1145 66.4546L62.1086 66.4722H61.0891L61.095 66.437C61.259 65.4468 62.22 64.7788 63.5676 64.7788C65.1086 64.7788 65.97 65.5698 65.97 66.8823V71.2065H64.9504V70.2749H64.8567C64.4582 70.9487 63.7961 71.3179 62.9465 71.3179ZM61.8801 69.4194C61.8801 70.0581 62.425 70.4331 63.1575 70.4331C64.1946 70.4331 64.9504 69.7534 64.9504 68.8511V68.2769L63.2629 68.3823C62.302 68.4409 61.8801 68.7808 61.8801 69.4077V69.4194ZM69.9574 71.2534C68.6566 71.2534 68.1117 70.7729 68.1117 69.5659V65.7339H67.1156V64.8901H68.1117V63.2554H69.1664V64.8901H70.5492V65.7339H69.1664V69.3081C69.1664 70.0522 69.4242 70.3511 70.0804 70.3511C70.2621 70.3511 70.3617 70.3452 70.5492 70.3276V71.1948C70.35 71.23 70.1566 71.2534 69.9574 71.2534ZM74.4428 71.3179C72.6733 71.3179 71.5425 70.0347 71.5425 68.0308V68.019C71.5425 66.0562 72.6675 64.7788 74.437 64.7788C75.9721 64.7788 76.8921 65.6636 77.0796 66.7886L77.0854 66.8237H76.0718L76.0659 66.8062C75.9077 66.1851 75.3452 65.6812 74.437 65.6812C73.3003 65.6812 72.5854 66.5952 72.5854 68.019V68.0308C72.5854 69.4839 73.312 70.4155 74.437 70.4155C75.2866 70.4155 75.8257 70.0405 76.06 69.3374L76.0718 69.3022L77.0796 69.2964L77.0678 69.3608C76.81 70.5034 75.9604 71.3179 74.4428 71.3179ZM78.5123 71.2065V62.3823H79.5318V65.8394H79.6256C79.942 65.1714 80.5338 64.7788 81.4654 64.7788C82.8834 64.7788 83.6744 65.6167 83.6744 67.1167V71.2065H82.6549V67.3628C82.6549 66.2261 82.1861 65.6812 81.1783 65.6812C80.1705 65.6812 79.5318 66.3608 79.5318 67.4683V71.2065H78.5123ZM35.0875 87.4058C32.9899 87.4058 31.7243 86.1401 31.7243 84.3003V78.7515H32.7789V84.23C32.7789 85.5308 33.6227 86.4331 35.0875 86.4331C36.5524 86.4331 37.3844 85.5308 37.3844 84.23V78.7515H38.4391V84.3003C38.4391 86.1401 37.1852 87.4058 35.0875 87.4058ZM40.3933 87.2065V78.3823H41.4129V87.2065H40.3933ZM45.494 87.2534C44.1932 87.2534 43.6483 86.7729 43.6483 85.5659V81.7339H42.6522V80.8901H43.6483V79.2554H44.703V80.8901H46.0858V81.7339H44.703V85.3081C44.703 86.0522 44.9608 86.3511 45.6171 86.3511C45.7987 86.3511 45.8983 86.3452 46.0858 86.3276V87.1948C45.8866 87.23 45.6932 87.2534 45.494 87.2534ZM47.4893 87.2065V80.8901H48.5088V81.8276H48.6025C48.8428 81.1655 49.4346 80.7788 50.29 80.7788C50.4834 80.7788 50.7002 80.8022 50.7998 80.8198V81.8101C50.5889 81.7749 50.3955 81.7515 50.1729 81.7515C49.2002 81.7515 48.5088 82.3667 48.5088 83.2925V87.2065H47.4893ZM53.6739 87.3179C52.4728 87.3179 51.5646 86.5913 51.5646 85.4429V85.4312C51.5646 84.3062 52.3966 83.6558 53.8673 83.5679L55.6779 83.4565V82.8823C55.6779 82.103 55.2032 81.6812 54.2599 81.6812C53.504 81.6812 53.006 81.9624 52.8419 82.4546L52.8361 82.4722H51.8165L51.8224 82.437C51.9864 81.4468 52.9474 80.7788 54.295 80.7788C55.8361 80.7788 56.6974 81.5698 56.6974 82.8823V87.2065H55.6779V86.2749H55.5841C55.1857 86.9487 54.5236 87.3179 53.6739 87.3179ZM52.6075 85.4194C52.6075 86.0581 53.1525 86.4331 53.8849 86.4331C54.922 86.4331 55.6779 85.7534 55.6779 84.8511V84.2769L53.9904 84.3823C53.0294 84.4409 52.6075 84.7808 52.6075 85.4077V85.4194ZM61.6898 87.2065V86.48L64.5492 83.3862C65.6273 82.2202 65.9437 81.7808 65.9437 81.0425V81.0308C65.9437 80.1401 65.3402 79.4722 64.3441 79.4722C63.3304 79.4722 62.6566 80.1343 62.6566 81.1304L62.6507 81.1421L61.6429 81.1362L61.6312 81.1304C61.6371 79.6304 62.7972 78.5522 64.4144 78.5522C65.891 78.5522 67.0218 79.5542 67.0218 80.9194V80.9312C67.0218 81.8979 66.6058 82.6011 65.0765 84.1772L63.1546 86.1636V86.2573H67.1625V87.2065H61.6898Z" fill="black" fill-opacity="0.8"/>
<defs>
<clipPath id="clip0_8002_47380">
<rect width="28" height="56" fill="white" transform="translate(35.3232 0.206543)"/>
</clipPath>
<clipPath id="clip1_8002_47380">
<rect width="28" height="54" fill="white" transform="translate(35.3232 2.20654)"/>
</clipPath>
</defs>
</svg>
