<svg width="99" height="92" viewBox="0 0 99 92" fill="none" xmlns="http://www.w3.org/2000/svg">
<g clip-path="url(#clip0_8002_47416)">
<g clip-path="url(#clip1_8002_47416)">
<path d="M65.7136 18.4682C65.7136 18.1921 65.9375 17.9682 66.2136 17.9682H68.2136C68.4897 17.9682 68.7136 18.1921 68.7136 18.4682C68.7136 18.7443 68.4897 18.9682 68.2136 18.9682H66.2136C65.9374 18.9682 65.7136 18.7444 65.7136 18.4682ZM70.2767 18.9682H72.2767C72.5529 18.9682 72.7767 18.7443 72.7767 18.4682C72.7767 18.1921 72.5529 17.9682 72.2767 17.9682H70.2767C70.0006 17.9682 69.7767 18.1921 69.7767 18.4682C69.7767 18.7443 70.0006 18.9682 70.2767 18.9682ZM66.2136 42.8802H68.2136C68.4897 42.8802 68.7136 42.6563 68.7136 42.3802C68.7136 42.1041 68.4897 41.8802 68.2136 41.8802H66.2136C65.9375 41.8802 65.7136 42.1041 65.7136 42.3802C65.7136 42.6563 65.9374 42.8802 66.2136 42.8802ZM70.2767 42.8802H72.2767C72.5529 42.8802 72.7767 42.6563 72.7767 42.3802C72.7767 42.1041 72.5529 41.8802 72.2767 41.8802H70.2767C70.0006 41.8802 69.7767 42.1041 69.7767 42.3802C69.7767 42.6563 70.0006 42.8802 70.2767 42.8802ZM73.923 40.1495L76.6846 40.158C76.6846 42.9285 73.5431 44.2352 73.5431 44.2352C73.4888 45.9135 73.4264 47.1961 73.3803 47.5128C73.2762 48.252 72.8828 48.803 72.3498 49.0427C71.9229 49.235 69.7632 49.3274 67.5288 49.3274C65.0956 49.3274 62.5739 49.2178 62.1088 49.0084C61.576 48.7687 61.1824 48.4104 61.0784 47.6703C61.0322 47.3527 60.9254 44.5962 60.9146 44.2355C60.9146 44.2355 60.5862 44.0988 60.1412 43.8207C60.116 43.8379 60.0936 43.8587 60.0682 43.8756C59.5157 44.2645 59.244 44.6078 59.244 44.6078C59.1794 44.6973 58.7459 45.2705 58.6018 45.7191C58.5677 45.8298 58.3831 46.2587 58.2868 46.8259C58.1626 47.558 58.1081 48.4265 58.1081 48.4265L57.9548 50.4443C57.9548 50.4443 57.9888 51.0487 57.4184 51.3552C56.8479 51.6617 56.3287 51.7468 56.3287 51.7468C56.3287 51.7468 54.376 52.2064 50.9424 52.2064C47.5087 52.2064 45.5564 51.7466 45.5564 51.7466C45.5564 51.7466 45.0371 51.6615 44.4667 51.355C43.8962 51.0485 43.9303 50.4441 43.9303 50.4441L43.777 48.4263C43.777 48.4263 43.7225 47.5578 43.5982 46.8257C43.5019 46.2586 43.3172 45.8296 43.2831 45.7189C43.139 45.2704 42.7055 44.6971 42.6409 44.6076C42.6409 44.6076 42.3686 44.2633 41.8142 43.8736C41.8074 43.8691 41.8016 43.8635 41.7948 43.859C41.0343 45.3072 41.2437 47.4438 41.1351 47.9033C41.0151 48.4317 40.5882 48.7682 39.9771 48.9392C38.9511 49.2251 36.1292 49.3273 34.1292 49.3273C32.1282 49.3273 29.3421 49.2251 28.3161 48.9392C27.7041 48.7682 27.1731 48.466 27.0531 47.9376C26.8211 46.917 26.9521 45.8539 26.7701 44.8044C26.405 42.7089 25.6982 42.0521 24.5142 41.0695C24.1592 40.7746 23.8762 40.4479 23.6622 40.0987H26.923V20.5506L23.6562 20.5551C23.8653 20.1996 24.1313 19.8783 24.4403 19.6033C24.4913 19.5572 24.9013 19.1455 24.9013 19.1455C24.9013 19.1455 26.3892 17.9132 26.7842 15.1265C26.8822 14.4362 26.9683 13.2365 27.0833 12.7506C27.2023 12.2222 27.6283 11.8856 28.2413 11.7147C29.2673 11.4279 32.1292 11.3274 34.1292 11.3274C36.1292 11.3274 38.6473 11.54 39.5793 11.6613C40.4253 11.7708 41.0842 12.1291 41.2622 12.9316C41.4942 13.9766 41.4093 15.0578 41.6833 16.0983C41.7532 16.3647 41.8471 16.6249 41.9504 16.882C42.406 16.5384 42.6411 16.2516 42.6411 16.2516C42.7057 16.1621 43.1392 15.5889 43.2833 15.1403C43.3174 15.0296 43.5019 14.6007 43.5982 14.0335C43.7225 13.3014 43.7771 12.4329 43.7771 12.4329L43.9303 10.4151C43.9303 10.4151 43.8962 9.81073 44.4667 9.50423C45.0371 9.19773 45.5564 9.11263 45.5564 9.11263C45.5564 9.11263 47.509 8.65283 50.9426 8.65283C54.3762 8.65283 56.3288 9.11263 56.3288 9.11263C56.3288 9.11263 56.848 9.19773 57.4184 9.50423C57.9888 9.81073 57.9548 10.4151 57.9548 10.4151L58.1082 12.4329C58.1082 12.4329 58.1625 13.3014 58.2869 14.0335C58.3832 14.6006 58.5679 15.0296 58.602 15.1403C58.7461 15.5888 59.1795 16.1621 59.2441 16.2516C59.2441 16.2516 59.4942 16.5595 59.9852 16.9205C60.4912 16.5872 60.884 16.4197 60.884 16.4197C60.9383 14.7414 61.0007 13.4588 61.0468 13.1421C61.1509 12.4029 61.5444 11.8519 62.0774 11.6122C62.5045 11.4199 64.6641 11.3275 66.8985 11.3275C69.3317 11.3275 71.8533 11.4371 72.3184 11.6465C72.8513 11.8862 73.2449 12.2445 73.3489 12.9846C73.395 13.3022 73.5018 16.0587 73.5126 16.4194C73.5126 16.4194 76.6847 17.7262 76.6847 20.5556L73.923 20.547V40.1495ZM61.791 16.2225H72.6051C72.577 15.4374 72.4916 13.3807 72.4576 13.1103C72.4092 12.7673 72.2951 12.6231 71.9488 12.4673C71.6661 12.3774 69.8372 12.2276 66.8983 12.2276C64.1269 12.2276 62.7383 12.3331 62.4165 12.445C62.0948 12.5569 61.9949 12.8626 61.9379 13.2676C61.906 13.4867 61.8493 14.4853 61.791 16.2225ZM60.7299 17.5173C61.075 17.817 61.3857 18.1522 61.6604 18.5183C61.6586 18.501 61.6502 18.486 61.6502 18.4683C61.6502 18.1922 61.8741 17.9683 62.1502 17.9683H64.1502C64.4263 17.9683 64.6502 18.1922 64.6502 18.4683C64.6502 18.7444 64.4263 18.9683 64.1502 18.9683H62.1502C62.0755 18.9683 62.0061 18.9496 61.9425 18.9201C62.0835 19.1414 62.2094 19.3722 62.3227 19.611L71.9745 19.641H73.7803V19.6466L75.6315 19.6523C75.0753 18.0551 73.192 17.2607 73.1697 17.2515L72.6305 17.0293H61.7617L61.2295 17.2505C61.223 17.2533 61.0182 17.3455 60.7299 17.5173ZM63.9425 22.5774V27.5774H62.9431V38.5362C62.9431 39.0814 62.8727 39.6097 62.7444 40.1148L72.923 40.1464V20.5439L62.6667 20.512C62.84 21.091 62.9431 21.7003 62.9431 22.3362V22.5774H63.9425ZM39.5548 19.6289C39.9368 18.818 40.4825 18.1029 41.1516 17.5209C40.9711 17.1175 40.8168 16.713 40.7103 16.3081C40.5452 15.6829 40.4983 15.0722 40.4513 14.4814C40.4142 13.9992 40.3783 13.5432 40.2822 13.1089C40.2442 12.9388 40.1812 12.6529 39.4373 12.557C38.5653 12.4439 36.1142 12.2322 34.1292 12.2322C31.6092 12.2322 29.2563 12.3778 28.5363 12.5796C28.1153 12.6972 28.0793 12.8565 28.0623 12.9324C28.0023 13.1867 27.9422 13.7539 27.8902 14.2543C27.8522 14.6135 27.8152 14.9673 27.7762 15.2414C27.4182 17.7702 26.2133 19.188 25.7533 19.6476L39.5548 19.6289ZM38.9424 38.5362V22.3362C38.9424 21.7083 39.0431 21.1062 39.2122 20.5335L27.923 20.5492V40.0989H39.1381C39.0122 39.5985 38.9424 39.0758 38.9424 38.5362ZM41.0142 43.2338C40.3424 42.6148 39.8013 41.8587 39.4426 41.0036H25.8822C26.8142 41.8694 27.4292 42.7751 27.7572 44.6633C27.8522 45.2053 27.8702 45.7292 27.8882 46.2358C27.9072 46.7741 27.9253 47.2826 28.0332 47.7549C28.0561 47.8562 28.2882 47.9838 28.6112 48.0752C29.3432 48.2788 31.6123 48.4227 34.1292 48.4227C36.6252 48.4227 38.9603 48.277 39.6812 48.0752C40.1021 47.9576 40.1381 47.7974 40.1551 47.7214C40.1661 47.6544 40.1721 47.4011 40.1761 47.1975C40.1986 46.183 40.2398 44.5029 41.0142 43.2338ZM59.2795 43.1834C59.5477 43.0248 59.8022 42.8461 60.0382 42.6451C60.5708 42.1914 61.0131 41.6367 61.3376 41.0103C61.4859 40.7241 61.6116 40.4247 61.7074 40.1117C61.8599 39.6129 61.9431 39.0843 61.9431 38.5363V27.5774L61.9425 22.5774L61.9431 22.3362C61.9431 21.694 61.8246 21.0805 61.618 20.5087C61.5042 20.1936 61.3629 19.8924 61.195 19.6075C60.8564 19.0325 60.4167 18.5252 59.8971 18.1118C59.6544 17.9187 59.3969 17.7435 59.123 17.5938C58.356 17.1749 57.4769 16.9362 56.5431 16.9362H45.3424C44.2534 16.9362 43.2405 17.2628 42.3914 17.8195C42.1133 18.0018 41.8543 18.2096 41.615 18.4386C41.2498 18.7881 40.9348 19.1881 40.6786 19.6274C40.5119 19.9134 40.3717 20.2158 40.2591 20.5318C40.0577 21.097 39.9424 21.7027 39.9424 22.3362V38.5362C39.9424 39.0797 40.025 39.6038 40.1749 40.0989C40.2705 40.414 40.396 40.7155 40.5448 41.0036C40.8137 41.5244 41.1632 41.9962 41.5795 42.4014C41.8116 42.6273 42.0617 42.8345 42.3311 43.0161C43.192 43.5967 44.2282 43.9361 45.3424 43.9361H56.5431C57.5424 43.9362 58.4759 43.6585 59.2795 43.1834ZM62.4381 41.0138C62.3047 41.3303 62.1424 41.6301 61.9619 41.9182C62.0201 41.8945 62.0835 41.8802 62.1502 41.8802H64.1502C64.4263 41.8802 64.6502 42.1041 64.6502 42.3802C64.6502 42.6563 64.4263 42.8802 64.1502 42.8802H62.1502C61.8741 42.8802 61.6502 42.6563 61.6502 42.3802C61.6502 42.3798 61.6505 42.3795 61.6505 42.3792C61.4226 42.6812 61.1663 42.959 60.8895 43.2161C61.1054 43.3363 61.2514 43.4009 61.2575 43.4034L61.7966 43.6255H72.6613L72.6319 44.5155H61.8248C61.8558 45.3584 61.9366 47.2842 61.9696 47.5448C62.0179 47.8878 62.132 48.032 62.4782 48.1878C62.7609 48.2777 64.59 48.4275 67.5288 48.4275C70.3003 48.4275 71.7486 48.2941 72.0106 48.2101C72.2421 48.1045 72.4322 47.7925 72.4893 47.3875C72.5225 47.1586 72.5828 46.0891 72.6437 44.2063L72.6624 43.627L73.1977 43.4044C73.2174 43.396 75.0653 42.5952 75.6255 41.0549L62.4381 41.0138Z" fill="#1D1D1F"/>
</g>
</g>
<path d="M15.0746 71.2065L18.1918 62.7515H19.2348L22.352 71.2065H21.2445L20.3949 68.7866H17.0316L16.182 71.2065H15.0746ZM18.6664 64.1167L17.3422 67.8901H20.0844L18.7602 64.1167H18.6664ZM23.5855 73.3159V64.8901H24.605V65.8979H24.6987C25.0855 65.1948 25.7886 64.7788 26.6675 64.7788C28.2671 64.7788 29.3159 66.0737 29.3159 68.0425V68.0542C29.3159 70.0347 28.273 71.3179 26.6675 71.3179C25.8003 71.3179 25.0445 70.8843 24.6987 70.2104H24.605V73.3159H23.5855ZM26.4331 70.4155C27.5874 70.4155 28.273 69.5249 28.273 68.0542V68.0425C28.273 66.5718 27.5874 65.6812 26.4331 65.6812C25.2847 65.6812 24.5816 66.5835 24.5816 68.0425V68.0542C24.5816 69.5132 25.2847 70.4155 26.4331 70.4155ZM30.7897 73.3159V64.8901H31.8092V65.8979H31.903C32.2897 65.1948 32.9928 64.7788 33.8717 64.7788C35.4713 64.7788 36.5202 66.0737 36.5202 68.0425V68.0542C36.5202 70.0347 35.4772 71.3179 33.8717 71.3179C33.0045 71.3179 32.2487 70.8843 31.903 70.2104H31.8092V73.3159H30.7897ZM33.6373 70.4155C34.7916 70.4155 35.4772 69.5249 35.4772 68.0542V68.0425C35.4772 66.5718 34.7916 65.6812 33.6373 65.6812C32.4889 65.6812 31.7858 66.5835 31.7858 68.0425V68.0542C31.7858 69.5132 32.4889 70.4155 33.6373 70.4155ZM38.0525 71.2065V62.3823H39.072V71.2065H38.0525ZM43.4872 71.3179C41.6825 71.3179 40.5927 70.0522 40.5927 68.0718V68.0659C40.5927 66.1147 41.7059 64.7788 43.4227 64.7788C45.1395 64.7788 46.1825 66.0562 46.1825 67.9429V68.3413H41.6356C41.6649 69.6479 42.3856 70.4097 43.5106 70.4097C44.3661 70.4097 44.8934 70.0054 45.0634 69.6245L45.0868 69.5718H46.1063L46.0946 69.6187C45.8778 70.4741 44.9755 71.3179 43.4872 71.3179ZM43.4169 65.687C42.4794 65.687 41.7645 66.3257 41.6532 67.5269H45.1454C45.0399 66.2788 44.3485 65.687 43.4169 65.687ZM52.7804 71.2065L50.4777 62.7515H51.5792L53.2609 69.6245H53.3312L55.2237 62.7515H56.2902L58.1827 69.6245H58.253L59.9347 62.7515H61.0362L58.7335 71.2065H57.7374L55.7921 64.5327H55.7218L53.7765 71.2065H52.7804ZM63.5412 71.3179C62.3401 71.3179 61.4319 70.5913 61.4319 69.4429V69.4312C61.4319 68.3062 62.2639 67.6558 63.7346 67.5679L65.5452 67.4565V66.8823C65.5452 66.103 65.0705 65.6812 64.1272 65.6812C63.3713 65.6812 62.8733 65.9624 62.7092 66.4546L62.7034 66.4722H61.6838L61.6897 66.437C61.8537 65.4468 62.8147 64.7788 64.1623 64.7788C65.7034 64.7788 66.5647 65.5698 66.5647 66.8823V71.2065H65.5452V70.2749H65.4514C65.053 70.9487 64.3909 71.3179 63.5412 71.3179ZM62.4748 69.4194C62.4748 70.0581 63.0198 70.4331 63.7522 70.4331C64.7893 70.4331 65.5452 69.7534 65.5452 68.8511V68.2769L63.8577 68.3823C62.8967 68.4409 62.4748 68.7808 62.4748 69.4077V69.4194ZM70.5521 71.2534C69.2513 71.2534 68.7064 70.7729 68.7064 69.5659V65.7339H67.7103V64.8901H68.7064V63.2554H69.7611V64.8901H71.1439V65.7339H69.7611V69.3081C69.7611 70.0522 70.0189 70.3511 70.6752 70.3511C70.8568 70.3511 70.9564 70.3452 71.1439 70.3276V71.1948C70.9447 71.23 70.7513 71.2534 70.5521 71.2534ZM75.0376 71.3179C73.268 71.3179 72.1372 70.0347 72.1372 68.0308V68.019C72.1372 66.0562 73.2622 64.7788 75.0317 64.7788C76.5669 64.7788 77.4868 65.6636 77.6743 66.7886L77.6802 66.8237H76.6665L76.6606 66.8062C76.5024 66.1851 75.9399 65.6812 75.0317 65.6812C73.895 65.6812 73.1802 66.5952 73.1802 68.019V68.0308C73.1802 69.4839 73.9067 70.4155 75.0317 70.4155C75.8813 70.4155 76.4204 70.0405 76.6548 69.3374L76.6665 69.3022L77.6743 69.2964L77.6626 69.3608C77.4048 70.5034 76.5552 71.3179 75.0376 71.3179ZM79.107 71.2065V62.3823H80.1266V65.8394H80.2203C80.5367 65.1714 81.1285 64.7788 82.0602 64.7788C83.4781 64.7788 84.2691 65.6167 84.2691 67.1167V71.2065H83.2496V67.3628C83.2496 66.2261 82.7809 65.6812 81.773 65.6812C80.7652 65.6812 80.1266 66.3608 80.1266 67.4683V71.2065H79.107ZM35.8449 87.4058C33.9934 87.4058 32.798 86.4331 32.675 85.0562L32.6691 84.9917H33.7238L33.7297 85.0562C33.8059 85.8999 34.6848 86.4331 35.9035 86.4331C37.052 86.4331 37.8898 85.8413 37.8898 84.98V84.9741C37.8898 84.271 37.4035 83.7905 36.2434 83.5327L35.3059 83.3276C33.6125 82.9526 32.8801 82.1733 32.8801 80.9487V80.9429C32.8859 79.5425 34.1105 78.5522 35.8566 78.5522C37.5441 78.5522 38.7219 79.5483 38.8098 80.8081L38.8156 80.8901H37.7609L37.7492 80.814C37.632 80.0698 36.9289 79.519 35.8273 79.5249C34.7727 79.5308 33.9582 80.0288 33.9582 80.9136V80.9194C33.9582 81.5933 34.4211 82.0503 35.5695 82.3022L36.507 82.5132C38.2707 82.9058 38.968 83.6147 38.968 84.8335V84.8394C38.968 86.4214 37.7316 87.4058 35.8449 87.4058ZM42.721 87.2534C41.4202 87.2534 40.8753 86.7729 40.8753 85.5659V81.7339H39.8792V80.8901H40.8753V79.2554H41.93V80.8901H43.3128V81.7339H41.93V85.3081C41.93 86.0522 42.1878 86.3511 42.8441 86.3511C43.0257 86.3511 43.1253 86.3452 43.3128 86.3276V87.1948C43.1136 87.23 42.9202 87.2534 42.721 87.2534ZM46.8315 87.3179C45.3959 87.3179 44.6577 86.4741 44.6577 84.98V80.8901H45.6772V84.7339C45.6772 85.8706 46.0873 86.4155 47.0952 86.4155C48.2084 86.4155 48.8002 85.7358 48.8002 84.6284V80.8901H49.8198V87.2065H48.8002V86.2632H48.7065C48.3959 86.937 47.7573 87.3179 46.8315 87.3179ZM53.9361 87.3179C52.3365 87.3179 51.2877 86.0229 51.2877 84.0542V84.0425C51.2877 82.062 52.3306 80.7788 53.9361 80.7788C54.8033 80.7788 55.5591 81.2124 55.9048 81.8862H55.9986V78.3823H57.0181V87.2065H55.9986V86.1987H55.9048C55.5181 86.9019 54.815 87.3179 53.9361 87.3179ZM54.1705 86.4155C55.3189 86.4155 56.022 85.5132 56.022 84.0542V84.0425C56.022 82.5835 55.3189 81.6812 54.1705 81.6812C53.0162 81.6812 52.3306 82.5718 52.3306 84.0425V84.0542C52.3306 85.5249 53.0162 86.4155 54.1705 86.4155ZM59.3942 79.6714C59.0075 79.6714 58.6911 79.355 58.6911 78.9683C58.6911 78.5815 59.0075 78.2651 59.3942 78.2651C59.7809 78.2651 60.0973 78.5815 60.0973 78.9683C60.0973 79.355 59.7809 79.6714 59.3942 79.6714ZM58.8786 87.2065V80.8901H59.8981V87.2065H58.8786ZM64.2957 87.3179C62.4969 87.3179 61.3836 86.0757 61.3836 84.0542V84.0425C61.3836 82.0151 62.4969 80.7788 64.2957 80.7788C66.0945 80.7788 67.2078 82.0151 67.2078 84.0425V84.0542C67.2078 86.0757 66.0945 87.3179 64.2957 87.3179ZM64.2957 86.4155C65.491 86.4155 66.1648 85.5425 66.1648 84.0542V84.0425C66.1648 82.5483 65.491 81.6812 64.2957 81.6812C63.1004 81.6812 62.4266 82.5483 62.4266 84.0425V84.0542C62.4266 85.5425 63.1004 86.4155 64.2957 86.4155Z" fill="black" fill-opacity="0.8"/>
<defs>
<clipPath id="clip0_8002_47416">
<rect width="56" height="56" fill="white" transform="translate(21.9229 0.206543)"/>
</clipPath>
<clipPath id="clip1_8002_47416">
<rect width="56" height="54" fill="white" transform="translate(21.9229 2.20654)"/>
</clipPath>
</defs>
</svg>
