<svg width="81" height="76" viewBox="0 0 81 76" fill="none" xmlns="http://www.w3.org/2000/svg">
<g clip-path="url(#clip0_8002_47425)">
<g clip-path="url(#clip1_8002_47425)">
<path d="M31.8232 15.2065H22.8232C21.3651 15.2083 19.9672 15.7883 18.9361 16.8194C17.905 17.8505 17.325 19.2484 17.3232 20.7065V46.7065C17.3251 48.1647 17.9051 49.5626 18.9362 50.5936C19.9672 51.6247 21.3651 52.2047 22.8232 52.2065H31.8232C33.2814 52.2047 34.6793 51.6247 35.7103 50.5936C36.7414 49.5626 37.3214 48.1647 37.3232 46.7065V20.7065C37.3215 19.2484 36.7415 17.8505 35.7104 16.8194C34.6793 15.7883 33.2814 15.2083 31.8232 15.2065ZM35.3232 46.7065C35.3221 47.6345 34.953 48.5241 34.2969 49.1802C33.6408 49.8363 32.7512 50.2054 31.8232 50.2065H22.8232C21.8953 50.2054 21.0057 49.8363 20.3496 49.1802C19.6935 48.5241 19.3244 47.6345 19.3232 46.7065V20.7065C19.3244 19.7786 19.6935 18.889 20.3496 18.2329C21.0057 17.5768 21.8953 17.2077 22.8232 17.2065H31.8232C32.7512 17.2077 33.6408 17.5768 34.2969 18.2329C34.953 18.889 35.3221 19.7786 35.3232 20.7065V46.7065ZM61.3232 38.7065H62.3232V44.7065H61.3232V38.7065ZM49.3232 15.2065H55.3232V16.2065H49.3232V15.2065ZM61.3232 30.7065H62.3232V36.7065H61.3232V30.7065ZM49.3232 51.2065H55.3232V52.2065H49.3232V51.2065ZM43.3232 36.7065H42.3232V30.7065H43.3232V36.7065ZM43.3232 28.7065H42.3232V22.7065H43.3232V28.7065ZM43.3232 44.7065H42.3232V38.7065H43.3232V44.7065ZM57.3232 16.2565V15.2318C58.6888 15.3578 59.9582 15.9888 60.8829 17.0014C61.8077 18.014 62.3213 19.3352 62.3232 20.7065H61.3232C61.3212 19.6025 60.9119 18.538 60.1739 17.7169C59.4358 16.8959 58.4208 16.3759 57.3232 16.2565ZM61.3232 46.7065H62.3232C62.3213 48.0779 61.8077 49.3991 60.8829 50.4117C59.9582 51.4243 58.6888 52.0553 57.3232 52.1812V51.1565C58.4208 51.0372 59.4358 50.5172 60.1739 49.6961C60.9119 48.8751 61.3212 47.8106 61.3232 46.7065ZM47.3232 15.2318V16.2565C46.2257 16.3759 45.2107 16.8959 44.4726 17.7169C43.7346 18.538 43.3253 19.6025 43.3232 20.7065H42.3232C42.3251 19.3352 42.8388 18.014 43.7635 17.0014C44.6883 15.9888 45.9577 15.3578 47.3232 15.2318ZM47.3232 51.1565V52.1816C45.9576 52.0557 44.6882 51.4246 43.7634 50.412C42.8386 49.3993 42.325 48.0779 42.3232 46.7065H43.3232C43.3253 47.8106 43.7346 48.8751 44.4726 49.6961C45.2107 50.5172 46.2257 51.0372 47.3232 51.1565ZM61.3232 22.7065H62.3232V28.7065H61.3232V22.7065Z" fill="#1D1D1F"/>
</g>
</g>
<path d="M19.0075 71.4058C16.7106 71.4058 15.275 69.7065 15.275 66.9878V66.9761C15.275 64.2515 16.7047 62.5522 19.0016 62.5522C20.7829 62.5522 22.1715 63.6714 22.4235 65.2944L22.4176 65.3062H21.3571L21.3512 65.2944C21.07 64.2104 20.1676 63.5249 19.0016 63.5249C17.3786 63.5249 16.359 64.8608 16.359 66.9761V66.9878C16.359 69.103 17.3786 70.4331 19.0075 70.4331C20.1852 70.4331 21.0817 69.8296 21.3454 68.8569L21.3571 68.8452H22.4235V68.8569C22.1422 70.4038 20.8063 71.4058 19.0075 71.4058ZM26.5398 71.3179C24.741 71.3179 23.6277 70.0757 23.6277 68.0542V68.0425C23.6277 66.0151 24.741 64.7788 26.5398 64.7788C28.3386 64.7788 29.4519 66.0151 29.4519 68.0425V68.0542C29.4519 70.0757 28.3386 71.3179 26.5398 71.3179ZM26.5398 70.4155C27.7351 70.4155 28.4089 69.5425 28.4089 68.0542V68.0425C28.4089 66.5483 27.7351 65.6812 26.5398 65.6812C25.3445 65.6812 24.6707 66.5483 24.6707 68.0425V68.0542C24.6707 69.5425 25.3445 70.4155 26.5398 70.4155ZM30.9139 71.2065V64.8901H31.9335V65.8511H32.0272C32.3085 65.1714 32.9061 64.7788 33.7323 64.7788C34.5878 64.7788 35.1854 65.23 35.4784 65.8862H35.5721C35.912 65.2183 36.6327 64.7788 37.5057 64.7788C38.7948 64.7788 39.5155 65.5171 39.5155 66.8413V71.2065H38.496V67.0757C38.496 66.144 38.0682 65.6812 37.1776 65.6812C36.2987 65.6812 35.7186 66.3433 35.7186 67.146V71.2065H34.6991V66.9175C34.6991 66.1675 34.1835 65.6812 33.3866 65.6812C32.5604 65.6812 31.9335 66.4019 31.9335 67.2925V71.2065H30.9139ZM41.2354 73.3159V64.8901H42.2549V65.8979H42.3486C42.7354 65.1948 43.4385 64.7788 44.3174 64.7788C45.917 64.7788 46.9658 66.0737 46.9658 68.0425V68.0542C46.9658 70.0347 45.9229 71.3179 44.3174 71.3179C43.4502 71.3179 42.6943 70.8843 42.3486 70.2104H42.2549V73.3159H41.2354ZM44.083 70.4155C45.2373 70.4155 45.9229 69.5249 45.9229 68.0542V68.0425C45.9229 66.5718 45.2373 65.6812 44.083 65.6812C42.9346 65.6812 42.2314 66.5835 42.2314 68.0425V68.0542C42.2314 69.5132 42.9346 70.4155 44.083 70.4155ZM50.1739 71.3179C48.9728 71.3179 48.0646 70.5913 48.0646 69.4429V69.4312C48.0646 68.3062 48.8966 67.6558 50.3673 67.5679L52.1779 67.4565V66.8823C52.1779 66.103 51.7032 65.6812 50.7599 65.6812C50.004 65.6812 49.506 65.9624 49.3419 66.4546L49.3361 66.4722H48.3165L48.3224 66.437C48.4864 65.4468 49.4474 64.7788 50.795 64.7788C52.3361 64.7788 53.1974 65.5698 53.1974 66.8823V71.2065H52.1779V70.2749H52.0841C51.6857 70.9487 51.0236 71.3179 50.1739 71.3179ZM49.1075 69.4194C49.1075 70.0581 49.6525 70.4331 50.3849 70.4331C51.422 70.4331 52.1779 69.7534 52.1779 68.8511V68.2769L50.4904 68.3823C49.5294 68.4409 49.1075 68.7808 49.1075 69.4077V69.4194ZM54.9407 71.2065V64.8901H55.9602V65.8276H56.0539C56.2942 65.1655 56.886 64.7788 57.7414 64.7788C57.9348 64.7788 58.1516 64.8022 58.2512 64.8198V65.8101C58.0403 65.7749 57.8469 65.7515 57.6243 65.7515C56.6516 65.7515 55.9602 66.3667 55.9602 67.2925V71.2065H54.9407ZM61.7933 71.3179C59.9886 71.3179 58.8988 70.0522 58.8988 68.0718V68.0659C58.8988 66.1147 60.0121 64.7788 61.7289 64.7788C63.4457 64.7788 64.4886 66.0562 64.4886 67.9429V68.3413H59.9418C59.9711 69.6479 60.6918 70.4097 61.8168 70.4097C62.6722 70.4097 63.1996 70.0054 63.3695 69.6245L63.3929 69.5718H64.4125L64.4007 69.6187C64.1839 70.4741 63.2816 71.3179 61.7933 71.3179ZM61.723 65.687C60.7855 65.687 60.0707 66.3257 59.9593 67.5269H63.4515C63.3461 66.2788 62.6546 65.687 61.723 65.687Z" fill="black" fill-opacity="0.8"/>
<defs>
<clipPath id="clip0_8002_47425">
<rect width="45" height="56" fill="white" transform="translate(17.3232 0.206543)"/>
</clipPath>
<clipPath id="clip1_8002_47425">
<rect width="45" height="54" fill="white" transform="translate(17.3232 2.20654)"/>
</clipPath>
</defs>
</svg>
