<svg width="99" height="92" viewBox="0 0 99 92" fill="none" xmlns="http://www.w3.org/2000/svg">
<g clip-path="url(#clip0_8002_47407)">
<g clip-path="url(#clip1_8002_47407)">
<path d="M46.605 48.3778C46.6342 48.9842 46.6588 49.4213 46.6791 49.7363C43.5572 49.1515 40.1549 48.381 39.9375 48.3374C35.092 47.3674 31.1758 39.9509 31.1758 30.9009C31.1758 22.137 34.8574 14.8346 39.4811 13.503C39.7584 13.4231 43.6709 12.5737 46.6787 12.0012C46.6582 12.3155 46.6338 12.75 46.6048 13.3515C43.0399 16.5335 40.0806 23.1696 40.0806 30.8646C40.0806 38.5599 43.0401 45.1961 46.605 48.3778ZM68.5236 22.8631V27.8231H67.5236V38.7819C67.5236 40.8667 66.5223 42.713 64.9792 43.8815V44.6938C64.9792 45.4785 64.3431 46.1145 63.5585 46.1145H63.4043C63.3908 47.2595 63.3298 48.6603 63.1418 49.7774C62.7558 52.0704 62.6506 52.0023 62.5371 52.0477C62.4236 52.0931 62.1965 52.025 62.1965 52.025C62.1965 52.025 57.0913 52.2066 55.7503 52.2066C54.4093 52.2066 49.3041 52.025 49.3041 52.025C49.3041 52.025 49.077 52.0931 48.9636 52.0477C48.8501 52.0023 48.6684 52.2293 48.2825 49.9363C48.0774 48.7175 48.0301 47.2425 48.054 46.1145H47.8999C47.1153 46.1145 46.4792 45.4785 46.4792 44.6938V44.1702C44.7036 43.0327 43.5236 41.0471 43.5236 38.7819V22.6219C43.5236 20.3567 44.7036 18.371 46.4792 17.2336V16.1485C46.4792 15.0828 47.1153 14.2189 47.8999 14.2189H48.0561C48.0602 13.5467 48.1182 12.6977 48.2825 11.7215C48.6684 9.42847 48.8501 9.65547 48.9636 9.61007C49.0771 9.56467 49.3041 9.63277 49.3041 9.63277C49.3041 9.63277 54.4092 9.45117 55.7503 9.45117C57.0914 9.45117 62.1965 9.63277 62.1965 9.63277C62.1965 9.63277 62.4236 9.56467 62.5371 9.61007C62.6506 9.65547 62.8322 9.42847 63.2182 11.7215C63.3825 12.6976 63.4405 13.5467 63.4446 14.2189H63.5586C64.3432 14.2189 64.9793 15.0828 64.9793 16.1485V17.5223C66.5223 18.6907 67.5236 20.537 67.5236 22.6218V22.863L68.5236 22.8631ZM63.5585 15.2188H63.3999C63.3638 15.5248 63.3135 15.7184 63.2635 15.7399C63.1046 15.808 62.9456 15.6491 62.8094 15.6264C62.6732 15.6037 61.9013 15.581 61.9013 15.581L61.847 16.2651C62.6058 16.3524 63.3238 16.5725 63.9791 16.9002V16.1483C63.9792 15.5385 63.6665 15.2188 63.5585 15.2188ZM47.4792 16.7077C48.1526 16.429 48.8853 16.2681 49.6513 16.2355L49.5994 15.5811C49.5994 15.5811 48.8275 15.6038 48.6913 15.6265C48.5551 15.6492 48.3961 15.8081 48.2373 15.74C48.1873 15.7186 48.137 15.525 48.1009 15.2189H47.9001C47.792 15.2189 47.4794 15.5385 47.4794 16.1485L47.4792 16.7077ZM48.0994 45.1144C48.1049 45.0432 48.1103 44.9735 48.1164 44.9111C47.9001 44.8485 47.6856 44.7813 47.4797 44.6961C47.4812 44.927 47.6688 45.1144 47.8999 45.1144H48.0994ZM63.9792 44.5034C63.794 44.596 63.5949 44.6619 63.4002 44.7364C63.4023 44.8524 63.404 44.9779 63.4054 45.1145H63.5585C63.7905 45.1145 63.9792 44.9258 63.9792 44.6938V44.5034ZM66.5236 22.6218C66.5236 19.6442 64.1012 17.2218 61.1236 17.2218H49.9236C46.946 17.2218 44.5236 19.6442 44.5236 22.6218V38.7818C44.5236 41.7593 46.946 44.1818 49.9236 44.1818H54.4636C57.5258 44.1108 60.8843 44.0399 62.4623 44.007C64.7933 43.4092 66.5236 41.2966 66.5236 38.7819V27.8231V22.8631V22.6218Z" fill="#1D1D1F"/>
</g>
</g>
<path d="M14.6801 71.2065L17.7973 62.7515H18.8402L21.9574 71.2065H20.85L20.0004 68.7866H16.6371L15.7875 71.2065H14.6801ZM18.2719 64.1167L16.9477 67.8901H19.6898L18.3656 64.1167H18.2719ZM23.1909 73.3159V64.8901H24.2105V65.8979H24.3042C24.6909 65.1948 25.3941 64.7788 26.273 64.7788C27.8726 64.7788 28.9214 66.0737 28.9214 68.0425V68.0542C28.9214 70.0347 27.8784 71.3179 26.273 71.3179C25.4058 71.3179 24.6499 70.8843 24.3042 70.2104H24.2105V73.3159H23.1909ZM26.0386 70.4155C27.1929 70.4155 27.8784 69.5249 27.8784 68.0542V68.0425C27.8784 66.5718 27.1929 65.6812 26.0386 65.6812C24.8902 65.6812 24.187 66.5835 24.187 68.0425V68.0542C24.187 69.5132 24.8902 70.4155 26.0386 70.4155ZM30.3952 73.3159V64.8901H31.4147V65.8979H31.5084C31.8952 65.1948 32.5983 64.7788 33.4772 64.7788C35.0768 64.7788 36.1256 66.0737 36.1256 68.0425V68.0542C36.1256 70.0347 35.0827 71.3179 33.4772 71.3179C32.61 71.3179 31.8541 70.8843 31.5084 70.2104H31.4147V73.3159H30.3952ZM33.2428 70.4155C34.3971 70.4155 35.0827 69.5249 35.0827 68.0542V68.0425C35.0827 66.5718 34.3971 65.6812 33.2428 65.6812C32.0944 65.6812 31.3912 66.5835 31.3912 68.0425V68.0542C31.3912 69.5132 32.0944 70.4155 33.2428 70.4155ZM37.658 71.2065V62.3823H38.6775V71.2065H37.658ZM43.0927 71.3179C41.288 71.3179 40.1981 70.0522 40.1981 68.0718V68.0659C40.1981 66.1147 41.3114 64.7788 43.0282 64.7788C44.745 64.7788 45.788 66.0562 45.788 67.9429V68.3413H41.2411C41.2704 69.6479 41.9911 70.4097 43.1161 70.4097C43.9716 70.4097 44.4989 70.0054 44.6688 69.6245L44.6923 69.5718H45.7118L45.7001 69.6187C45.4833 70.4741 44.5809 71.3179 43.0927 71.3179ZM43.0223 65.687C42.0848 65.687 41.37 66.3257 41.2587 67.5269H44.7509C44.6454 66.2788 43.954 65.687 43.0223 65.687ZM52.3859 71.2065L50.0831 62.7515H51.1847L52.8663 69.6245H52.9366L54.8292 62.7515H55.8956L57.7882 69.6245H57.8585L59.5402 62.7515H60.6417L58.339 71.2065H57.3429L55.3976 64.5327H55.3273L53.382 71.2065H52.3859ZM63.1467 71.3179C61.9455 71.3179 61.0373 70.5913 61.0373 69.4429V69.4312C61.0373 68.3062 61.8694 67.6558 63.3401 67.5679L65.1506 67.4565V66.8823C65.1506 66.103 64.676 65.6812 63.7327 65.6812C62.9768 65.6812 62.4787 65.9624 62.3147 66.4546L62.3088 66.4722H61.2893L61.2952 66.437C61.4592 65.4468 62.4202 64.7788 63.7678 64.7788C65.3088 64.7788 66.1702 65.5698 66.1702 66.8823V71.2065H65.1506V70.2749H65.0569C64.6584 70.9487 63.9963 71.3179 63.1467 71.3179ZM62.0803 69.4194C62.0803 70.0581 62.6252 70.4331 63.3577 70.4331C64.3948 70.4331 65.1506 69.7534 65.1506 68.8511V68.2769L63.4631 68.3823C62.5022 68.4409 62.0803 68.7808 62.0803 69.4077V69.4194ZM70.1576 71.2534C68.8568 71.2534 68.3119 70.7729 68.3119 69.5659V65.7339H67.3158V64.8901H68.3119V63.2554H69.3666V64.8901H70.7494V65.7339H69.3666V69.3081C69.3666 70.0522 69.6244 70.3511 70.2806 70.3511C70.4623 70.3511 70.5619 70.3452 70.7494 70.3276V71.1948C70.5502 71.23 70.3568 71.2534 70.1576 71.2534ZM74.643 71.3179C72.8735 71.3179 71.7427 70.0347 71.7427 68.0308V68.019C71.7427 66.0562 72.8677 64.7788 74.6372 64.7788C76.1723 64.7788 77.0923 65.6636 77.2798 66.7886L77.2856 66.8237H76.2719L76.2661 66.8062C76.1079 66.1851 75.5454 65.6812 74.6372 65.6812C73.5005 65.6812 72.7856 66.5952 72.7856 68.019V68.0308C72.7856 69.4839 73.5122 70.4155 74.6372 70.4155C75.4868 70.4155 76.0259 70.0405 76.2602 69.3374L76.2719 69.3022L77.2798 69.2964L77.268 69.3608C77.0102 70.5034 76.1606 71.3179 74.643 71.3179ZM78.7125 71.2065V62.3823H79.732V65.8394H79.8258C80.1422 65.1714 80.734 64.7788 81.6656 64.7788C83.0836 64.7788 83.8746 65.6167 83.8746 67.1167V71.2065H82.8551V67.3628C82.8551 66.2261 82.3863 65.6812 81.3785 65.6812C80.3707 65.6812 79.732 66.3608 79.732 67.4683V71.2065H78.7125ZM28.8879 87.2065V78.7515H29.9426V82.4077H34.5832V78.7515H35.6379V87.2065H34.5832V83.3569H29.9426V87.2065H28.8879ZM40.1234 87.3179C38.3187 87.3179 37.2288 86.0522 37.2288 84.0718V84.0659C37.2288 82.1147 38.3421 80.7788 40.0589 80.7788C41.7757 80.7788 42.8187 82.0562 42.8187 83.9429V84.3413H38.2718C38.3011 85.6479 39.0218 86.4097 40.1468 86.4097C41.0023 86.4097 41.5296 86.0054 41.6995 85.6245L41.723 85.5718H42.7425L42.7308 85.6187C42.514 86.4741 41.6116 87.3179 40.1234 87.3179ZM40.053 81.687C39.1155 81.687 38.4007 82.3257 38.2894 83.5269H41.7816C41.6761 82.2788 40.9847 81.687 40.053 81.687ZM44.2807 87.2065V80.8901H45.3002V81.8276H45.394C45.6342 81.1655 46.226 80.7788 47.0815 80.7788C47.2748 80.7788 47.4916 80.8022 47.5912 80.8198V81.8101C47.3803 81.7749 47.187 81.7515 46.9643 81.7515C45.9916 81.7515 45.3002 82.3667 45.3002 83.2925V87.2065H44.2807ZM48.8482 87.2065V80.8901H49.8677V81.8511H49.9615C50.2427 81.1714 50.8404 80.7788 51.6666 80.7788C52.522 80.7788 53.1197 81.23 53.4127 81.8862H53.5064C53.8462 81.2183 54.567 80.7788 55.44 80.7788C56.7291 80.7788 57.4498 81.5171 57.4498 82.8413V87.2065H56.4302V83.0757C56.4302 82.144 56.0025 81.6812 55.1119 81.6812C54.233 81.6812 53.6529 82.3433 53.6529 83.146V87.2065H52.6334V82.9175C52.6334 82.1675 52.1177 81.6812 51.3209 81.6812C50.4947 81.6812 49.8677 82.4019 49.8677 83.2925V87.2065H48.8482ZM61.3141 80.0112L59.9606 78.019H61.1677L62.2048 80.0112H61.3141ZM61.7477 87.3179C59.943 87.3179 58.8532 86.0522 58.8532 84.0718V84.0659C58.8532 82.1147 59.9665 80.7788 61.6833 80.7788C63.4001 80.7788 64.443 82.0562 64.443 83.9429V84.3413H59.8962C59.9255 85.6479 60.6462 86.4097 61.7712 86.4097C62.6266 86.4097 63.154 86.0054 63.3239 85.6245L63.3473 85.5718H64.3669L64.3552 85.6187C64.1384 86.4741 63.236 87.3179 61.7477 87.3179ZM61.6774 81.687C60.7399 81.687 60.0251 82.3257 59.9137 83.5269H63.4059C63.3005 82.2788 62.6091 81.687 61.6774 81.687ZM68.073 87.3179C66.6668 87.3179 65.7 86.6382 65.5828 85.5952H66.6258C66.7957 86.1226 67.2996 86.4683 68.1082 86.4683C68.9578 86.4683 69.5613 86.064 69.5613 85.4897V85.478C69.5613 85.0503 69.2391 84.7515 68.4598 84.564L67.4813 84.3296C66.2977 84.0483 65.7645 83.5327 65.7645 82.6245V82.6187C65.7645 81.5698 66.7723 80.7788 68.1141 80.7788C69.4383 80.7788 70.3582 81.4409 70.4988 82.4722H69.4969C69.3621 81.9741 68.8699 81.6284 68.1082 81.6284C67.3582 81.6284 66.8074 82.0151 66.8074 82.5718V82.5835C66.8074 83.0112 67.1238 83.2808 67.868 83.4624L68.8406 83.6968C70.0301 83.9839 70.6043 84.4995 70.6043 85.4019V85.4136C70.6043 86.5386 69.5086 87.3179 68.073 87.3179Z" fill="black" fill-opacity="0.8"/>
<defs>
<clipPath id="clip0_8002_47407">
<rect width="38" height="56" fill="white" transform="translate(30.5234 0.206543)"/>
</clipPath>
<clipPath id="clip1_8002_47407">
<rect width="38" height="54" fill="white" transform="translate(30.5234 2.20654)"/>
</clipPath>
</defs>
</svg>
