<svg width="60" height="76" viewBox="0 0 60 76" fill="none" xmlns="http://www.w3.org/2000/svg">
<g clip-path="url(#clip0_8002_47433)">
<g clip-path="url(#clip1_8002_47433)">
<path d="M23.3436 11.4465H23.9736C24.1365 11.4452 24.298 11.476 24.4489 11.5371C24.5999 11.5982 24.7373 11.6884 24.8534 11.8026C24.9695 11.9169 25.0619 12.0528 25.1254 12.2028C25.189 12.3527 25.2223 12.5137 25.2236 12.6765V32.4465C25.2236 33.7726 25.7504 35.0444 26.6881 35.9821C27.6258 36.9198 28.8976 37.4465 30.2236 37.4465C31.5497 37.4465 32.8215 36.9198 33.7592 35.9821C34.6968 35.0444 35.2236 33.7726 35.2236 32.4465V12.6765C35.2236 11.9965 35.2236 11.4465 36.4736 11.4465H37.1036C37.2681 11.4465 37.4258 11.3812 37.542 11.2649C37.6583 11.1487 37.7236 10.991 37.7236 10.8265C37.7236 10.6621 37.6583 10.5044 37.542 10.3881C37.4258 10.2719 37.2681 10.2065 37.1036 10.2065H23.3436C23.1792 10.2065 23.0215 10.2719 22.9052 10.3881C22.789 10.5044 22.7236 10.6621 22.7236 10.8265C22.7236 10.991 22.789 11.1487 22.9052 11.2649C23.0215 11.3812 23.1792 11.4465 23.3436 11.4465ZM30.2236 17.4465C30.4684 17.4485 30.7072 17.5229 30.9098 17.6604C31.1124 17.7978 31.2698 17.9922 31.3621 18.2189C31.4544 18.4457 31.4775 18.6947 31.4286 18.9345C31.3796 19.1744 31.2607 19.3944 31.0869 19.5668C30.9131 19.7392 30.6922 19.8564 30.4519 19.9034C30.2116 19.9504 29.9628 19.9253 29.7368 19.8312C29.5108 19.737 29.3178 19.5781 29.1819 19.3744C29.0461 19.1707 28.9736 18.9314 28.9736 18.6865C28.9749 18.5237 29.0083 18.3627 29.0718 18.2128C29.1354 18.0628 29.2278 17.9269 29.3439 17.8126C29.46 17.6984 29.5974 17.6082 29.7483 17.5471C29.8993 17.486 30.0608 17.4552 30.2236 17.4565V17.4465ZM30.2236 22.5465C30.4684 22.5485 30.7072 22.6229 30.9098 22.7604C31.1124 22.8978 31.2698 23.0922 31.3621 23.3189C31.4544 23.5457 31.4775 23.7947 31.4286 24.0345C31.3796 24.2744 31.2607 24.4944 31.0869 24.6668C30.9131 24.8392 30.6922 24.9564 30.4519 25.0034C30.2116 25.0504 29.9628 25.0253 29.7368 24.9312C29.5108 24.837 29.3178 24.6781 29.1819 24.4744C29.0461 24.2707 28.9736 24.0314 28.9736 23.7865C28.9789 23.4585 29.1129 23.1457 29.3467 22.9156C29.5806 22.6854 29.8955 22.5565 30.2236 22.5565V22.5465ZM30.2236 27.4865C30.4684 27.4885 30.7072 27.5629 30.9098 27.7004C31.1124 27.8378 31.2698 28.0322 31.3621 28.2589C31.4544 28.4857 31.4775 28.7347 31.4286 28.9745C31.3796 29.2144 31.2607 29.4344 31.0869 29.6068C30.9131 29.7792 30.6922 29.8964 30.4519 29.9434C30.2116 29.9904 29.9628 29.9653 29.7368 29.8712C29.5108 29.777 29.3178 29.6181 29.1819 29.4144C29.0461 29.2107 28.9736 28.9714 28.9736 28.7265C28.9789 28.3985 29.1129 28.0857 29.3467 27.8556C29.5806 27.6254 29.8955 27.4965 30.2236 27.4965V27.4865ZM37.1036 50.9565H36.4736C35.2236 50.9565 35.2236 50.4065 35.2236 49.7265V36.1065C34.6427 36.8846 33.8882 37.5163 33.0202 37.9515C32.1522 38.3866 31.1946 38.6132 30.2236 38.6132C29.2526 38.6132 28.2951 38.3866 27.4271 37.9515C26.559 37.5163 25.8046 36.8846 25.2236 36.1065V49.7365C25.2223 49.8994 25.189 50.0604 25.1254 50.2103C25.0619 50.3603 24.9695 50.4962 24.8534 50.6104C24.7373 50.7247 24.5999 50.8149 24.4489 50.876C24.298 50.9371 24.1365 50.9679 23.9736 50.9665H23.3436C23.1792 50.9665 23.0215 51.0319 22.9052 51.1481C22.789 51.2644 22.7236 51.4221 22.7236 51.5865C22.7236 51.751 22.789 51.9087 22.9052 52.0249C23.0215 52.1412 23.1792 52.2065 23.3436 52.2065H37.1036C37.2681 52.2065 37.4258 52.1412 37.542 52.0249C37.6583 51.9087 37.7236 51.751 37.7236 51.5865C37.7236 51.4221 37.6583 51.2644 37.542 51.1481C37.4258 51.0319 37.2681 50.9665 37.1036 50.9665V50.9565Z" fill="#1D1D1F"/>
</g>
</g>
<path d="M13.9578 71.2065V62.7515H17.1921C18.7449 62.7515 19.6941 63.5659 19.6941 64.855V64.8667C19.6941 65.7397 19.0496 66.5366 18.2351 66.6831V66.7769C19.3894 66.9233 20.1218 67.7144 20.1218 68.8276V68.8394C20.1218 70.3218 19.0554 71.2065 17.2566 71.2065H13.9578ZM16.9695 63.6831H15.0125V66.396H16.7C17.9773 66.396 18.6277 65.939 18.6277 65.0483V65.0366C18.6277 64.1812 18.0183 63.6831 16.9695 63.6831ZM16.9988 67.3042H15.0125V70.2749H17.0984C18.3699 70.2749 19.0379 69.7593 19.0379 68.7866V68.7749C19.0379 67.8022 18.3464 67.3042 16.9988 67.3042ZM23.33 71.3179C22.1288 71.3179 21.2206 70.5913 21.2206 69.4429V69.4312C21.2206 68.3062 22.0526 67.6558 23.5233 67.5679L25.3339 67.4565V66.8823C25.3339 66.103 24.8593 65.6812 23.9159 65.6812C23.16 65.6812 22.662 65.9624 22.4979 66.4546L22.4921 66.4722H21.4725L21.4784 66.437C21.6425 65.4468 22.6034 64.7788 23.9511 64.7788C25.4921 64.7788 26.3534 65.5698 26.3534 66.8823V71.2065H25.3339V70.2749H25.2401C24.8417 70.9487 24.1796 71.3179 23.33 71.3179ZM22.2636 69.4194C22.2636 70.0581 22.8085 70.4331 23.5409 70.4331C24.578 70.4331 25.3339 69.7534 25.3339 68.8511V68.2769L23.6464 68.3823C22.6854 68.4409 22.2636 68.7808 22.2636 69.4077V69.4194ZM28.0967 71.2065V64.8901H29.1162V65.8394H29.21C29.5264 65.1714 30.1182 64.7788 31.0498 64.7788C32.4678 64.7788 33.2588 65.6167 33.2588 67.1167V71.2065H32.2393V67.3628C32.2393 66.2261 31.7705 65.6812 30.7627 65.6812C29.7549 65.6812 29.1162 66.3608 29.1162 67.4683V71.2065H28.0967ZM37.3165 71.3179C35.7169 71.3179 34.6681 70.0229 34.6681 68.0542V68.0425C34.6681 66.062 35.7111 64.7788 37.3165 64.7788C38.1837 64.7788 38.9396 65.2124 39.2853 65.8862H39.379V62.3823H40.3986V71.2065H39.379V70.1987H39.2853C38.8986 70.9019 38.1954 71.3179 37.3165 71.3179ZM37.5509 70.4155C38.6993 70.4155 39.4025 69.5132 39.4025 68.0542V68.0425C39.4025 66.5835 38.6993 65.6812 37.5509 65.6812C36.3966 65.6812 35.7111 66.5718 35.7111 68.0425V68.0542C35.7111 69.5249 36.3966 70.4155 37.5509 70.4155ZM44.4036 71.3179C42.9973 71.3179 42.0305 70.6382 41.9133 69.5952H42.9563C43.1262 70.1226 43.6301 70.4683 44.4387 70.4683C45.2883 70.4683 45.8918 70.064 45.8918 69.4897V69.478C45.8918 69.0503 45.5696 68.7515 44.7903 68.564L43.8118 68.3296C42.6282 68.0483 42.095 67.5327 42.095 66.6245V66.6187C42.095 65.5698 43.1028 64.7788 44.4446 64.7788C45.7688 64.7788 46.6887 65.4409 46.8293 66.4722H45.8274C45.6926 65.9741 45.2004 65.6284 44.4387 65.6284C43.6887 65.6284 43.1379 66.0151 43.1379 66.5718V66.5835C43.1379 67.0112 43.4543 67.2808 44.1985 67.4624L45.1711 67.6968C46.3606 67.9839 46.9348 68.4995 46.9348 69.4019V69.4136C46.9348 70.5386 45.8391 71.3179 44.4036 71.3179Z" fill="black" fill-opacity="0.8"/>
<defs>
<clipPath id="clip0_8002_47433">
<rect width="17" height="56" fill="white" transform="translate(21.7236 0.206543)"/>
</clipPath>
<clipPath id="clip1_8002_47433">
<rect width="15" height="54" fill="white" transform="translate(22.7236 2.20654)"/>
</clipPath>
</defs>
</svg>
