<svg width="85" height="76" viewBox="0 0 85 76" fill="none" xmlns="http://www.w3.org/2000/svg">
<g clip-path="url(#clip0_8002_47441)">
<g clip-path="url(#clip1_8002_47441)">
<path d="M49.6559 42.0422C50.5069 42.2681 51.3848 42.3769 52.2652 42.3655V50.7933C52.2384 51.1492 52.0888 51.4847 51.8419 51.7425C51.595 52.0003 51.2662 52.1643 50.9118 52.2064H49.3636C48.9654 52.1629 48.5979 51.9719 48.3335 51.6711C48.069 51.3703 47.9267 50.9814 47.9345 50.5809V41.3909C48.4937 41.6448 49.0687 41.8624 49.6559 42.0422ZM47.9345 40.2951C46.6803 39.6558 45.5571 38.787 44.6231 37.7337C43.6842 36.7107 43.1183 35.4006 43.017 34.0158C42.9746 32.8399 43.2519 31.6746 43.8193 30.6438C44.3036 29.8525 44.9698 29.1882 45.7625 28.706C46.5551 28.2239 47.4514 27.9379 48.3768 27.8717C48.4228 27.8717 48.4691 27.8725 48.5156 27.874C49.9075 27.92 53.2708 28.2328 56.2915 32.233C56.1282 32.2392 55.9653 32.2537 55.8034 32.2765C54.993 32.4128 54.2205 32.7188 53.5366 33.1745C52.8527 33.6301 52.2728 34.2252 51.8349 34.9206C50.9964 36.215 50.566 37.7315 50.5995 39.2734C50.6075 39.5012 50.6362 39.7279 50.6854 39.9505C50.7978 40.441 51.0011 40.9061 51.2847 41.3218C50.8321 41.2884 50.384 41.2093 49.9473 41.0856C49.2556 40.8782 48.5824 40.6138 47.9345 40.2951ZM49.0001 33.9621C49.1932 34.0947 49.4261 34.1567 49.6595 34.1376C49.893 34.1185 50.1127 34.0194 50.2816 33.8572L50.3396 33.7848C50.4458 33.6718 50.5238 33.5353 50.5673 33.3865C50.6107 33.2376 50.6183 33.0806 50.5895 32.9282C50.5607 32.7759 50.4963 32.6324 50.4015 32.5097C50.3068 32.387 50.1843 32.2884 50.0442 32.222L48.5342 31.2502C48.3238 31.1034 48.0701 31.0317 47.814 31.0465C47.5578 31.0613 47.3141 31.1618 47.122 31.3319L47.0371 31.4143C46.9491 31.5219 46.8853 31.6472 46.8499 31.7817C46.8146 31.9162 46.8086 32.0567 46.8323 32.1937C46.856 32.3307 46.9089 32.461 46.9873 32.5757C47.0658 32.6905 47.168 32.7871 47.2871 32.8589L49.0001 33.9621ZM60.7346 38.1576C60.6958 38.3595 60.6433 38.5585 60.5775 38.7533C60.4168 39.2154 60.2032 39.6575 59.9411 40.0707C59.6265 40.6259 59.2255 41.1274 58.7531 41.5564C58.3643 41.943 57.9007 42.2462 57.3907 42.4477C56.8807 42.6491 56.3351 42.7444 55.787 42.7279C55.1577 42.7293 54.5327 42.6227 53.9394 42.413C53.8652 42.3783 53.8071 42.344 53.7373 42.3094C53.4555 42.172 53.1825 42.0173 52.9198 41.8462C52.7015 41.704 52.4961 41.543 52.306 41.365C52.2916 41.3513 52.2792 41.3375 52.2653 41.3237C51.8343 40.9015 51.538 40.3611 51.4139 39.7707C51.3833 39.6354 51.363 39.4979 51.3531 39.3596C51.1965 37.5375 52.2908 33.6362 55.9297 33.0155C56.158 32.9753 56.3892 32.9546 56.621 32.9534C56.6884 32.9534 56.76 32.9645 56.8292 32.9687C57.0944 32.9807 57.3568 33.0286 57.6092 33.1111C57.6566 33.1276 57.6981 33.1545 57.7446 33.1723C57.9923 33.2647 58.232 33.377 58.4616 33.5081C59.201 33.9343 59.8117 34.5521 60.2294 35.2964C60.4937 35.785 60.6736 36.3147 60.7617 36.8632C60.8217 37.2933 60.8125 37.7303 60.7346 38.1576ZM59.4309 37.3776C59.2822 36.8889 58.7191 36.8996 58.3685 37.3776L56.6261 39.779C56.3594 40.2783 56.5612 40.884 57.0287 40.8414H57.0298C57.7638 40.6225 58.4015 40.1603 58.8379 39.5308C59.2743 38.9013 59.4835 38.1418 59.4309 37.3776ZM31.9809 42.3653V50.7931C32.0076 51.1491 32.1573 51.4847 32.4042 51.7425C32.6511 52.0003 32.9799 52.1643 33.3344 52.2064H34.8825C35.2807 52.1629 35.6482 51.9719 35.9127 51.6711C36.1771 51.3703 36.3195 50.9814 36.3116 50.5809V41.3909C35.7524 41.6446 35.1775 41.8621 34.5903 42.0418C33.7393 42.2678 32.8613 42.3765 31.9809 42.3653ZM40.4266 30.6436C40.994 31.6744 41.2713 32.8397 41.2289 34.0156C41.1278 35.4005 40.5619 36.7106 39.6231 37.7337C38.6892 38.787 37.566 39.6559 36.3118 40.2951C35.6639 40.6137 34.9906 40.878 34.2989 41.0851C33.8614 41.209 33.4124 41.2881 32.9589 41.3214C33.2441 40.9063 33.4483 40.441 33.5606 39.95C33.6098 39.7274 33.6385 39.5007 33.6465 39.2729C33.6799 37.7311 33.2495 36.2149 32.4111 34.9206C31.9733 34.2252 31.3934 33.6302 30.7096 33.1745C30.0258 32.7188 29.2534 32.4128 28.4431 32.2764C28.2812 32.2536 28.1183 32.2391 27.955 32.2329C30.9757 28.2329 34.339 27.9199 35.7309 27.8739C35.7776 27.8724 35.8235 27.8716 35.8697 27.8716C36.795 27.9379 37.6912 28.224 38.4837 28.7061C39.2763 29.1883 39.9423 29.8523 40.4266 30.6436ZM37.2093 31.4136L37.1244 31.3312C36.9323 31.1611 36.6886 31.0606 36.4324 31.0458C36.1763 31.031 35.9226 31.1027 35.7122 31.2495L34.2022 32.2213C34.0621 32.2877 33.9396 32.3863 33.8449 32.509C33.7501 32.6317 33.6857 32.7751 33.6569 32.9275C33.6281 33.0799 33.6357 33.2369 33.6791 33.3857C33.7225 33.5346 33.8005 33.6711 33.9067 33.7841L33.9648 33.8565C34.1337 34.0187 34.3534 34.1178 34.5869 34.1369C34.8203 34.156 35.0532 34.094 35.2463 33.9614L36.9601 32.8582C37.079 32.7863 37.1811 32.6897 37.2594 32.575C37.3377 32.4602 37.3905 32.33 37.4141 32.1931C37.4378 32.0562 37.4317 31.9158 37.3964 31.7814C37.3611 31.6471 37.2972 31.5212 37.2093 31.4136ZM31.9809 41.3236C31.967 41.3374 31.9546 41.3511 31.9402 41.3648C31.7501 41.5428 31.5447 41.7039 31.3264 41.846C31.0637 42.0172 30.7907 42.1719 30.5088 42.3092C30.4388 42.3438 30.381 42.3781 30.3068 42.4128C29.7134 42.6226 29.0885 42.7291 28.4592 42.7277C27.9112 42.7442 27.3655 42.6489 26.8555 42.4475C26.3456 42.2461 25.882 41.9429 25.4931 41.5564C25.0207 41.1273 24.6196 40.6257 24.305 40.0704C24.0429 39.6572 23.8293 39.2151 23.6686 38.753C23.6028 38.5582 23.5503 38.3592 23.5115 38.1573C23.4335 37.73 23.4244 37.293 23.4844 36.8628C23.5725 36.3144 23.7525 35.7849 24.0168 35.2964C24.4346 34.5522 25.0455 33.9345 25.785 33.5084C26.0144 33.3774 26.2539 33.2652 26.5014 33.1729C26.5482 33.155 26.5899 33.128 26.6374 33.1114C26.8898 33.0289 27.1522 32.981 27.4174 32.969C27.4866 32.9648 27.5582 32.9537 27.6256 32.9537C27.8574 32.9549 28.0886 32.9757 28.3169 33.0158C31.9558 33.6365 33.0501 37.5378 32.8935 39.3599C32.8836 39.4982 32.8633 39.6357 32.8327 39.771C32.7085 40.3615 32.412 40.9014 31.9809 41.3236ZM27.6201 39.779L25.8777 37.3778C25.5271 36.8998 24.964 36.8891 24.8153 37.3778C24.7649 37.7523 24.7897 38.1332 24.8882 38.498C24.9867 38.8629 25.1569 39.2044 25.389 39.5027C25.5857 39.8391 25.8494 40.1315 26.1637 40.3618C26.478 40.592 26.8364 40.7553 27.2164 40.8414C27.684 40.884 27.8868 40.2783 27.6201 39.779Z" fill="#1D1D1F"/>
</g>
</g>
<path d="M20.9791 71.2065L24.0963 62.7515H25.1393L28.2565 71.2065H27.1491L26.2995 68.7866H22.9362L22.0866 71.2065H20.9791ZM24.5709 64.1167L23.2467 67.8901H25.9889L24.6647 64.1167H24.5709ZM30.0291 63.6714C29.6423 63.6714 29.3259 63.355 29.3259 62.9683C29.3259 62.5815 29.6423 62.2651 30.0291 62.2651C30.4158 62.2651 30.7322 62.5815 30.7322 62.9683C30.7322 63.355 30.4158 63.6714 30.0291 63.6714ZM29.5134 71.2065V64.8901H30.533V71.2065H29.5134ZM32.3348 71.2065V64.8901H33.3544V65.8276H33.4481C33.6884 65.1655 34.2802 64.7788 35.1356 64.7788C35.329 64.7788 35.5458 64.8022 35.6454 64.8198V65.8101C35.4345 65.7749 35.2411 65.7515 35.0184 65.7515C34.0458 65.7515 33.3544 66.3667 33.3544 67.2925V71.2065H32.3348ZM36.9141 71.2065V62.7515H40.1016C41.6895 62.7515 42.8145 63.8472 42.8145 65.4526V65.4644C42.8145 67.0698 41.6895 68.189 40.1016 68.189H37.9688V71.2065H36.9141ZM39.832 63.689H37.9688V67.2515H39.832C41.0391 67.2515 41.7363 66.5894 41.7363 65.4761V65.4644C41.7363 64.3511 41.0391 63.689 39.832 63.689ZM46.714 71.3179C44.9152 71.3179 43.8019 70.0757 43.8019 68.0542V68.0425C43.8019 66.0151 44.9152 64.7788 46.714 64.7788C48.5128 64.7788 49.6261 66.0151 49.6261 68.0425V68.0542C49.6261 70.0757 48.5128 71.3179 46.714 71.3179ZM46.714 70.4155C47.9093 70.4155 48.5831 69.5425 48.5831 68.0542V68.0425C48.5831 66.5483 47.9093 65.6812 46.714 65.6812C45.5187 65.6812 44.8448 66.5483 44.8448 68.0425V68.0542C44.8448 69.5425 45.5187 70.4155 46.714 70.4155ZM53.4202 71.3179C51.8205 71.3179 50.7717 70.0229 50.7717 68.0542V68.0425C50.7717 66.062 51.8147 64.7788 53.4202 64.7788C54.2873 64.7788 55.0432 65.2124 55.3889 65.8862H55.4827V62.3823H56.5022V71.2065H55.4827V70.1987H55.3889C55.0022 70.9019 54.2991 71.3179 53.4202 71.3179ZM53.6545 70.4155C54.803 70.4155 55.5061 69.5132 55.5061 68.0542V68.0425C55.5061 66.5835 54.803 65.6812 53.6545 65.6812C52.5002 65.6812 51.8147 66.5718 51.8147 68.0425V68.0542C51.8147 69.5249 52.5002 70.4155 53.6545 70.4155ZM60.5072 71.3179C59.1009 71.3179 58.1341 70.6382 58.017 69.5952H59.0599C59.2298 70.1226 59.7337 70.4683 60.5423 70.4683C61.392 70.4683 61.9955 70.064 61.9955 69.4897V69.478C61.9955 69.0503 61.6732 68.7515 60.8939 68.564L59.9154 68.3296C58.7318 68.0483 58.1986 67.5327 58.1986 66.6245V66.6187C58.1986 65.5698 59.2064 64.7788 60.5482 64.7788C61.8724 64.7788 62.7923 65.4409 62.933 66.4722H61.931C61.7962 65.9741 61.3041 65.6284 60.5423 65.6284C59.7923 65.6284 59.2416 66.0151 59.2416 66.5718V66.5835C59.2416 67.0112 59.558 67.2808 60.3021 67.4624L61.2748 67.6968C62.4642 67.9839 63.0384 68.4995 63.0384 69.4019V69.4136C63.0384 70.5386 61.9427 71.3179 60.5072 71.3179Z" fill="black" fill-opacity="0.8"/>
<defs>
<clipPath id="clip0_8002_47441">
<rect width="39" height="56" fill="white" transform="translate(22.623 0.206543)"/>
</clipPath>
<clipPath id="clip1_8002_47441">
<rect width="39" height="54" fill="white" transform="translate(22.623 2.20654)"/>
</clipPath>
</defs>
</svg>
