<svg width="77" height="76" viewBox="0 0 77 76" fill="none" xmlns="http://www.w3.org/2000/svg">
<g clip-path="url(#clip0_8002_47449)">
<g clip-path="url(#clip1_8002_47449)">
<path d="M48.5234 25.2066C48.5232 23.3584 48.0107 21.5465 47.043 19.9719C46.0753 18.3973 44.6901 17.1217 43.0413 16.2867C41.3925 15.4518 39.5445 15.0901 37.7026 15.2418C35.8606 15.3935 34.0968 16.0527 32.6068 17.1462C31.1168 18.2397 29.959 19.7247 29.262 21.4364C28.5649 23.1481 28.3558 25.0195 28.658 26.8428C28.9601 28.6661 29.7616 30.37 30.9736 31.7654C32.1855 33.1607 33.7604 34.1929 35.5234 34.7474V43.2066H36.5234V52.2066H40.5234V43.2066H41.5234V34.7474C43.5533 34.1085 45.3266 32.8388 46.5854 31.123C47.8443 29.4072 48.5232 27.3347 48.5234 25.2066ZM39.5234 51.2066H37.5234V43.2066H39.5234V51.2066ZM40.5234 42.2066H36.5234V35.0057C37.8433 35.2736 39.2036 35.2736 40.5234 35.0057V42.2066ZM38.5234 34.2066C36.7434 34.2066 35.0034 33.6788 33.5233 32.6898C32.0433 31.7009 30.8897 30.2953 30.2085 28.6508C29.5273 27.0062 29.3491 25.1966 29.6964 23.4508C30.0436 21.705 30.9008 20.1013 32.1595 18.8426C33.4182 17.584 35.0218 16.7268 36.7676 16.3795C38.5135 16.0323 40.3231 16.2105 41.9676 16.8917C43.6121 17.5729 45.0177 18.7264 46.0067 20.2065C46.9956 21.6865 47.5234 23.4266 47.5234 25.2066C47.5208 27.5927 46.5717 29.8804 44.8845 31.5676C43.1972 33.2549 40.9096 34.204 38.5234 34.2066ZM38.5234 17.7066C37.0401 17.7066 35.59 18.1465 34.3567 18.9706C33.1233 19.7947 32.162 20.966 31.5943 22.3365C31.0267 23.7069 30.8782 25.2149 31.1676 26.6698C31.4569 28.1246 32.1712 29.461 33.2201 30.5099C34.269 31.5588 35.6054 32.2731 37.0603 32.5625C38.5151 32.8519 40.0231 32.7034 41.3936 32.1357C42.764 31.568 43.9354 30.6067 44.7595 29.3734C45.5836 28.14 46.0234 26.69 46.0234 25.2066C46.0234 24.2217 45.8294 23.2464 45.4525 22.3365C45.0756 21.4265 44.5232 20.5997 43.8267 19.9033C43.1303 19.2069 42.3035 18.6544 41.3936 18.2775C40.4836 17.9006 39.5084 17.7066 38.5234 17.7066ZM38.5234 32.4566C37.0895 32.4566 35.6878 32.0314 34.4956 31.2348C33.3033 30.4381 32.374 29.3058 31.8253 27.9811C31.2766 26.6563 31.133 25.1986 31.4127 23.7922C31.6925 22.3858 32.383 21.094 33.3969 20.0801C34.4108 19.0661 35.7027 18.3757 37.109 18.0959C38.5154 17.8162 39.9731 17.9597 41.2979 18.5085C42.6227 19.0572 43.755 19.9865 44.5516 21.1787C45.3482 22.371 45.7734 23.7727 45.7734 25.2066C45.7713 27.1288 45.0067 28.9716 43.6476 30.3307C42.2884 31.6899 40.4456 32.4544 38.5234 32.4566Z" fill="#1D1D1F"/>
</g>
</g>
<path d="M5.41445 71.2065L8.53164 62.7515H9.57461L12.6918 71.2065H11.5844L10.7348 68.7866H7.37148L6.52187 71.2065H5.41445ZM9.00625 64.1167L7.68203 67.8901H10.4242L9.1 64.1167H9.00625ZM16.1577 71.3179C14.3882 71.3179 13.2573 70.0347 13.2573 68.0308V68.019C13.2573 66.0562 14.3823 64.7788 16.1519 64.7788C17.687 64.7788 18.607 65.6636 18.7945 66.7886L18.8003 66.8237H17.7866L17.7808 66.8062C17.6226 66.1851 17.0601 65.6812 16.1519 65.6812C15.0152 65.6812 14.3003 66.5952 14.3003 68.019V68.0308C14.3003 69.4839 15.0269 70.4155 16.1519 70.4155C17.0015 70.4155 17.5405 70.0405 17.7749 69.3374L17.7866 69.3022L18.7945 69.2964L18.7827 69.3608C18.5249 70.5034 17.6753 71.3179 16.1577 71.3179ZM22.7526 71.3179C20.983 71.3179 19.8522 70.0347 19.8522 68.0308V68.019C19.8522 66.0562 20.9772 64.7788 22.7467 64.7788C24.2819 64.7788 25.2018 65.6636 25.3893 66.7886L25.3952 66.8237H24.3815L24.3756 66.8062C24.2174 66.1851 23.6549 65.6812 22.7467 65.6812C21.61 65.6812 20.8952 66.5952 20.8952 68.019V68.0308C20.8952 69.4839 21.6217 70.4155 22.7467 70.4155C23.5963 70.4155 24.1354 70.0405 24.3698 69.3374L24.3815 69.3022L25.3893 69.2964L25.3776 69.3608C25.1198 70.5034 24.2702 71.3179 22.7526 71.3179ZM29.3416 71.3179C27.5369 71.3179 26.447 70.0522 26.447 68.0718V68.0659C26.447 66.1147 27.5603 64.7788 29.2771 64.7788C30.9939 64.7788 32.0369 66.0562 32.0369 67.9429V68.3413H27.49C27.5193 69.6479 28.24 70.4097 29.365 70.4097C30.2205 70.4097 30.7478 70.0054 30.9177 69.6245L30.9412 69.5718H31.9607L31.949 69.6187C31.7322 70.4741 30.8298 71.3179 29.3416 71.3179ZM29.2712 65.687C28.3337 65.687 27.6189 66.3257 27.5076 67.5269H30.9998C30.8943 66.2788 30.2029 65.687 29.2712 65.687ZM35.6669 71.3179C34.2606 71.3179 33.2938 70.6382 33.1766 69.5952H34.2196C34.3895 70.1226 34.8934 70.4683 35.702 70.4683C36.5516 70.4683 37.1552 70.064 37.1552 69.4897V69.478C37.1552 69.0503 36.8329 68.7515 36.0536 68.564L35.0751 68.3296C33.8915 68.0483 33.3583 67.5327 33.3583 66.6245V66.6187C33.3583 65.5698 34.3661 64.7788 35.7079 64.7788C37.0321 64.7788 37.952 65.4409 38.0927 66.4722H37.0907C36.9559 65.9741 36.4637 65.6284 35.702 65.6284C34.952 65.6284 34.4012 66.0151 34.4012 66.5718V66.5835C34.4012 67.0112 34.7177 67.2808 35.4618 67.4624L36.4345 67.6968C37.6239 67.9839 38.1981 68.4995 38.1981 69.4019V69.4136C38.1981 70.5386 37.1024 71.3179 35.6669 71.3179ZM41.7109 71.3179C40.3047 71.3179 39.3379 70.6382 39.2207 69.5952H40.2637C40.4336 70.1226 40.9375 70.4683 41.7461 70.4683C42.5957 70.4683 43.1992 70.064 43.1992 69.4897V69.478C43.1992 69.0503 42.877 68.7515 42.0977 68.564L41.1191 68.3296C39.9355 68.0483 39.4023 67.5327 39.4023 66.6245V66.6187C39.4023 65.5698 40.4102 64.7788 41.752 64.7788C43.0762 64.7788 43.9961 65.4409 44.1367 66.4722H43.1348C43 65.9741 42.5078 65.6284 41.7461 65.6284C40.9961 65.6284 40.4453 66.0151 40.4453 66.5718V66.5835C40.4453 67.0112 40.7617 67.2808 41.5059 67.4624L42.4785 67.6968C43.668 67.9839 44.2422 68.4995 44.2422 69.4019V69.4136C44.2422 70.5386 43.1465 71.3179 41.7109 71.3179ZM48.2999 71.3179C46.5011 71.3179 45.3878 70.0757 45.3878 68.0542V68.0425C45.3878 66.0151 46.5011 64.7788 48.2999 64.7788C50.0987 64.7788 51.212 66.0151 51.212 68.0425V68.0542C51.212 70.0757 50.0987 71.3179 48.2999 71.3179ZM48.2999 70.4155C49.4952 70.4155 50.1691 69.5425 50.1691 68.0542V68.0425C50.1691 66.5483 49.4952 65.6812 48.2999 65.6812C47.1046 65.6812 46.4308 66.5483 46.4308 68.0425V68.0542C46.4308 69.5425 47.1046 70.4155 48.2999 70.4155ZM52.6741 71.2065V64.8901H53.6936V65.8276H53.7873C54.0276 65.1655 54.6194 64.7788 55.4748 64.7788C55.6682 64.7788 55.885 64.8022 55.9846 64.8198V65.8101C55.7737 65.7749 55.5803 65.7515 55.3577 65.7515C54.385 65.7515 53.6936 66.3667 53.6936 67.2925V71.2065H52.6741ZM57.6634 63.6714C57.2767 63.6714 56.9603 63.355 56.9603 62.9683C56.9603 62.5815 57.2767 62.2651 57.6634 62.2651C58.0502 62.2651 58.3666 62.5815 58.3666 62.9683C58.3666 63.355 58.0502 63.6714 57.6634 63.6714ZM57.1478 71.2065V64.8901H58.1673V71.2065H57.1478ZM62.5473 71.3179C60.7427 71.3179 59.6528 70.0522 59.6528 68.0718V68.0659C59.6528 66.1147 60.7661 64.7788 62.4829 64.7788C64.1997 64.7788 65.2427 66.0562 65.2427 67.9429V68.3413H60.6958C60.7251 69.6479 61.4458 70.4097 62.5708 70.4097C63.4262 70.4097 63.9536 70.0054 64.1235 69.6245L64.1469 69.5718H65.1665L65.1548 69.6187C64.938 70.4741 64.0356 71.3179 62.5473 71.3179ZM62.477 65.687C61.5395 65.687 60.8247 66.3257 60.7134 67.5269H64.2055C64.1001 66.2788 63.4087 65.687 62.477 65.687ZM68.8727 71.3179C67.4664 71.3179 66.4996 70.6382 66.3824 69.5952H67.4254C67.5953 70.1226 68.0992 70.4683 68.9078 70.4683C69.7574 70.4683 70.3609 70.064 70.3609 69.4897V69.478C70.3609 69.0503 70.0387 68.7515 69.2594 68.564L68.2809 68.3296C67.0973 68.0483 66.5641 67.5327 66.5641 66.6245V66.6187C66.5641 65.5698 67.5719 64.7788 68.9137 64.7788C70.2379 64.7788 71.1578 65.4409 71.2984 66.4722H70.2965C70.1617 65.9741 69.6695 65.6284 68.9078 65.6284C68.1578 65.6284 67.607 66.0151 67.607 66.5718V66.5835C67.607 67.0112 67.9234 67.2808 68.6676 67.4624L69.6402 67.6968C70.8297 67.9839 71.4039 68.4995 71.4039 69.4019V69.4136C71.4039 70.5386 70.3082 71.3179 68.8727 71.3179Z" fill="black" fill-opacity="0.8"/>
<defs>
<clipPath id="clip0_8002_47449">
<rect width="22" height="56" fill="white" transform="translate(27.5234 0.206543)"/>
</clipPath>
<clipPath id="clip1_8002_47449">
<rect width="22" height="54" fill="white" transform="translate(27.5234 2.20654)"/>
</clipPath>
</defs>
</svg>
