<svg width="124" height="76" viewBox="0 0 124 76" fill="none" xmlns="http://www.w3.org/2000/svg">
<g clip-path="url(#clip0_8002_47457)">
<g clip-path="url(#clip1_8002_47457)">
<path d="M79.4238 35.7065C79.4238 39.0688 78.4268 42.3556 76.5588 45.1512C74.6908 47.9469 72.0358 50.1258 68.9295 51.4125C65.8231 52.6992 62.405 53.0358 59.1073 52.3799C55.8096 51.7239 52.7805 50.1049 50.403 47.7274C48.0255 45.3499 46.4064 42.3208 45.7505 39.0231C45.0945 35.7254 45.4312 32.3073 46.7179 29.2009C48.0046 26.0946 50.1835 23.4395 52.9791 21.5716C55.7748 19.7036 59.0616 18.7065 62.4238 18.7065C62.4767 18.7065 62.5276 18.7139 62.5803 18.7144C63.0893 18.7542 63.563 18.9897 63.902 19.3714C64.241 19.7531 64.4188 20.2514 64.3981 20.7615C64.3774 21.2716 64.1597 21.7538 63.7909 22.1068C63.4221 22.4598 62.9308 22.6561 62.4203 22.6544V22.6565C59.0349 22.6366 55.7725 23.925 53.3143 26.2528C50.856 28.5806 49.3917 31.7679 49.2272 35.1494C49.0626 38.5309 50.2104 41.8453 52.4311 44.4008C54.6517 46.9563 57.7735 48.5554 61.1449 48.8643C64.5163 49.1732 67.8767 48.1681 70.5248 46.0587C73.1728 43.9493 74.9039 40.8987 75.3565 37.5435C75.8092 34.1884 74.9486 30.7881 72.9543 28.0523C70.9599 25.3166 67.986 23.4568 64.6533 22.8611C65.1593 22.3475 65.4714 21.6743 65.5365 20.9562C65.6016 20.2382 65.4157 19.5198 65.0104 18.9235C69.0213 19.5387 72.6796 21.5691 75.3233 24.6474C77.967 27.7258 79.4216 31.6488 79.4238 35.7065ZM70.4758 35.7065C70.4758 37.2991 70.0036 38.8558 69.1188 40.18C68.2341 41.5041 66.9765 42.5362 65.5052 43.1456C64.0339 43.7551 62.4149 43.9145 60.853 43.6038C59.291 43.2931 57.8563 42.5263 56.7302 41.4002C55.6041 40.2741 54.8372 38.8393 54.5266 37.2774C54.2159 35.7155 54.3753 34.0965 54.9848 32.6252C55.5942 31.1539 56.6262 29.8963 57.9504 29.0115C59.2745 28.1268 60.8313 27.6545 62.4238 27.6545L62.4511 27.6559C62.9585 27.647 63.4417 27.438 63.7956 27.0743C64.1494 26.7107 64.3452 26.222 64.3403 25.7146C64.3354 25.2072 64.1302 24.7223 63.7694 24.3656C63.4086 24.0089 62.9214 23.8092 62.414 23.81V23.807C59.3644 23.8031 56.4291 24.9677 54.2117 27.0614C51.9942 29.155 50.6632 32.0187 50.4922 35.0636C50.3212 38.1084 51.3232 41.1031 53.2923 43.4319C55.2613 45.7607 58.0478 47.2466 61.0787 47.5842C64.1096 47.9217 67.1547 47.0852 69.5879 45.2467C72.021 43.4082 73.6574 40.7073 74.1605 37.6995C74.6635 34.6916 73.9951 31.6052 72.2927 29.075C70.5902 26.5448 67.983 24.7629 65.0072 24.0958C65.3902 24.6915 65.5532 25.4021 65.4683 26.1051C65.3834 26.8081 65.0557 27.4594 64.5419 27.9466C66.2441 28.4121 67.7465 29.4234 68.8184 30.8252C69.8904 32.227 70.4726 33.9419 70.4758 35.7065ZM62.4101 32.8059V32.8046C62.9357 32.8043 63.44 32.597 63.8139 32.2276C64.1878 31.8583 64.4012 31.3565 64.408 30.831C64.4148 30.3055 64.2143 29.7984 63.8501 29.4195C63.4858 29.0407 62.987 28.8204 62.4616 28.8065C62.4489 28.8065 62.4366 28.8046 62.4238 28.8046C60.718 28.8023 59.0716 29.4309 57.8014 30.5695C56.5311 31.7081 55.7268 33.2762 55.5432 34.9721C55.3596 36.668 55.8096 38.3719 56.8067 39.756C57.8038 41.14 59.2776 42.1064 60.9444 42.4693C62.6111 42.8321 64.3532 42.5657 65.8354 41.7214C67.3176 40.8771 68.4352 39.5144 68.9732 37.8956C69.5111 36.2768 69.4314 34.5163 68.7494 32.9528C68.0674 31.3892 66.8313 30.1331 65.2788 29.4261L65.2172 29.3984C65.441 29.833 65.5593 30.3141 65.5625 30.8028C65.5623 31.3175 65.436 31.8243 65.1947 32.2789C64.9533 32.7335 64.6043 33.1221 64.1781 33.4106C64.7188 33.8294 65.0934 34.4264 65.2352 35.0954C65.377 35.7644 65.2768 36.462 64.9524 37.0641C64.628 37.6661 64.1005 38.1335 63.4638 38.3831C62.8271 38.6326 62.1225 38.6482 61.4754 38.4269C60.8283 38.2056 60.2807 37.7619 59.9301 37.1747C59.5796 36.5875 59.4487 35.895 59.5609 35.2203C59.6731 34.5457 60.021 33.9328 60.5428 33.4907C61.0645 33.0486 61.7263 32.8059 62.4101 32.8059Z" fill="#1D1D1F"/>
</g>
</g>
<path d="M21.5788 71.2065L24.696 62.7515H25.739L28.8562 71.2065H27.7487L26.8991 68.7866H23.5359L22.6862 71.2065H21.5788ZM25.1706 64.1167L23.8464 67.8901H26.5886L25.2644 64.1167H25.1706ZM30.0897 73.3159V64.8901H31.1092V65.8979H31.203C31.5897 65.1948 32.2928 64.7788 33.1717 64.7788C34.7713 64.7788 35.8202 66.0737 35.8202 68.0425V68.0542C35.8202 70.0347 34.7772 71.3179 33.1717 71.3179C32.3045 71.3179 31.5487 70.8843 31.203 70.2104H31.1092V73.3159H30.0897ZM32.9373 70.4155C34.0916 70.4155 34.7772 69.5249 34.7772 68.0542V68.0425C34.7772 66.5718 34.0916 65.6812 32.9373 65.6812C31.7889 65.6812 31.0858 66.5835 31.0858 68.0425V68.0542C31.0858 69.5132 31.7889 70.4155 32.9373 70.4155ZM37.2939 73.3159V64.8901H38.3134V65.8979H38.4072C38.7939 65.1948 39.497 64.7788 40.3759 64.7788C41.9755 64.7788 43.0244 66.0737 43.0244 68.0425V68.0542C43.0244 70.0347 41.9814 71.3179 40.3759 71.3179C39.5087 71.3179 38.7529 70.8843 38.4072 70.2104H38.3134V73.3159H37.2939ZM40.1416 70.4155C41.2959 70.4155 41.9814 69.5249 41.9814 68.0542V68.0425C41.9814 66.5718 41.2959 65.6812 40.1416 65.6812C38.9931 65.6812 38.29 66.5835 38.29 68.0425V68.0542C38.29 69.5132 38.9931 70.4155 40.1416 70.4155ZM44.5567 71.2065V62.3823H45.5762V71.2065H44.5567ZM49.9914 71.3179C48.1867 71.3179 47.0969 70.0522 47.0969 68.0718V68.0659C47.0969 66.1147 48.2102 64.7788 49.927 64.7788C51.6437 64.7788 52.6867 66.0562 52.6867 67.9429V68.3413H48.1398C48.1691 69.6479 48.8898 70.4097 50.0148 70.4097C50.8703 70.4097 51.3977 70.0054 51.5676 69.6245L51.591 69.5718H52.6105L52.5988 69.6187C52.382 70.4741 51.4797 71.3179 49.9914 71.3179ZM49.9211 65.687C48.9836 65.687 48.2687 66.3257 48.1574 67.5269H51.6496C51.5441 66.2788 50.8527 65.687 49.9211 65.687ZM57.5327 71.2065V62.7515H62.6655V63.7007H58.5873V66.6069H62.3315V67.5444H58.5873V71.2065H57.5327ZM64.69 63.6714C64.3033 63.6714 63.9869 63.355 63.9869 62.9683C63.9869 62.5815 64.3033 62.2651 64.69 62.2651C65.0767 62.2651 65.3931 62.5815 65.3931 62.9683C65.3931 63.355 65.0767 63.6714 64.69 63.6714ZM64.1744 71.2065V64.8901H65.1939V71.2065H64.1744ZM69.2399 71.2534C67.9391 71.2534 67.3942 70.7729 67.3942 69.5659V65.7339H66.3981V64.8901H67.3942V63.2554H68.4489V64.8901H69.8317V65.7339H68.4489V69.3081C68.4489 70.0522 68.7067 70.3511 69.363 70.3511C69.5446 70.3511 69.6442 70.3452 69.8317 70.3276V71.1948C69.6325 71.23 69.4391 71.2534 69.2399 71.2534ZM71.2352 71.2065V64.8901H72.2547V65.8394H72.3484C72.6648 65.1714 73.2566 64.7788 74.1883 64.7788C75.6062 64.7788 76.3973 65.6167 76.3973 67.1167V71.2065H75.3777V67.3628C75.3777 66.2261 74.909 65.6812 73.9012 65.6812C72.8934 65.6812 72.2547 66.3608 72.2547 67.4683V71.2065H71.2352ZM80.7011 71.3179C78.8964 71.3179 77.8066 70.0522 77.8066 68.0718V68.0659C77.8066 66.1147 78.9198 64.7788 80.6366 64.7788C82.3534 64.7788 83.3964 66.0562 83.3964 67.9429V68.3413H78.8495C78.8788 69.6479 79.5995 70.4097 80.7245 70.4097C81.58 70.4097 82.1073 70.0054 82.2773 69.6245L82.3007 69.5718H83.3202L83.3085 69.6187C83.0917 70.4741 82.1894 71.3179 80.7011 71.3179ZM80.6308 65.687C79.6933 65.687 78.9784 66.3257 78.8671 67.5269H82.3593C82.2538 66.2788 81.5624 65.687 80.6308 65.687ZM87.0264 71.3179C85.6202 71.3179 84.6534 70.6382 84.5362 69.5952H85.5791C85.7491 70.1226 86.253 70.4683 87.0616 70.4683C87.9112 70.4683 88.5147 70.064 88.5147 69.4897V69.478C88.5147 69.0503 88.1924 68.7515 87.4131 68.564L86.4346 68.3296C85.251 68.0483 84.7178 67.5327 84.7178 66.6245V66.6187C84.7178 65.5698 85.7256 64.7788 87.0674 64.7788C88.3916 64.7788 89.3116 65.4409 89.4522 66.4722H88.4502C88.3155 65.9741 87.8233 65.6284 87.0616 65.6284C86.3116 65.6284 85.7608 66.0151 85.7608 66.5718V66.5835C85.7608 67.0112 86.0772 67.2808 86.8213 67.4624L87.794 67.6968C88.9834 67.9839 89.5577 68.4995 89.5577 69.4019V69.4136C89.5577 70.5386 88.462 71.3179 87.0264 71.3179ZM93.0705 71.3179C91.6642 71.3179 90.6974 70.6382 90.5802 69.5952H91.6232C91.7931 70.1226 92.297 70.4683 93.1056 70.4683C93.9552 70.4683 94.5587 70.064 94.5587 69.4897V69.478C94.5587 69.0503 94.2365 68.7515 93.4572 68.564L92.4787 68.3296C91.2951 68.0483 90.7619 67.5327 90.7619 66.6245V66.6187C90.7619 65.5698 91.7697 64.7788 93.1115 64.7788C94.4357 64.7788 95.3556 65.4409 95.4962 66.4722H94.4943C94.3595 65.9741 93.8673 65.6284 93.1056 65.6284C92.3556 65.6284 91.8048 66.0151 91.8048 66.5718V66.5835C91.8048 67.0112 92.1212 67.2808 92.8654 67.4624L93.838 67.6968C95.0275 67.9839 95.6017 68.4995 95.6017 69.4019V69.4136C95.6017 70.5386 94.506 71.3179 93.0705 71.3179ZM96.7942 68.2769V67.3276H99.4192V64.644H100.368V67.3276H102.993V68.2769H100.368V70.9604H99.4192V68.2769H96.7942Z" fill="black" fill-opacity="0.8"/>
<defs>
<clipPath id="clip0_8002_47457">
<rect width="35" height="56" fill="white" transform="translate(44.9238 0.206543)"/>
</clipPath>
<clipPath id="clip1_8002_47457">
<rect width="35" height="54" fill="white" transform="translate(44.9238 2.20654)"/>
</clipPath>
</defs>
</svg>
