<svg width="82" height="76" viewBox="0 0 82 76" fill="none" xmlns="http://www.w3.org/2000/svg">
<g clip-path="url(#clip0_8002_47477)">
<g clip-path="url(#clip1_8002_47477)">
<path d="M37.3482 11.4419H37.9732C38.1364 11.4409 38.2982 11.4721 38.4493 11.5337C38.6005 11.5952 38.738 11.6859 38.8541 11.8006C38.9701 11.9153 39.0625 12.0518 39.1258 12.2022C39.1892 12.3526 39.2223 12.514 39.2232 12.6772V32.4419C39.2232 33.768 39.75 35.0397 40.6877 35.9774C41.6254 36.9151 42.8971 37.4419 44.2232 37.4419C45.5493 37.4419 46.8211 36.9151 47.7587 35.9774C48.6964 35.0397 49.2232 33.768 49.2232 32.4419V12.6772C49.2232 11.9949 49.2232 11.4419 50.4732 11.4419H51.0982C51.18 11.4429 51.2612 11.4277 51.337 11.3972C51.4128 11.3666 51.4819 11.3212 51.5401 11.2638C51.5983 11.2063 51.6445 11.1379 51.676 11.0624C51.7075 10.987 51.7238 10.906 51.7238 10.8242C51.7238 10.7425 51.7075 10.6615 51.676 10.586C51.6445 10.5106 51.5983 10.4422 51.5401 10.3847C51.4819 10.3272 51.4128 10.2819 51.337 10.2513C51.2612 10.2208 51.18 10.2056 51.0982 10.2066H37.3482C37.2664 10.2056 37.1853 10.2208 37.1094 10.2513C37.0336 10.2819 36.9646 10.3272 36.9064 10.3847C36.8482 10.4422 36.802 10.5106 36.7704 10.586C36.7389 10.6615 36.7227 10.7425 36.7227 10.8242C36.7227 10.906 36.7389 10.987 36.7704 11.0624C36.802 11.1379 36.8482 11.2063 36.9064 11.2638C36.9646 11.3212 37.0336 11.3666 37.1094 11.3972C37.1853 11.4277 37.2664 11.4429 37.3482 11.4419ZM44.2232 17.6184C44.4669 17.6213 44.7043 17.6962 44.9056 17.8337C45.1068 17.9712 45.2629 18.1651 45.3541 18.3911C45.4454 18.6171 45.4678 18.865 45.4185 19.1037C45.3692 19.3423 45.2503 19.5611 45.077 19.7324C44.9036 19.9037 44.6835 20.0199 44.4443 20.0664C44.205 20.1129 43.9574 20.0876 43.7325 19.9937C43.5076 19.8997 43.3155 19.7414 43.1804 19.5385C43.0453 19.3357 42.9732 19.0974 42.9732 18.8537C42.9742 18.6905 43.0073 18.5291 43.0706 18.3787C43.1339 18.2283 43.2263 18.0918 43.3424 17.9771C43.4584 17.8624 43.596 17.7717 43.7471 17.7102C43.8982 17.6486 44.06 17.6174 44.2232 17.6184ZM44.2232 22.5595C44.4669 22.5624 44.7043 22.6373 44.9056 22.7748C45.1068 22.9123 45.2629 23.1062 45.3541 23.3322C45.4454 23.5582 45.4678 23.8061 45.4185 24.0448C45.3692 24.2834 45.2503 24.5022 45.077 24.6735C44.9036 24.8448 44.6835 24.961 44.4443 25.0075C44.205 25.054 43.9574 25.0287 43.7325 24.9348C43.5076 24.8408 43.3155 24.6825 43.1804 24.4796C43.0453 24.2768 42.9732 24.0385 42.9732 23.7948C42.9752 23.4652 43.108 23.1499 43.3424 22.9183C43.5768 22.6866 43.8936 22.5576 44.2232 22.5595ZM44.2232 27.5007C44.4669 27.5036 44.7043 27.5785 44.9056 27.716C45.1068 27.8535 45.2629 28.0474 45.3541 28.2734C45.4454 28.4994 45.4678 28.7473 45.4185 28.986C45.3692 29.2246 45.2503 29.4434 45.077 29.6147C44.9036 29.786 44.6835 29.9022 44.4443 29.9487C44.205 29.9952 43.9574 29.9699 43.7325 29.876C43.5076 29.782 43.3155 29.6237 43.1804 29.4208C43.0453 29.218 42.9732 28.9797 42.9732 28.736C42.9752 28.4064 43.108 28.0911 43.3424 27.8595C43.5768 27.6278 43.8936 27.4988 44.2232 27.5007ZM51.0982 50.9713H50.4732C49.2232 50.9713 49.2232 50.4183 49.2232 49.736V36.1096C48.6427 36.8882 47.8883 37.5204 47.0203 37.956C46.1522 38.3916 45.1944 38.6184 44.2232 38.6184C43.252 38.6184 42.2942 38.3916 41.4262 37.956C40.5581 37.5204 39.8038 36.8882 39.2232 36.1096V49.736C39.2223 49.8992 39.1892 50.0606 39.1258 50.211C39.0625 50.3614 38.9701 50.4978 38.8541 50.6125C38.738 50.7273 38.6005 50.818 38.4493 50.8795C38.2982 50.9411 38.1364 50.9723 37.9732 50.9713H37.3482C37.2664 50.9703 37.1853 50.9855 37.1094 51.016C37.0336 51.0466 36.9646 51.0919 36.9064 51.1494C36.8482 51.2068 36.802 51.2753 36.7704 51.3507C36.7389 51.4262 36.7227 51.5072 36.7227 51.5889C36.7227 51.6707 36.7389 51.7517 36.7704 51.8271C36.802 51.9026 36.8482 51.971 36.9064 52.0285C36.9646 52.0859 37.0336 52.1313 37.1094 52.1619C37.1853 52.1924 37.2664 52.2076 37.3482 52.2066H51.0982C51.18 52.2076 51.2612 52.1924 51.337 52.1619C51.4128 52.1313 51.4819 52.0859 51.5401 52.0285C51.5983 51.971 51.6445 51.9026 51.676 51.8271C51.7075 51.7517 51.7238 51.6707 51.7238 51.5889C51.7238 51.5072 51.7075 51.4262 51.676 51.3507C51.6445 51.2753 51.5983 51.2068 51.5401 51.1494C51.4819 51.0919 51.4128 51.0466 51.337 51.016C51.2612 50.9855 51.18 50.9703 51.0982 50.9713Z" fill="#1D1D1F"/>
<path d="M74.2236 25.1757V22.932C74.2225 22.2635 74.0487 21.6067 73.7191 21.0252C73.3896 20.4437 72.9155 19.9571 72.3426 19.6126L72.3467 19.5971C71.7478 19.3358 71.2264 18.9245 70.8328 18.4028C70.4393 17.8812 70.187 17.2668 70.1003 16.6192L69.6636 12.8334C69.5273 11.7948 69.357 11.6415 67.7564 11.3009C66.247 11.1132 64.7283 11.009 63.2073 10.9888C61.6864 11.009 60.1677 11.1132 58.6582 11.3009C57.0576 11.6415 56.8873 11.7948 56.7511 12.8334L56.3141 16.6192C56.2346 17.2647 55.9889 17.8785 55.6009 18.4005C55.213 18.9225 54.6961 19.3348 54.1009 19.5971L54.1043 19.613C53.5316 19.9575 53.0576 20.444 52.7281 21.0255C52.3986 21.6069 52.2248 22.2636 52.2236 22.932V40.1398C52.2252 40.8184 52.4046 41.4847 52.7441 42.0723C53.0836 42.6598 53.5713 43.1481 54.1584 43.4883L54.1559 43.5036C54.7496 43.7868 55.26 44.2185 55.638 44.7568C56.016 45.2951 56.2487 45.9218 56.3136 46.5764L56.7506 50.3621C56.8868 51.4008 57.0571 51.5541 58.6577 51.8946C60.1673 52.0822 61.686 52.1863 63.207 52.2064C64.728 52.1862 66.2467 52.0819 67.7561 51.8942C69.3567 51.5537 69.527 51.4004 69.6633 50.3617L70.1003 46.576C70.184 45.9141 70.4338 45.2842 70.8266 44.7449C71.2194 44.2057 71.7424 43.7747 72.3467 43.4922L72.3374 43.4622C72.9117 43.1181 73.3872 42.6313 73.7177 42.0491C74.0482 41.467 74.2225 40.8092 74.2236 40.1398V29.1757H75.2236V25.1757H74.2236ZM73.2236 29.1757V40.1398C73.2236 40.9079 72.9185 41.6445 72.3754 42.1877C71.8323 42.7309 71.0957 43.0362 70.3276 43.0364H56.1197C55.3516 43.0362 54.615 42.731 54.0719 42.1878C53.5288 41.6446 53.2237 40.9079 53.2236 40.1398V22.932C53.2342 22.1672 53.5427 21.4367 54.0836 20.896C54.6245 20.3552 55.355 20.0468 56.1197 20.0364H70.3276C71.0924 20.0468 71.8229 20.3552 72.3637 20.896C72.9046 21.4368 73.2131 22.1672 73.2236 22.932V29.1757ZM68.6 50.6305C68.2716 50.7515 67.9333 50.8442 67.589 50.9074C66.1349 51.0865 64.672 51.1863 63.207 51.2064C61.7421 51.1864 60.2793 51.0865 58.8251 50.9074C58.4808 50.8442 58.1425 50.7515 57.814 50.6305C57.7809 50.5046 57.7575 50.3764 57.744 50.247L57.3094 46.4842C57.2222 45.591 56.8811 44.7414 56.3264 44.0359H70.1341C69.5617 44.7264 69.2046 45.5697 69.1069 46.4613L68.6717 50.2313C68.6579 50.366 68.6339 50.4994 68.6 50.6305ZM57.8141 12.5647C58.1426 12.4436 58.4809 12.3509 58.8252 12.2878C60.2793 12.1084 61.7421 12.0086 63.207 11.9888C64.672 12.0088 66.1349 12.1086 67.589 12.2878C67.9333 12.351 68.2716 12.4436 68.6 12.5647C68.6332 12.6905 68.6566 12.8187 68.67 12.9481L69.1047 16.711C69.1915 17.5655 69.5308 18.3749 70.0793 19.0359H56.3529C56.8898 18.3787 57.2217 17.5782 57.3072 16.7339L57.7423 12.9639C57.7561 12.8292 57.7801 12.6957 57.8141 12.5647Z" fill="#1D1D1F"/>
<path d="M23.9942 50.3074L23.9948 50.7347C23.9702 51.185 23.7733 51.6085 23.4448 51.9176L23.1048 52.2025C22.4897 52.1988 22.0105 52.1898 21.5996 52.1762C21.6564 51.7855 21.8426 51.4252 22.1283 51.1529L23.4418 50.0503C23.7451 49.7957 23.9936 49.9114 23.9942 50.3074ZM22.1781 50.4518L23.4523 49.3291C23.7731 49.0126 23.9587 48.584 23.9699 48.1335L23.9564 47.7066C23.9439 47.3108 23.6906 47.2011 23.3935 47.4629L22.1194 48.5851C21.7986 48.9015 21.613 49.3302 21.6018 49.7807L21.6153 50.2081C21.6277 50.6039 21.881 50.7136 22.1781 50.4518ZM23.9842 45.0954H23.2019L22.1283 45.9966C21.7999 46.3056 21.6029 46.7292 21.5783 47.1795V47.6068C21.5789 48.0028 21.8275 48.1185 22.1308 47.8639L23.4443 46.7613C23.7728 46.4522 23.9697 46.0287 23.9943 45.5784L23.9937 45.1511C23.9915 45.1324 23.9883 45.1138 23.9842 45.0954ZM22.1781 45.2954L22.4052 45.0954H21.6245C21.6568 45.4486 21.8944 45.5454 22.1781 45.2954ZM21.1569 45.0954H20.4211L20.6211 45.263C20.8961 45.4941 21.1165 45.4073 21.1569 45.0954ZM19.2982 46.7282L20.5724 47.8508C20.8696 48.1126 21.1224 48.0029 21.1353 47.6071L21.1488 47.1798C21.1377 46.7292 20.9521 46.3006 20.6313 45.9841L19.6225 45.0954H18.7962L18.7942 45.1054L18.7807 45.5328C18.792 45.9832 18.9775 46.4117 19.2982 46.7282ZM19.3097 47.4494C19.0064 47.1947 18.7578 47.3104 18.7572 47.7064V48.1337C18.7819 48.584 18.9788 49.0075 19.3072 49.3166L20.6207 50.4192C20.924 50.6738 21.1726 50.5581 21.1731 50.1621L21.1737 49.7348C21.1491 49.2845 20.9521 48.8609 20.6236 48.5519L19.3097 47.4494ZM19.357 50.0177C19.0599 49.7559 18.807 49.8656 18.7942 50.2614L18.7807 50.6888C18.7919 51.1393 18.9774 51.5679 19.2982 51.8844L19.464 52.0305C20.0763 52.0874 20.5505 52.129 21.1297 52.1574C21.0809 51.7725 20.9056 51.4148 20.6313 51.1404L19.357 50.0177ZM17.7996 50.0503L17.3996 50.3864L17.4123 50.492C17.4207 50.7197 17.4811 50.9425 17.5888 51.1433C17.6965 51.3442 17.8486 51.5177 18.0336 51.6508C18.2239 51.3814 18.3344 51.0639 18.3525 50.7347V50.3074C18.3515 49.9114 18.1029 49.7957 17.7996 50.0503ZM18.3277 48.1335L18.3142 47.7066C18.3018 47.3108 18.0485 47.2011 17.7514 47.4629L17.115 48.0237L17.3236 49.7578L17.8101 49.3291C18.131 49.0126 18.3166 48.584 18.3277 48.1335ZM18.3394 45.0811C18.1106 45.0711 17.8825 45.0489 17.656 45.0146L16.7347 45.7879C16.8531 46.0816 16.9279 46.3912 16.9566 46.7066L17.0402 47.4012L17.8022 46.7612C18.1307 46.4521 18.3276 46.0286 18.3522 45.5783V45.151C18.3495 45.1274 18.3452 45.1041 18.3394 45.0811ZM15.9713 44.5148C15.9688 44.5509 15.9585 44.5903 15.9596 44.6248L15.9658 44.8217C16.1364 44.944 16.2918 45.086 16.4289 45.2449C16.4497 45.2713 16.4633 45.301 16.4827 45.3281C16.5011 45.3183 16.5189 45.3075 16.536 45.2958L17.006 44.8815C16.6512 44.7893 16.305 44.6667 15.9713 44.5148ZM14.6005 43.6698C14.8655 43.9878 15.1755 44.2656 15.5205 44.4943C15.5122 44.4166 15.4976 44.3397 15.477 44.2643C15.169 44.0906 14.8758 43.8918 14.6005 43.6698ZM32.8982 44.5112C33.2454 44.2807 33.5582 44.0023 33.8273 43.6843C33.5483 43.9087 33.251 44.1094 32.9384 44.2843C32.9193 44.3588 32.9059 44.4346 32.8982 44.5112ZM31.4482 44.8794L31.9052 45.263C31.9276 45.2779 31.951 45.2913 31.9752 45.303C31.9892 45.2841 31.9984 45.263 32.0131 45.2445C32.1449 45.0909 32.2942 44.9533 32.458 44.8345V44.5781C32.458 44.5619 32.4517 44.543 32.451 44.5264C32.1272 44.6719 31.7919 44.79 31.4482 44.8794ZM30.0835 45.0823C30.0835 45.0913 30.079 45.0958 30.0787 45.1051L30.0652 45.5325C30.0765 45.983 30.262 46.4116 30.5828 46.7282L31.3964 47.445L31.4852 46.7063C31.5139 46.3941 31.5875 46.0877 31.7036 45.7966L30.8121 45.0111C30.5709 45.0486 30.3275 45.0724 30.0835 45.0823ZM30.0416 47.7066L30.041 48.1339C30.0657 48.5842 30.2626 49.0077 30.591 49.3168L31.1174 49.7587L31.3217 48.0607L30.5935 47.4496C30.2907 47.1947 30.0421 47.3104 30.0416 47.7066ZM30.1369 50.2225L30.1234 50.6499C30.1317 50.9722 30.2298 51.2858 30.4065 51.5555C30.5833 51.4361 30.7311 51.2786 30.8389 51.0946C30.9468 50.9106 31.012 50.7047 31.0298 50.4922L31.054 50.291L30.6997 49.9789C30.4026 49.7166 30.1493 49.8268 30.1369 50.2225ZM29.084 50.0505L27.7704 51.1531C27.4819 51.4283 27.2951 51.7931 27.2404 52.1881C27.8096 52.1802 28.3774 52.1312 28.9394 52.0415L29.0868 51.9178C29.4153 51.6087 29.6122 51.1852 29.6368 50.7349L29.6362 50.3076C29.6358 49.9114 29.3876 49.7959 29.084 50.0505ZM27.8203 50.452L29.0944 49.3293C29.4153 49.0128 29.6008 48.5842 29.612 48.1337L29.5986 47.7066C29.5861 47.3108 29.3328 47.2011 29.0357 47.4629L27.7615 48.5856C27.4408 48.9021 27.2552 49.3307 27.2439 49.7812L27.2574 50.2086C27.2699 50.6039 27.5236 50.7138 27.8203 50.452ZM29.6263 45.0956H28.8441L27.7704 45.9968C27.442 46.3058 27.2451 46.7294 27.2204 47.1797L27.221 47.607C27.2215 48.003 27.4701 48.1187 27.7734 47.8641L29.087 46.7615C29.4155 46.4524 29.6124 46.0289 29.637 45.5786L29.6364 45.1513C29.634 45.1325 29.6307 45.114 29.6263 45.0956ZM27.8203 45.2956L28.0474 45.0956H27.2667C27.2989 45.4486 27.5365 45.5456 27.8203 45.2956ZM26.7991 45.0956H26.0636L26.2631 45.2632C26.5382 45.4941 26.7586 45.4075 26.7991 45.0956ZM24.9404 46.7284L26.2146 47.851C26.5117 48.1128 26.7646 48.0031 26.7775 47.6073L26.791 47.18C26.7798 46.7294 26.5942 46.3008 26.2734 45.9843L25.2647 45.0956H24.4384L24.4363 45.1056L24.4229 45.533C24.4342 45.9833 24.6197 46.412 24.9404 46.7284ZM24.9519 47.4496C24.6485 47.1949 24.3999 47.3106 24.3994 47.7066L24.3988 48.1339C24.4235 48.5842 24.6204 49.0077 24.9488 49.3168L26.2623 50.4194C26.5657 50.674 26.8143 50.5583 26.8148 50.1623L26.8154 49.735C26.7908 49.2847 26.5939 48.8611 26.2654 48.5521L24.9519 47.4496ZM24.9992 50.0179C24.7021 49.7561 24.4492 49.8658 24.4363 50.2616L24.4229 50.689C24.4341 51.1395 24.6196 51.5681 24.9404 51.8846L25.3059 52.2066C25.85 52.2071 26.3383 52.2056 26.7759 52.1987C26.735 51.7986 26.5574 51.4249 26.273 51.1405L24.9992 50.0179ZM23.1048 8.97657C22.4897 8.98027 22.0105 8.98927 21.5996 9.00287C21.6563 9.39367 21.8425 9.75414 22.1283 10.0266L23.4418 11.1292C23.7451 11.3838 23.9937 11.2682 23.9942 10.8722L23.9948 10.4449C23.9702 9.99456 23.7732 9.57098 23.4448 9.26187L23.1048 8.97657ZM23.3935 13.7166C23.6906 13.9784 23.9435 13.8687 23.9564 13.4729L23.9699 13.0456C23.9587 12.595 23.7731 12.1664 23.4523 11.8499L22.1781 10.7276C21.881 10.4658 21.6281 10.5754 21.6153 10.9712L21.6018 11.3986C21.613 11.8491 21.7986 12.2778 22.1194 12.5943L23.3935 13.7166ZM22.1308 13.3151C21.8275 13.0606 21.5789 13.1762 21.5783 13.5722V13.9995C21.6029 14.4498 21.7999 14.8734 22.1283 15.1825L23.2156 16.0951H23.9821C23.9875 16.0729 23.9916 16.0505 23.9942 16.0279L23.9948 15.6006C23.9702 15.1503 23.7733 14.7267 23.4448 14.4177L22.1308 13.3151ZM22.1781 15.8835C21.8909 15.6304 21.6494 15.7309 21.6221 16.0951H22.4183L22.1781 15.8835ZM20.6207 15.9166L20.4074 16.0956H21.159C21.1236 15.7732 20.8997 15.6823 20.6207 15.9166ZM20.5724 13.3287L19.2982 14.4512C18.9775 14.7676 18.792 15.1961 18.7807 15.6466L18.7942 16.074C18.7942 16.0827 18.7982 16.0869 18.7987 16.0952H19.6095L20.6313 15.1952C20.9522 14.8787 21.1377 14.4501 21.1488 13.9996L21.1353 13.5722C21.1229 13.1766 20.8696 13.0668 20.5724 13.3287ZM20.6207 10.7603L19.3072 11.8627C18.9788 12.1717 18.7819 12.5953 18.7572 13.0456V13.4729C18.7578 13.8689 19.0064 13.9846 19.3097 13.73L20.6236 12.6274C20.9521 12.3183 21.149 11.8948 21.1736 11.4445V11.0172C21.1726 10.6212 20.9236 10.5058 20.6207 10.7603ZM19.357 11.1616L20.6313 10.039C20.9056 9.76456 21.0809 9.40683 21.1297 9.02197C20.5505 9.05037 20.0763 9.09197 19.464 9.14887L19.2982 9.29487C18.9774 9.61138 18.7919 10.04 18.7807 10.4906L18.7942 10.9179C18.8066 11.3137 19.0599 11.4234 19.357 11.1616ZM17.4119 10.6873L17.3992 10.7929L17.7992 11.129C18.1025 11.3836 18.3511 11.268 18.3517 10.872V10.4447C18.3339 10.1155 18.2236 9.798 18.0336 9.52857C17.8485 9.66154 17.6963 9.83507 17.5886 10.0359C17.4808 10.2367 17.4204 10.4595 17.4119 10.6873ZM18.3142 13.4732L18.3277 13.0459C18.3166 12.5953 18.131 12.1667 17.8101 11.8502L17.3236 11.4215L17.115 13.1566L17.7514 13.7173C18.0485 13.9787 18.3018 13.869 18.3142 13.4732ZM17.0402 13.7784L16.9566 14.4731C16.9278 14.7884 16.8531 15.0977 16.7347 15.3914L17.6676 16.1745C17.8897 16.1412 18.1133 16.1197 18.3376 16.1099C18.3445 16.083 18.3495 16.0557 18.3524 16.0282V15.6009C18.3278 15.1506 18.1309 14.727 17.8024 14.418L17.0402 13.7784ZM17.0163 16.3066L16.5363 15.8834C16.5192 15.8717 16.5014 15.8609 16.483 15.8512C16.4636 15.8782 16.45 15.908 16.4292 15.9343C16.2922 16.0932 16.1367 16.2352 15.9661 16.3575L15.9599 16.5545C15.9588 16.5921 15.9699 16.6351 15.9728 16.6745C16.3093 16.5217 16.6585 16.3986 17.0163 16.3066ZM14.5697 17.5422V17.5441C14.8531 17.3133 15.1556 17.1072 15.474 16.928C15.4962 16.8484 15.5115 16.7672 15.52 16.6851C15.1605 16.9194 14.8398 17.2086 14.5697 17.5422ZM33.8649 17.5347C33.5891 17.1979 33.2631 16.9056 32.8982 16.6681C32.906 16.7491 32.9202 16.8293 32.9407 16.9081C33.2665 17.0896 33.5757 17.2993 33.8649 17.5347ZM32.0128 15.9347C31.9981 15.9162 31.9889 15.8947 31.9749 15.8762C31.9507 15.8878 31.9273 15.9012 31.9049 15.9162L31.4375 16.3086C31.7842 16.398 32.1227 16.5166 32.4494 16.6631C32.4506 16.6431 32.4579 16.6202 32.4579 16.6006V16.3441C32.2941 16.2255 32.1447 16.0881 32.0128 15.9347ZM30.065 15.6466L30.0785 16.074C30.0785 16.0881 30.0847 16.0951 30.0858 16.1085C30.3252 16.1181 30.5638 16.1411 30.8005 16.1775L31.7032 15.3822C31.5872 15.0911 31.5137 14.7849 31.485 14.4729L31.3961 13.7341L30.5826 14.451C30.2619 14.7675 30.0763 15.1961 30.065 15.6466ZM30.594 13.7298L31.3222 13.1186L31.1179 11.4206L30.5915 11.8625C30.2631 12.1715 30.0662 12.5951 30.0415 13.0454L30.0421 13.4727C30.0421 13.8689 30.2911 13.9844 30.594 13.7298ZM30.6997 11.2005L31.0536 10.8886L31.0294 10.6873C31.0117 10.4747 30.9464 10.2689 30.8386 10.0849C30.7307 9.90084 30.583 9.74335 30.4062 9.62397C30.2296 9.89367 30.1318 10.2073 30.1236 10.5296L30.1371 10.957C30.1493 11.3528 30.4026 11.4623 30.6997 11.2005ZM28.9392 9.13807C28.3771 9.04831 27.8093 8.99928 27.2401 8.99137C27.2948 9.38635 27.4816 9.75118 27.7701 10.0264L29.0836 11.129C29.3868 11.3836 29.6354 11.268 29.636 10.872L29.6366 10.4447C29.612 9.99436 29.415 9.57078 29.0866 9.26167L28.9392 9.13807ZM29.0357 13.7169C29.3328 13.9787 29.5857 13.869 29.5986 13.4732L29.612 13.0459C29.6009 12.5953 29.4153 12.1667 29.0944 11.8502L27.8203 10.7276C27.5232 10.4658 27.2703 10.5754 27.2574 10.9712L27.2436 11.3986C27.2549 11.8491 27.4404 12.2777 27.7612 12.5943L29.0357 13.7169ZM27.7729 13.3154C27.4696 13.0609 27.221 13.1765 27.2205 13.5725L27.2199 13.9998C27.2446 14.4501 27.4415 14.8737 27.7699 15.1828L28.8573 16.0954H29.6237C29.6292 16.0732 29.6332 16.0508 29.6359 16.0282L29.6365 15.6009C29.6119 15.1506 29.415 14.727 29.0865 14.418L27.7729 13.3154ZM27.8203 15.8838C27.533 15.6307 27.2916 15.7312 27.2642 16.0954H28.0605L27.8203 15.8838ZM26.2628 15.9164L26.0496 16.0954H26.8012C26.7652 15.7732 26.5418 15.6821 26.2628 15.9164ZM26.2146 13.3285L24.9404 14.4512C24.6196 14.7677 24.4341 15.1963 24.4229 15.6468L24.4363 16.0742C24.4363 16.0829 24.4403 16.0871 24.4408 16.0954H25.2517L26.2734 15.1954C26.5942 14.8789 26.7798 14.4503 26.791 13.9998L26.7775 13.5724C26.765 13.1766 26.5117 13.0666 26.2146 13.3285ZM26.2628 10.7601L24.9493 11.8627C24.6209 12.1717 24.424 12.5953 24.3993 13.0456L24.3999 13.4729C24.3999 13.8689 24.649 13.9846 24.9524 13.73L26.2659 12.6274C26.5944 12.3183 26.7913 11.8948 26.8159 11.4445L26.8153 11.0172C26.8148 10.6212 26.5662 10.5056 26.2628 10.7601ZM24.9992 11.1616L26.2736 10.039C26.558 9.75453 26.7356 9.38077 26.7765 8.98067C26.3385 8.97377 25.8504 8.97217 25.3065 8.97277L24.9408 9.29487C24.62 9.61138 24.4345 10.04 24.4233 10.4906L24.4367 10.9179C24.4488 11.3137 24.7021 11.4234 24.9992 11.1616ZM37.2236 22.7366H36.2236V22.4953C36.2237 21.356 35.9194 20.2374 35.3423 19.2551C34.7651 18.2728 33.936 17.4625 32.9407 16.9081C32.7813 16.819 32.6167 16.7381 32.4494 16.6631C31.924 16.4282 31.3695 16.2648 30.8005 16.1775C30.5638 16.1411 30.3252 16.1181 30.0858 16.1085C29.9981 16.1049 29.9121 16.0953 29.8236 16.0953H18.6236C18.5269 16.0953 18.4332 16.1054 18.3376 16.1099C17.5205 16.1455 16.7177 16.3365 15.9728 16.6745C15.8028 16.7521 15.6357 16.8363 15.474 16.928C14.4862 17.4833 13.6644 18.2918 13.093 19.2704C12.5217 20.249 12.2216 21.3622 12.2236 22.4954V38.6954C12.2236 39.8286 12.5248 40.9415 13.0964 41.9201C13.668 42.8986 14.4899 43.7077 15.477 44.2643C15.6376 44.3552 15.8025 44.4382 15.9713 44.5148C16.5072 44.7582 17.0741 44.9262 17.656 45.0146C17.8825 45.0489 18.1106 45.0711 18.3394 45.0811C18.4344 45.0852 18.5276 45.0951 18.6236 45.0951H29.8236C29.9113 45.0951 29.9964 45.0854 30.0835 45.0823C30.3275 45.0724 30.5709 45.0486 30.8121 45.0111C31.3777 44.9232 31.9286 44.7601 32.451 44.5264C32.617 44.4514 32.7803 44.3726 32.9384 44.2843C33.9327 43.7282 34.7613 42.9169 35.3386 41.9348C35.9159 40.9527 36.2214 39.8347 36.2236 38.6955V27.7366H37.2236V22.7366ZM35.2236 38.6955C35.2138 40.1246 34.6417 41.4924 33.6311 42.5029C32.6205 43.5135 31.2528 44.0856 29.8236 44.0955H18.6236C18.3885 44.0937 18.1538 44.0767 17.9208 44.0444C16.623 43.8725 15.4317 43.2356 14.5678 42.2519C13.704 41.2683 13.2264 40.0046 13.2236 38.6955V22.4955C13.2346 21.0667 13.807 19.6995 14.8173 18.6891C15.8277 17.6788 17.1948 17.1064 18.6236 17.0955H29.8236C31.2544 17.0999 32.6254 17.6703 33.6371 18.682C34.6489 19.6937 35.2192 21.0647 35.2236 22.4955V22.7366V27.7366V38.6955Z" fill="#1D1D1F"/>
</g>
</g>
<path d="M14.0117 71.4058C12.1601 71.4058 10.9648 70.4331 10.8418 69.0562L10.8359 68.9917H11.8906L11.8964 69.0562C11.9726 69.8999 12.8515 70.4331 14.0703 70.4331C15.2187 70.4331 16.0566 69.8413 16.0566 68.98V68.9741C16.0566 68.271 15.5703 67.7905 14.4101 67.5327L13.4726 67.3276C11.7793 66.9526 11.0468 66.1733 11.0468 64.9487V64.9429C11.0527 63.5425 12.2773 62.5522 14.0234 62.5522C15.7109 62.5522 16.8886 63.5483 16.9765 64.8081L16.9824 64.8901H15.9277L15.916 64.814C15.7988 64.0698 15.0957 63.519 13.9941 63.5249C12.9394 63.5308 12.125 64.0288 12.125 64.9136V64.9194C12.125 65.5933 12.5879 66.0503 13.7363 66.3022L14.6738 66.5132C16.4375 66.9058 17.1347 67.6147 17.1347 68.8335V68.8394C17.1347 70.4214 15.8984 71.4058 14.0117 71.4058ZM18.7022 71.2065V62.3823H19.7218V65.8394H19.8155C20.1319 65.1714 20.7237 64.7788 21.6554 64.7788C23.0733 64.7788 23.8643 65.6167 23.8643 67.1167V71.2065H22.8448V67.3628C22.8448 66.2261 22.3761 65.6812 21.3682 65.6812C20.3604 65.6812 19.7218 66.3608 19.7218 67.4683V71.2065H18.7022ZM28.1857 71.3179C26.3869 71.3179 25.2736 70.0757 25.2736 68.0542V68.0425C25.2736 66.0151 26.3869 64.7788 28.1857 64.7788C29.9846 64.7788 31.0979 66.0151 31.0979 68.0425V68.0542C31.0979 70.0757 29.9846 71.3179 28.1857 71.3179ZM28.1857 70.4155C29.3811 70.4155 30.0549 69.5425 30.0549 68.0542V68.0425C30.0549 66.5483 29.3811 65.6812 28.1857 65.6812C26.9904 65.6812 26.3166 66.5483 26.3166 68.0425V68.0542C26.3166 69.5425 26.9904 70.4155 28.1857 70.4155ZM32.5599 73.3159V64.8901H33.5794V65.8979H33.6732C34.0599 65.1948 34.763 64.7788 35.6419 64.7788C37.2415 64.7788 38.2904 66.0737 38.2904 68.0425V68.0542C38.2904 70.0347 37.2474 71.3179 35.6419 71.3179C34.7747 71.3179 34.0189 70.8843 33.6732 70.2104H33.5794V73.3159H32.5599ZM35.4075 70.4155C36.5618 70.4155 37.2474 69.5249 37.2474 68.0542V68.0425C37.2474 66.5718 36.5618 65.6812 35.4075 65.6812C34.2591 65.6812 33.556 66.5835 33.556 68.0425V68.0542C33.556 69.5132 34.2591 70.4155 35.4075 70.4155ZM44.9 71.2065L42.5972 62.7515H43.6988L45.3804 69.6245H45.4507L47.3433 62.7515H48.4097L50.3023 69.6245H50.3726L52.0543 62.7515H53.1558L50.8531 71.2065H49.857L47.9117 64.5327H47.8414L45.8961 71.2065H44.9ZM55.6608 71.3179C54.4596 71.3179 53.5514 70.5913 53.5514 69.4429V69.4312C53.5514 68.3062 54.3835 67.6558 55.8542 67.5679L57.6647 67.4565V66.8823C57.6647 66.103 57.1901 65.6812 56.2468 65.6812C55.4909 65.6812 54.9929 65.9624 54.8288 66.4546L54.8229 66.4722H53.8034L53.8093 66.437C53.9733 65.4468 54.9343 64.7788 56.2819 64.7788C57.8229 64.7788 58.6843 65.5698 58.6843 66.8823V71.2065H57.6647V70.2749H57.571C57.1725 70.9487 56.5104 71.3179 55.6608 71.3179ZM54.5944 69.4194C54.5944 70.0581 55.1393 70.4331 55.8718 70.4331C56.9089 70.4331 57.6647 69.7534 57.6647 68.8511V68.2769L55.9772 68.3823C55.0163 68.4409 54.5944 68.7808 54.5944 69.4077V69.4194ZM62.6717 71.2534C61.3709 71.2534 60.826 70.7729 60.826 69.5659V65.7339H59.8299V64.8901H60.826V63.2554H61.8807V64.8901H63.2635V65.7339H61.8807V69.3081C61.8807 70.0522 62.1385 70.3511 62.7947 70.3511C62.9764 70.3511 63.076 70.3452 63.2635 70.3276V71.1948C63.0643 71.23 62.8709 71.2534 62.6717 71.2534ZM67.1572 71.3179C65.3876 71.3179 64.2568 70.0347 64.2568 68.0308V68.019C64.2568 66.0562 65.3818 64.7788 67.1513 64.7788C68.6864 64.7788 69.6064 65.6636 69.7939 66.7886L69.7997 66.8237H68.7861L68.7802 66.8062C68.622 66.1851 68.0595 65.6812 67.1513 65.6812C66.0146 65.6812 65.2997 66.5952 65.2997 68.019V68.0308C65.2997 69.4839 66.0263 70.4155 67.1513 70.4155C68.0009 70.4155 68.54 70.0405 68.7743 69.3374L68.7861 69.3022L69.7939 69.2964L69.7822 69.3608C69.5243 70.5034 68.6747 71.3179 67.1572 71.3179ZM71.2266 71.2065V62.3823H72.2461V65.8394H72.3399C72.6563 65.1714 73.2481 64.7788 74.1797 64.7788C75.5977 64.7788 76.3887 65.6167 76.3887 67.1167V71.2065H75.3692V67.3628C75.3692 66.2261 74.9004 65.6812 73.8926 65.6812C72.8848 65.6812 72.2461 66.3608 72.2461 67.4683V71.2065H71.2266Z" fill="black" fill-opacity="0.8"/>
<defs>
<clipPath id="clip0_8002_47477">
<rect width="63" height="56" fill="white" transform="translate(12.2236 0.206543)"/>
</clipPath>
<clipPath id="clip1_8002_47477">
<rect width="63" height="54" fill="white" transform="translate(12.2236 2.20654)"/>
</clipPath>
</defs>
</svg>
