<svg width="87" height="76" viewBox="0 0 87 76" fill="none" xmlns="http://www.w3.org/2000/svg">
<g clip-path="url(#clip0_8002_47465)">
<g clip-path="url(#clip1_8002_47465)">
<path d="M37.8232 18.2065C33.3146 18.2065 28.9905 19.9976 25.8024 23.1857C22.6143 26.3738 20.8232 30.6979 20.8232 35.2065C20.8232 39.7152 22.6143 44.0392 25.8024 47.2274C28.9905 50.4155 33.3146 52.2065 37.8232 52.2065C42.3319 52.2065 46.6559 50.4155 49.8441 47.2274C53.0322 44.0392 54.8232 39.7152 54.8232 35.2065C54.8232 30.6979 53.0322 26.3738 49.8441 23.1857C46.6559 19.9976 42.3319 18.2065 37.8232 18.2065ZM42.3232 26.3565C42.7546 26.3191 43.1839 26.4486 43.5225 26.7184C43.8612 26.9882 44.0834 27.3777 44.1432 27.8065H43.3232C43.2628 27.5902 43.1312 27.4006 42.9498 27.2682C42.7684 27.1357 42.5477 27.0682 42.3232 27.0765C41.6232 27.0765 41.1932 27.6265 41.1932 28.5465C41.1932 29.4665 41.6232 30.0565 42.3232 30.0565C42.5477 30.0796 42.7729 30.0204 42.9569 29.8897C43.1408 29.7591 43.2711 29.5661 43.3232 29.3465H44.1432C44.081 29.772 43.8571 30.1571 43.5181 30.4216C43.1791 30.6861 42.7511 30.8097 42.3232 30.7665C42.041 30.7683 41.7616 30.7102 41.5034 30.5962C41.2452 30.4823 41.0141 30.3149 40.8252 30.1052C40.6363 29.8956 40.4939 29.6483 40.4074 29.3796C40.3209 29.111 40.2922 28.8271 40.3232 28.5465C40.2866 28.2665 40.3116 27.9818 40.3964 27.7124C40.4813 27.443 40.6239 27.1954 40.8144 26.9868C41.0048 26.7782 41.2385 26.6138 41.4991 26.5049C41.7598 26.3961 42.041 26.3454 42.3232 26.3565ZM34.7932 27.0565C34.3232 27.0565 34.0032 27.2365 33.9032 27.5365H33.0932C33.1832 26.8265 33.8632 26.3565 34.8332 26.3565C35.8032 26.3565 36.5032 26.8865 36.5032 27.7865V30.6865H35.6932V30.0865H35.6232C35.4878 30.3011 35.2981 30.476 35.0733 30.5937C34.8486 30.7113 34.5967 30.7675 34.3432 30.7565C34.1654 30.7747 33.9857 30.7554 33.8158 30.6999C33.6458 30.6444 33.4894 30.5539 33.3566 30.4342C33.2238 30.3146 33.1175 30.1685 33.0445 30.0052C32.9716 29.842 32.9337 29.6653 32.9332 29.4865C32.9332 28.7265 33.5032 28.2865 34.5132 28.2265L35.6332 28.2065V27.8265C35.6332 27.3165 35.3232 27.0565 34.7632 27.0565H34.7932ZM27.4432 26.4465L28.2032 29.7165H28.2632L29.1432 26.4465H29.9432L30.8232 29.7165H30.8832L31.6432 26.4465H32.4832L31.3232 30.6865H30.4432L29.5732 27.5165H29.4732L28.5932 30.6865H27.7332L26.5632 26.4465H27.4432ZM32.7932 44.8465C29.4932 44.8465 27.4332 42.5365 27.4332 38.8465C27.4332 35.1565 29.4932 32.8465 32.7932 32.8465C36.0932 32.8465 38.1432 35.1665 38.1432 38.8465C38.1432 42.5265 36.0532 44.8465 32.7632 44.8465H32.7932ZM37.8732 29.5665V27.1265H37.1932V26.4565H37.8732V25.3765H38.7132V26.4565H39.6332V27.1265H38.7132V29.3665C38.7132 29.8165 38.8932 30.0165 39.3132 30.0165C39.4197 30.0268 39.5268 30.0268 39.6332 30.0165V30.6865C39.4814 30.7147 39.3276 30.7314 39.1732 30.7365C38.2132 30.7165 37.8432 30.3865 37.8432 29.5665H37.8732ZM43.5432 44.8465C41.0032 44.8465 39.3132 43.5365 39.1732 41.5365H40.6232C40.7932 42.7765 41.9532 43.5365 43.6232 43.5365C45.2932 43.5365 46.3432 42.7065 46.3432 41.5365C46.3432 40.5365 45.7032 39.9165 44.0832 39.5365L42.8032 39.2565C40.4732 38.7465 39.4632 37.6965 39.4632 36.0465C39.4632 34.1265 41.1532 32.7765 43.5632 32.7765C45.9732 32.7765 47.5632 34.1665 47.6232 36.1365H46.1432C46.054 35.5214 45.7256 34.9662 45.2294 34.5918C44.7332 34.2173 44.1093 34.0537 43.4932 34.1365C42.0432 34.1365 40.9232 34.8465 40.9232 36.0265C40.9232 36.9465 41.5432 37.5765 43.1332 37.9265L44.4232 38.2065C46.8432 38.7365 47.8032 39.6965 47.8032 41.3465C47.8032 43.4965 46.1132 44.8465 43.5132 44.8465H43.5432ZM48.8032 30.6865H47.9232V28.1365C47.9232 27.4465 47.6132 27.1365 47.0232 27.1365C46.8793 27.1246 46.7344 27.144 46.5986 27.1934C46.4628 27.2428 46.3394 27.321 46.2367 27.4227C46.1341 27.5244 46.0547 27.6471 46.004 27.7825C45.9534 27.9178 45.9326 28.0624 45.9432 28.2065V30.6965H45.1032V24.7765H45.9432V27.1165H46.0032C46.1181 26.8743 46.3041 26.6728 46.5363 26.5388C46.7685 26.4048 47.036 26.3447 47.3032 26.3665C47.5081 26.3547 47.7131 26.3881 47.9036 26.4643C48.0941 26.5404 48.2656 26.6576 48.4058 26.8074C48.5461 26.9571 48.6517 27.1359 48.7152 27.3311C48.7787 27.5262 48.7985 27.7329 48.7732 27.9365L48.8032 30.6865Z" fill="#1D1D1F"/>
<path d="M32.7636 34.2065C30.3836 34.2065 28.8936 36.0165 28.8936 38.8865C28.8936 41.7565 30.3836 43.5465 32.7636 43.5465C35.1436 43.5465 36.6236 41.7365 36.6236 38.8865C36.6236 36.0365 35.1336 34.2065 32.7636 34.2065Z" fill="#1D1D1F"/>
<path d="M33.7432 29.4565C33.7432 29.8465 34.0732 30.0765 34.5332 30.0765C34.6726 30.0906 34.8135 30.0751 34.9466 30.0312C35.0797 29.9872 35.2021 29.9158 35.3058 29.8215C35.4096 29.7272 35.4923 29.6122 35.5487 29.4838C35.6051 29.3555 35.6339 29.2167 35.6332 29.0765V28.7065L34.6332 28.7765C34.0032 28.8565 33.7432 29.0665 33.7432 29.4565Z" fill="#1D1D1F"/>
</g>
</g>
<path d="M6.93356 71.2065L5.16402 64.8901H6.18356L7.42574 69.9409H7.51949L8.9316 64.8901H9.8984L11.3105 69.9409H11.4043L12.6464 64.8901H13.6601L11.8906 71.2065H10.8652L9.45309 66.3198H9.35934L7.95309 71.2065H6.93356ZM16.4464 71.3179C15.2452 71.3179 14.337 70.5913 14.337 69.4429V69.4312C14.337 68.3062 15.169 67.6558 16.6397 67.5679L18.4503 67.4565V66.8823C18.4503 66.103 17.9757 65.6812 17.0323 65.6812C16.2764 65.6812 15.7784 65.9624 15.6143 66.4546L15.6085 66.4722H14.5889L14.5948 66.437C14.7589 65.4468 15.7198 64.7788 17.0675 64.7788C18.6085 64.7788 19.4698 65.5698 19.4698 66.8823V71.2065H18.4503V70.2749H18.3565C17.9581 70.9487 17.296 71.3179 16.4464 71.3179ZM15.38 69.4194C15.38 70.0581 15.9249 70.4331 16.6573 70.4331C17.6944 70.4331 18.4503 69.7534 18.4503 68.8511V68.2769L16.7628 68.3823C15.8018 68.4409 15.38 68.7808 15.38 69.4077V69.4194ZM23.4572 71.2534C22.1564 71.2534 21.6115 70.7729 21.6115 69.5659V65.7339H20.6154V64.8901H21.6115V63.2554H22.6662V64.8901H24.049V65.7339H22.6662V69.3081C22.6662 70.0522 22.924 70.3511 23.5803 70.3511C23.7619 70.3511 23.8615 70.3452 24.049 70.3276V71.1948C23.8498 71.23 23.6564 71.2534 23.4572 71.2534ZM27.9427 71.3179C26.1732 71.3179 25.0423 70.0347 25.0423 68.0308V68.019C25.0423 66.0562 26.1673 64.7788 27.9368 64.7788C29.472 64.7788 30.3919 65.6636 30.5794 66.7886L30.5853 66.8237H29.5716L29.5657 66.8062C29.4075 66.1851 28.845 65.6812 27.9368 65.6812C26.8001 65.6812 26.0853 66.5952 26.0853 68.019V68.0308C26.0853 69.4839 26.8118 70.4155 27.9368 70.4155C28.7864 70.4155 29.3255 70.0405 29.5599 69.3374L29.5716 69.3022L30.5794 69.2964L30.5677 69.3608C30.3099 70.5034 29.4603 71.3179 27.9427 71.3179ZM32.0121 71.2065V62.3823H33.0317V65.8394H33.1254C33.4418 65.1714 34.0336 64.7788 34.9653 64.7788C36.3832 64.7788 37.1743 65.6167 37.1743 67.1167V71.2065H36.1547V67.3628C36.1547 66.2261 35.686 65.6812 34.6782 65.6812C33.6704 65.6812 33.0317 66.3608 33.0317 67.4683V71.2065H32.0121ZM42.5797 71.4058C40.1539 71.4058 38.7007 69.6831 38.7007 66.9819V66.9702C38.7007 64.2573 40.189 62.5522 42.5797 62.5522C44.982 62.5522 46.4586 64.2632 46.4586 66.9702V66.9819C46.4586 69.6772 44.9937 71.4058 42.5797 71.4058ZM42.5797 70.4331C44.314 70.4331 45.3804 69.0737 45.3804 66.9819V66.9702C45.3804 64.8608 44.3082 63.5249 42.5797 63.5249C40.857 63.5249 39.7789 64.8608 39.7789 66.9702V66.9819C39.7789 69.0737 40.8218 70.4331 42.5797 70.4331ZM50.9382 71.4058C49.0866 71.4058 47.8913 70.4331 47.7682 69.0562L47.7624 68.9917H48.8171L48.8229 69.0562C48.8991 69.8999 49.778 70.4331 50.9968 70.4331C52.1452 70.4331 52.9831 69.8413 52.9831 68.98V68.9741C52.9831 68.271 52.4968 67.7905 51.3366 67.5327L50.3991 67.3276C48.7057 66.9526 47.9733 66.1733 47.9733 64.9487V64.9429C47.9792 63.5425 49.2038 62.5522 50.9499 62.5522C52.6374 62.5522 53.8151 63.5483 53.903 64.8081L53.9089 64.8901H52.8542L52.8425 64.814C52.7253 64.0698 52.0221 63.519 50.9206 63.5249C49.8659 63.5308 49.0514 64.0288 49.0514 64.9136V64.9194C49.0514 65.5933 49.5143 66.0503 50.6628 66.3022L51.6003 66.5132C53.3639 66.9058 54.0612 67.6147 54.0612 68.8335V68.8394C54.0612 70.4214 52.8249 71.4058 50.9382 71.4058ZM60.8876 71.2065V63.9233H60.7939L58.6435 65.4819V64.3687L60.8935 62.7515H61.9423V71.2065H60.8876ZM67.0957 71.4058C65.2266 71.4058 64.1133 69.7007 64.1133 66.9819V66.9702C64.1133 64.2515 65.2266 62.5522 67.0957 62.5522C68.9649 62.5522 70.0899 64.2515 70.0899 66.9702V66.9819C70.0899 69.7007 68.9649 71.4058 67.0957 71.4058ZM67.0957 70.4858C68.3086 70.4858 69.0293 69.1382 69.0293 66.9819V66.9702C69.0293 64.814 68.3086 63.478 67.0957 63.478C65.8829 63.478 65.1739 64.814 65.1739 66.9702V66.9819C65.1739 69.1382 65.8829 70.4858 67.0957 70.4858Z" fill="black" fill-opacity="0.8"/>
<defs>
<clipPath id="clip0_8002_47465">
<rect width="35" height="56" fill="white" transform="translate(20.3232 0.206543)"/>
</clipPath>
<clipPath id="clip1_8002_47465">
<rect width="35" height="54" fill="white" transform="translate(20.3232 2.20654)"/>
</clipPath>
</defs>
</svg>
