<svg width="99" height="92" viewBox="0 0 99 92" fill="none" xmlns="http://www.w3.org/2000/svg">
<g clip-path="url(#clip0_8002_47398)">
<g clip-path="url(#clip1_8002_47398)">
<path d="M60.623 22.8494V22.6082C60.623 20.1481 59.2332 18.0151 57.1974 16.9439C56.5128 16.3793 56.1746 15.6544 56.0655 15.3893C55.8412 14.8444 55.7386 14.229 55.7386 14.229C55.7386 14.229 55.354 11.3187 55.2771 10.8379C55.2002 10.3571 54.8909 10.1057 54.8909 10.1057C54.5592 9.82512 54.213 9.70982 53.6763 9.56082C52.713 9.31242 52.7001 9.35732 52.7001 9.35732C52.7001 9.35732 51.354 9.12402 48.6101 9.12402C45.8662 9.12402 44.5201 9.35732 44.5201 9.35732C44.5201 9.35732 44.5074 9.31242 43.5441 9.56092C43.0074 9.70992 42.6613 9.82522 42.3295 10.1058C42.3295 10.1058 42.0202 10.3573 41.9433 10.838C41.8663 11.3188 41.4818 14.2291 41.4818 14.2291C41.4818 14.2291 41.3792 14.8445 41.1548 15.3894C41.0439 15.6588 40.6983 16.4041 39.99 16.9722C37.9856 18.0532 36.623 20.1712 36.623 22.6082V38.6582C36.623 41.0169 37.9026 43.0721 39.802 44.1822L39.8023 44.1973C40.6548 44.7743 41.0337 45.6466 41.1548 45.941C41.3792 46.4859 41.4818 47.1012 41.4818 47.1012C41.4818 47.1012 41.8664 50.0115 41.9433 50.4923C42.0202 50.9731 42.3295 51.2246 42.3295 51.2246C42.6612 51.5052 43.0074 51.6205 43.5441 51.7695C44.5074 52.018 44.5202 51.9732 44.5202 51.9732C44.5202 51.9732 45.8663 52.2064 48.6102 52.2064C51.3541 52.2064 52.7002 51.9731 52.7002 51.9731C52.7002 51.9731 52.713 52.018 53.6763 51.7694C54.213 51.6205 54.5592 51.5051 54.8909 51.2245C54.8909 51.2245 55.2002 50.973 55.2771 50.4922C55.3541 50.0114 55.7386 47.1011 55.7386 47.1011C55.7386 47.1011 55.8412 46.4857 56.0655 45.9409C56.1866 45.6469 56.565 44.7764 57.4154 44.1996C59.3308 43.0937 60.623 41.0289 60.623 38.6582V27.6994H61.6226V22.8494H60.623ZM51.9505 9.36292C52.6493 9.41722 53.2086 9.55362 53.1998 9.66772C53.191 9.78182 52.6173 9.83022 51.9185 9.77602C51.2197 9.72172 50.6604 9.58532 50.6692 9.47122C50.678 9.35712 51.2517 9.30862 51.9505 9.36292ZM51.9321 10.2761C52.633 10.2761 53.2012 10.515 53.2012 10.8096C53.2012 11.1043 52.633 11.3432 51.9321 11.3432C51.2312 11.3432 50.663 11.1043 50.663 10.8096C50.663 10.515 51.2312 10.2761 51.9321 10.2761ZM51.9321 12.1378C52.633 12.1378 53.2012 12.5088 53.2012 12.9664C53.2012 13.4241 52.633 13.7951 51.9321 13.7951C51.2312 13.7951 50.663 13.4241 50.663 12.9664C50.663 12.5087 51.2312 12.1378 51.9321 12.1378ZM48.6105 9.57292C49.3114 9.57292 49.8796 9.76412 49.8796 10C49.8796 10.2358 49.3114 10.4271 48.6105 10.4271C47.9096 10.4271 47.3415 10.2359 47.3415 10C47.3415 9.76412 47.9097 9.57292 48.6105 9.57292ZM49.9837 14.3173C49.9837 14.8564 49.3933 15.2935 48.6651 15.2935C47.9368 15.2935 47.3465 14.8564 47.3465 14.3173C47.3465 13.7781 47.9368 13.341 48.6651 13.341C49.3933 13.341 49.9837 13.7781 49.9837 14.3173ZM48.6105 10.9967C49.3114 10.9967 49.8796 11.3151 49.8796 11.7079C49.8796 12.1007 49.3114 12.4191 48.6105 12.4191C47.9096 12.4191 47.3415 12.1007 47.3415 11.7079C47.3415 11.3151 47.9097 10.9967 48.6105 10.9967ZM45.4059 9.36292C46.1047 9.30862 46.6784 9.35712 46.6872 9.47122C46.6961 9.58522 46.1367 9.72172 45.4379 9.77602C44.7391 9.83032 44.1655 9.78182 44.1566 9.66772C44.1477 9.55362 44.707 9.41722 45.4059 9.36292ZM45.3709 10.2761C46.0718 10.2761 46.64 10.515 46.64 10.8096C46.64 11.1043 46.0718 11.3432 45.3709 11.3432C44.67 11.3432 44.1018 11.1043 44.1018 10.8096C44.1018 10.515 44.6699 10.2761 45.3709 10.2761ZM45.3709 12.1378C46.0718 12.1378 46.64 12.5088 46.64 12.9664C46.64 13.4241 46.0718 13.7951 45.3709 13.7951C44.67 13.7951 44.1018 13.4241 44.1018 12.9664C44.1018 12.5087 44.6699 12.1378 45.3709 12.1378ZM45.3709 49.9872C46.0718 49.9872 46.64 50.2261 46.64 50.5207C46.64 50.8154 46.0718 51.0543 45.3709 51.0543C44.67 51.0543 44.1018 50.8154 44.1018 50.5207C44.1018 50.2261 44.6699 49.9872 45.3709 49.9872ZM44.1018 48.3639C44.1018 47.9063 44.67 47.5353 45.3709 47.5353C46.0718 47.5353 46.64 47.9063 46.64 48.3639C46.64 48.8216 46.0718 49.1926 45.3709 49.1926C44.6699 49.1925 44.1018 48.8216 44.1018 48.3639ZM45.4059 51.9674C44.707 51.9131 44.1478 51.7767 44.1566 51.6626C44.1654 51.5485 44.7391 51.5001 45.4379 51.5543C46.1367 51.6085 46.696 51.745 46.6872 51.8591C46.6784 51.9732 46.1047 52.0217 45.4059 51.9674ZM48.6105 51.7574C47.9096 51.7574 47.3415 51.5662 47.3415 51.3303C47.3415 51.0945 47.9097 50.9032 48.6105 50.9032C49.3114 50.9032 49.8796 51.0944 49.8796 51.3303C49.8797 51.5663 49.3115 51.7574 48.6105 51.7574ZM48.6105 50.3336C47.9096 50.3336 47.3415 50.0151 47.3415 49.6224C47.3415 49.2296 47.9097 48.9111 48.6105 48.9111C49.3114 48.9111 49.8796 49.2296 49.8796 49.6224C49.8797 50.0151 49.3115 50.3336 48.6105 50.3336ZM48.6651 47.9893C47.9368 47.9893 47.3465 47.5522 47.3465 47.013C47.3465 46.4739 47.9368 46.0368 48.6651 46.0368C49.3933 46.0368 49.9837 46.4739 49.9837 47.013C49.9837 47.5522 49.3933 47.9893 48.6651 47.9893ZM51.9505 51.9674C51.2517 52.0217 50.678 51.9732 50.6692 51.8591C50.6604 51.745 51.2197 51.6086 51.9185 51.5543C52.6173 51.5 53.191 51.5485 53.1998 51.6626C53.2086 51.7767 52.6492 51.9131 51.9505 51.9674ZM51.9321 51.0542C51.2312 51.0542 50.663 50.8153 50.663 50.5206C50.663 50.226 51.2312 49.9871 51.9321 49.9871C52.633 49.9871 53.2012 50.226 53.2012 50.5206C53.2012 50.8153 52.6329 51.0542 51.9321 51.0542ZM51.9321 49.1925C51.2312 49.1925 50.663 48.8215 50.663 48.3638C50.663 47.9062 51.2312 47.5352 51.9321 47.5352C52.633 47.5352 53.2012 47.9062 53.2012 48.3638C53.2012 48.8216 52.6329 49.1925 51.9321 49.1925ZM59.623 22.8494L59.6226 27.6994L59.623 38.6582C59.623 41.6357 57.2006 44.0582 54.223 44.0582H43.023C40.0455 44.0582 37.623 41.6358 37.623 38.6582V22.6082C37.623 19.6306 40.0454 17.2082 43.023 17.2082H54.223C57.2006 17.2082 59.623 19.6306 59.623 22.6082V22.8494Z" fill="#1D1D1F"/>
</g>
</g>
<path d="M14.2748 71.2065L17.392 62.7515H18.435L21.5521 71.2065H20.4447L19.5951 68.7866H16.2318L15.3822 71.2065H14.2748ZM17.8666 64.1167L16.5424 67.8901H19.2846L17.9604 64.1167H17.8666ZM22.7857 73.3159V64.8901H23.8052V65.8979H23.8989C24.2857 65.1948 24.9888 64.7788 25.8677 64.7788C27.4673 64.7788 28.5161 66.0737 28.5161 68.0425V68.0542C28.5161 70.0347 27.4732 71.3179 25.8677 71.3179C25.0005 71.3179 24.2446 70.8843 23.8989 70.2104H23.8052V73.3159H22.7857ZM25.6333 70.4155C26.7876 70.4155 27.4732 69.5249 27.4732 68.0542V68.0425C27.4732 66.5718 26.7876 65.6812 25.6333 65.6812C24.4849 65.6812 23.7818 66.5835 23.7818 68.0425V68.0542C23.7818 69.5132 24.4849 70.4155 25.6333 70.4155ZM29.9899 73.3159V64.8901H31.0094V65.8979H31.1032C31.4899 65.1948 32.193 64.7788 33.0719 64.7788C34.6715 64.7788 35.7204 66.0737 35.7204 68.0425V68.0542C35.7204 70.0347 34.6774 71.3179 33.0719 71.3179C32.2047 71.3179 31.4489 70.8843 31.1032 70.2104H31.0094V73.3159H29.9899ZM32.8375 70.4155C33.9918 70.4155 34.6774 69.5249 34.6774 68.0542V68.0425C34.6774 66.5718 33.9918 65.6812 32.8375 65.6812C31.6891 65.6812 30.986 66.5835 30.986 68.0425V68.0542C30.986 69.5132 31.6891 70.4155 32.8375 70.4155ZM37.2527 71.2065V62.3823H38.2722V71.2065H37.2527ZM42.6874 71.3179C40.8827 71.3179 39.7929 70.0522 39.7929 68.0718V68.0659C39.7929 66.1147 40.9061 64.7788 42.6229 64.7788C44.3397 64.7788 45.3827 66.0562 45.3827 67.9429V68.3413H40.8358C40.8651 69.6479 41.5858 70.4097 42.7108 70.4097C43.5663 70.4097 44.0936 70.0054 44.2636 69.6245L44.287 69.5718H45.3065L45.2948 69.6187C45.078 70.4741 44.1757 71.3179 42.6874 71.3179ZM42.6171 65.687C41.6796 65.687 40.9647 66.3257 40.8534 67.5269H44.3456C44.2401 66.2788 43.5487 65.687 42.6171 65.687ZM51.9806 71.2065L49.6778 62.7515H50.7794L52.4611 69.6245H52.5314L54.4239 62.7515H55.4903L57.3829 69.6245H57.4532L59.1349 62.7515H60.2364L57.9337 71.2065H56.9376L54.9923 64.5327H54.922L52.9767 71.2065H51.9806ZM62.7414 71.3179C61.5403 71.3179 60.6321 70.5913 60.6321 69.4429V69.4312C60.6321 68.3062 61.4641 67.6558 62.9348 67.5679L64.7453 67.4565V66.8823C64.7453 66.103 64.2707 65.6812 63.3274 65.6812C62.5715 65.6812 62.0735 65.9624 61.9094 66.4546L61.9036 66.4722H60.884L60.8899 66.437C61.0539 65.4468 62.0149 64.7788 63.3625 64.7788C64.9036 64.7788 65.7649 65.5698 65.7649 66.8823V71.2065H64.7453V70.2749H64.6516C64.2532 70.9487 63.5911 71.3179 62.7414 71.3179ZM61.675 69.4194C61.675 70.0581 62.22 70.4331 62.9524 70.4331C63.9895 70.4331 64.7453 69.7534 64.7453 68.8511V68.2769L63.0578 68.3823C62.0969 68.4409 61.675 68.7808 61.675 69.4077V69.4194ZM69.7523 71.2534C68.4515 71.2534 67.9066 70.7729 67.9066 69.5659V65.7339H66.9105V64.8901H67.9066V63.2554H68.9613V64.8901H70.3441V65.7339H68.9613V69.3081C68.9613 70.0522 69.2191 70.3511 69.8754 70.3511C70.057 70.3511 70.1566 70.3452 70.3441 70.3276V71.1948C70.1449 71.23 69.9515 71.2534 69.7523 71.2534ZM74.2378 71.3179C72.4682 71.3179 71.3374 70.0347 71.3374 68.0308V68.019C71.3374 66.0562 72.4624 64.7788 74.2319 64.7788C75.7671 64.7788 76.687 65.6636 76.8745 66.7886L76.8803 66.8237H75.8667L75.8608 66.8062C75.7026 66.1851 75.1401 65.6812 74.2319 65.6812C73.0952 65.6812 72.3803 66.5952 72.3803 68.019V68.0308C72.3803 69.4839 73.1069 70.4155 74.2319 70.4155C75.0815 70.4155 75.6206 70.0405 75.855 69.3374L75.8667 69.3022L76.8745 69.2964L76.8628 69.3608C76.605 70.5034 75.7553 71.3179 74.2378 71.3179ZM78.3072 71.2065V62.3823H79.3268V65.8394H79.4205C79.7369 65.1714 80.3287 64.7788 81.2603 64.7788C82.6783 64.7788 83.4693 65.6167 83.4693 67.1167V71.2065H82.4498V67.3628C82.4498 66.2261 81.9811 65.6812 80.9732 65.6812C79.9654 65.6812 79.3268 66.3608 79.3268 67.4683V71.2065H78.3072ZM37.9017 87.2065V78.7515H38.9271L43.515 85.3315H43.6087V78.7515H44.6517V87.2065H43.6263L39.0384 80.6499H38.9446V87.2065H37.9017ZM47.0981 79.6714C46.7114 79.6714 46.395 79.355 46.395 78.9683C46.395 78.5815 46.7114 78.2651 47.0981 78.2651C47.4848 78.2651 47.8012 78.5815 47.8012 78.9683C47.8012 79.355 47.4848 79.6714 47.0981 79.6714ZM46.5825 87.2065V80.8901H47.602V87.2065H46.5825ZM49.4625 87.2065V78.3823H50.482V83.6499H50.5757L53.3062 80.8901H54.5425L51.7886 83.5444L54.7242 87.2065H53.441L51.0738 84.2358L50.482 84.8101V87.2065H49.4625ZM58.0846 87.3179C56.28 87.3179 55.1901 86.0522 55.1901 84.0718V84.0659C55.1901 82.1147 56.3034 80.7788 58.0202 80.7788C59.737 80.7788 60.78 82.0562 60.78 83.9429V84.3413H56.2331C56.2624 85.6479 56.9831 86.4097 58.1081 86.4097C58.9636 86.4097 59.4909 86.0054 59.6608 85.6245L59.6843 85.5718H60.7038L60.6921 85.6187C60.4753 86.4741 59.5729 87.3179 58.0846 87.3179ZM58.0143 81.687C57.0768 81.687 56.362 82.3257 56.2507 83.5269H59.7429C59.6374 82.2788 58.946 81.687 58.0143 81.687Z" fill="black" fill-opacity="0.8"/>
<defs>
<clipPath id="clip0_8002_47398">
<rect width="25" height="56" fill="white" transform="translate(36.623 0.206543)"/>
</clipPath>
<clipPath id="clip1_8002_47398">
<rect width="25" height="54" fill="white" transform="translate(36.623 2.20654)"/>
</clipPath>
</defs>
</svg>
